<svg width="85" height="85" fill="none" xmlns="http://www.w3.org/2000/svg"><g clip-path="url(#clip0)"><path d="M5.539 39.555l3.153-8.622a8.383 8.383 0 017.217-5.436l54.206-4.065a7.28 7.28 0 017.795 6.709l1.359 18.12a3.985 3.985 0 01-3.676 4.273l-5.93.445a6.13 6.13 0 01-11.984.898l-29.592 2.22a6.13 6.13 0 01-11.983.898l-6.506.488a3.414 3.414 0 01-3.448-2.201 3.53 3.53 0 01-.206-.944l-.766-10.21a6.132 6.132 0 01.36-2.573zm66.814-3.534a1.226 1.226 0 001.13-1.315l-.733-9.782a1.226 1.226 0 00-1.314-1.131l-8.56.642c-.675.05-1.182.64-1.131 1.314l.733 9.783c.051.675.64 1.181 1.315 1.13l8.56-.641zm-8.5 17.852a3.679 3.679 0 10-3.943-3.393 3.69 3.69 0 003.944 3.394zM49.029 36.54c.05.675.639 1.182 1.314 1.131l8.56-.642a1.226 1.226 0 001.13-1.314l-.733-9.783a1.226 1.226 0 00-1.314-1.13l-8.56.641c-.675.05-1.181.64-1.13 1.315l.733 9.782zM35.577 37.55c.05.675.639 1.181 1.314 1.13l8.56-.641a1.226 1.226 0 001.131-1.314l-.733-9.783a1.226 1.226 0 00-1.315-1.131l-8.56.642c-.675.05-1.181.64-1.13 1.314l.733 9.783zM32 39.047a1.226 1.226 0 001.131-1.315l-.733-9.782a1.226 1.226 0 00-1.315-1.131l-8.56.641c-.675.051-1.181.64-1.13 1.315l.733 9.782c.05.676.64 1.182 1.315 1.131l8.56-.641zM22.28 56.99a3.679 3.679 0 10-3.944-3.393 3.69 3.69 0 003.944 3.393zm-3.632-16.943a1.238 1.238 0 001.034-1.307l-.735-9.793a1.216 1.216 0 00-1.303-1.122l-1.551.117a5.934 5.934 0 00-5.099 3.838L7.84 40.403c-.164.45-.238.928-.214 1.406l11.021-1.761z" fill="#C8E8E4"/></g><defs><clipPath id="clip0"><path fill="#fff" transform="scale(-1 1) rotate(4.288 -39.13 -1045.124)" d="M0 0h78.479v78.479H0z"/></clipPath></defs></svg>