<svg width="206" height="123" fill="none" xmlns="http://www.w3.org/2000/svg"><path fill-rule="evenodd" clip-rule="evenodd" d="M115.629 114.737c0 .896.973 1.044 1.278.236.275-.62-.039-1.004-.776-1.004-.266 0-.502.344-.502.768zm-31.047-4.029c-.58.581-.275 2.059.501 2.285 1.042.316 2.005-.463 1.858-1.507-.118-.818-1.78-1.359-2.36-.778zm37.504-3.487c-.54.581-.226 1.32.541 1.32.55 0 .737-.197.658-.66-.108-.7-.766-1.045-1.199-.66zm7.313 7.329c-.777.808-.197 2.128.963 2.128.934 0 1.395-1.045.855-1.862-.541-.887-1.121-.966-1.818-.266zm2.742-3.842c-.501.502-.266 2.019.314 2.246 1.042.394 1.779-.187 1.661-1.281-.118-1.005-1.356-1.586-1.975-.965zm2.329-3.182c-.432 1.093.147 1.822 1.229 1.704.776-.069 1.012-.305 1.012-1.083 0-.769-.236-1.005-1.012-1.084-.649-.079-1.121.118-1.229.463zm-114.48-6.512c-.58.581-.265 2.059.512 2.286 1.042.315 2.005-.463 1.847-1.508-.108-.817-1.779-1.359-2.358-.778zm104.927-1.202c-.393.473-.354.621.187.818.894.345 1.553-.384.855-.965-.423-.355-.659-.316-1.042.147zm-36.974-3.91c-.422 1.083.04 1.98.963 1.98 1.239 0 1.897-1.094 1.239-1.902-.659-.778-1.936-.817-2.202-.079zm39.952-4.966c-.354.394.147 1.32.727 1.32.315 0 .541-.344.541-.778 0-.729-.727-1.044-1.268-.542zm-115.56-.768c-.62.768-.04 1.852 1.12 2.01 1.052.157 1.897-1.281 1.199-2.089-.58-.739-1.661-.7-2.32.079zm116.985-7.172c-.305.542.423 1.271.973.966.226-.158.423-.542.423-.857 0-.62-1.003-.73-1.396-.109zM86.626 78.11c-.236.305-.344.887-.196 1.36.314.965 1.975 1.044 2.476.069.777-1.468-1.199-2.749-2.28-1.429zm42.615-4.187c.158.808 1.278.966 1.278.119 0-.316-.305-.621-.698-.7-.54-.118-.698.04-.58.581zm-3.017-8.757c-.305.541.433 1.27.973.965.226-.158.423-.542.423-.857 0-.62-1.003-.729-1.396-.108zm-46.596-2.138c-.353.424-.383.778-.078 1.241.58.936 1.7 1.044 2.28.276 1.081-1.478-1.042-2.916-2.202-1.517zm42.272-4.995c.147.808 1.277.966 1.277.109 0-.306-.314-.621-.697-.69-.541-.118-.698.03-.58.581zm-5.878-6.866c0 .424.226.778.502.778.737 0 1.041-.394.766-1.014-.304-.808-1.268-.65-1.268.236zm-46.33-1.084c-1.16 1.163.108 2.985 1.543 2.207 1.16-.62.62-2.67-.658-2.67-.226 0-.62.188-.885.463zm40.718-5.112c-.304.541.118 1.162.816 1.162.305 0 .541-.355.541-.778 0-.818-.934-1.084-1.357-.384zm-6.535-5.084c-.118.197 0 .542.314.779.384.305.61.305.963-.08.236-.314.305-.66.158-.777-.354-.385-1.199-.345-1.435.078zm-6.536-3.605c-.344.345.157 1.32.698 1.32.54 0 1.041-.975.697-1.32a1.373 1.373 0 00-.697-.237c-.236 0-.54.118-.698.237zm-6.074-2.325c0 .305.197.463.393.345a.732.732 0 00.383-.621c0-.187-.157-.345-.383-.345-.196 0-.393.276-.393.62zm-5.219-2.522c-.383.581.118.975.62.463.275-.266.275-.503.039-.66-.236-.108-.54-.03-.659.197zm20.07 1.704c-.148.355-.079.818.157 1.054.58.582 1.7.03 1.543-.738-.148-.897-1.386-1.124-1.7-.316zm-3.598-2.364c-.619.739-.226 1.399.777 1.399.58 0 .776-.237.658-.857-.157-1.044-.815-1.271-1.435-.542zm-4.904-1.507c-.157.345-.079.808.147 1.044.58.581 1.7.04 1.553-.739-.157-.887-1.395-1.123-1.7-.305zm57.505 87.567c-.58.7-.118 1.783.767 1.783.973 0 1.356-1.014.737-1.743-.58-.739-.924-.739-1.504-.04zm4.256-5.044c-.511.621-.157 1.784.54 1.784.266 0 .688-.266.964-.582.383-.463.383-.699 0-1.162-.58-.739-.924-.739-1.504-.04zm4.246-6.59c-.58.699-.109 1.783.737 1.783.393 0 .815-.266.933-.621.226-.62-.353-1.704-.933-1.704-.158 0-.502.237-.737.542zm5.071-7.556c-.776.463-.383 1.783.501 1.783.541 0 .777-.276.777-.936 0-1.044-.502-1.35-1.278-.847zm2.86-6.275c-.157.345 0 .886.344 1.231.511.552.658.552 1.199-.04.354-.344.541-.925.432-1.23-.314-.818-1.67-.779-1.975.039zm2.634-8.61c-.354.886.147 1.822.885 1.665.855-.158 1.159-1.468.422-1.901-.727-.503-1.081-.424-1.307.236zm.963-8.098c-.422.542-.383.69.226 1.163.629.463.816.463 1.278 0 .658-.66.354-1.783-.423-1.783-.304 0-.806.266-1.081.62zm-1.622-7.871c-.314.808.305 1.507 1.121 1.36 1.042-.197.963-1.636-.079-1.793-.462-.07-.933.118-1.042.433zm-2.977-7.29c-.433.503-.433.739.117 1.241.806.818 1.887.345 1.74-.738-.157-1.084-1.16-1.35-1.857-.503zm-3.332-6.196c-.305.729.118 1.35 1.012 1.35.727 0 1.16-.66.885-1.468-.226-.66-1.622-.582-1.897.118zm-2.703-5.822c-.315.778.157 1.36 1.002 1.36.895 0 1.239-.503.934-1.321-.314-.778-1.671-.808-1.936-.04zm-4.678-4.61c-.118.305-.04.778.186 1.004.62.62 1.632.079 1.632-.847 0-.936-1.474-1.084-1.818-.158zm-5.337-4.611c-.58.542-.58.7-.039 1.202.697.729 1.779.345 1.779-.66 0-1.015-1.013-1.32-1.74-.542zm-6.89-4.69c-.501.503-.265 1.626.394 1.853.805.315 1.385-.227 1.199-1.163-.118-.729-1.121-1.162-1.593-.69zm-5.956-4.226c-.687.267-.619 1.626.079 1.892.934.394 1.818-.542 1.317-1.428-.383-.74-.58-.818-1.396-.463zm27.962 92.139c.658.503.658.581.078.818-.776.305-2.358-.473-2.044-1.015.344-.502 1.081-.424 1.966.197zm-6.035-.66c1.74.197 1.936.305 1.17.542-1.75.502-4.148.384-4.649-.237-.58-.689.039-.729 3.479-.305zm-5.523-.424c-.118.119-.462.148-.737.04-.305-.118-.197-.237.236-.237.422-.039.658.079.501.197zm13.415 0c1.278.887 1.396 1.084.855 1.389-.933.513-3.872-1.162-3.292-1.891.58-.699.737-.66 2.437.502zm1.081-1.054c2.094 1.32 2.595 1.98 1.553 1.98-.737 0-3.951-2.246-3.951-2.787 0-.542.58-.355 2.398.807zm-8.275-.807l.973 1.241h-2.211c-1.199 0-2.162-.158-2.162-.355 0-.581 1.621-2.404 2.054-2.246.226.079.806.66 1.346 1.36zm8.315-1.399c1.277.66 4.137 3.063 4.137 3.448 0 .738-1.356.275-3.243-1.084-2.673-1.901-2.673-1.941-2.398-2.404.344-.542.462-.542 1.504.04zm-62.184-.847c.158.226-.383.384-1.356.384-.963 0-1.504-.158-1.346-.384.108-.237.727-.395 1.346-.395.619 0 1.239.158 1.356.395zm56.307.068c1.7.434 3.056.976 3.056 1.173 0 .423-1.278.384-2.555-.079-1.425-.542-1.543-.276-.541 1.162.973 1.35.895 1.783-.226 1.005-.855-.62-3.45-4.108-3.017-4.108.108 0 1.622.384 3.283.847zm-5.721 1.399c-.658.779-1.592 1.478-2.093 1.557-.806.108-.688-.118 1.012-1.823 2.123-2.216 2.9-1.98 1.081.266zm13.996-1.507c1.081.621 2.555 1.665 3.292 2.325 1.121.965 1.278 1.241.767 1.586-.845.581-1.238.384-4.216-1.901-1.543-1.242-2.585-2.325-2.467-2.631.265-.699.422-.66 2.624.621zm-65.938-1.162c0 .305-2.005.886-2.28.62-.039-.079 0-.315.157-.551.305-.503 2.123-.582 2.123-.069zm-7.853.384c2.133.581-.344.857-3.98.423-1.897-.187-4.256-.384-5.258-.384-1.12 0-1.858-.157-1.858-.423 0-.513 9.052-.158 11.096.384zm-12.255-.778c0 .463-1.622.699-5.023.778-1.592.039-3.213.157-3.557.276-.502.147-.698 0-.698-.591 0-.769.196-.808 4.639-.808 2.555 0 4.639.157 4.639.345zm89.682 1.359c3.175 2.207 3.597 2.749 2.359 3.143-.58.187-1.356-.158-2.821-1.242a52.111 52.111 0 00-3.479-2.403c-1.199-.739-1.395-1.005-1.012-1.439.619-.768 1.553-.423 4.953 1.941zm-38.821-.926v1.744l-2.015.108c-1.12.079-2.054-.029-2.054-.226 0-.158.619-1.045 1.395-1.981 1.819-2.088 2.674-2.009 2.674.355zm-27.962-.473c1.003.542 2.123 1.281 2.477 1.675.609.689.609.729-.511.729-1.307 0-5.523-2.591-5.523-3.409 0-.66 1.081-.344 3.557 1.005zm56.532-.62c.856 1.438.895 1.714.394 1.783-.659.157-4.02-.66-4.02-.966 0-.542 1.661-2.443 2.123-2.443.304 0 .963.739 1.503 1.626zm-48.453.078c-.924.976-2.201 1.941-2.82 2.217-1.013.424-1.317.305-3.991-1.517-2.083-1.399-2.703-2.02-2.201-2.128.354-.118 2.899-.197 5.69-.236l4.983-.04-1.661 1.704zm57.269-1.507c.738.306 2.792 1.389 4.531 2.483l3.175 1.93-1.013.661c-.697.472-1.199.541-1.543.315-.275-.197-2.093-1.399-3.98-2.64-2.29-1.468-3.41-2.483-3.292-2.788.235-.7.461-.66 2.122.039zm-78.852.424c5.652.817 5.956 1.546.58 1.477-4.943-.078-8.04-.472-8.04-1.093 0-.808.856-1.35 1.898-1.202.54.079 3.056.473 5.562.818zm42.655-1.084c1.631 1.084 1.779 5.113.197 5.113-.502 0-.62-.384-.659-1.862 0-1.005-.147-2.207-.305-2.709-.314-.857 0-1.084.767-.542zm30.477.04c2.516.778 2.398 1.359-.186.965l-1.671-.266.855 1.162c.884 1.242 1.081 2.049.54 2.049-.461 0-1.317-1.004-2.555-3.024l-1.002-1.625h.855c.501 0 1.926.344 3.164.739zm-5.562-.582c0 .808-1.711 2.709-2.29 2.522-.305-.118-.109-.66.619-1.596 1.16-1.546 1.671-1.822 1.671-.926zm16.511 1.429c3.98 2.019 4.678 2.522 4.295 2.985-.737.896-2.516.315-6.506-2.049-4.325-2.601-4.02-2.365-3.666-2.867.422-.7 1.002-.503 5.877 1.931zm-60.994-1.783c.432.512-.226.581-5.563.581-3.332 0-6.034-.069-6.034-.187 0-.582 2.201-.936 6.417-.936 3.716-.04 4.797.079 5.18.542zm-22.467-.188c2.86.424 5.297.887 5.415.966.118.118-.079.502-.423.818-.54.541-1.081.541-5.956-.197-2.978-.463-5.494-.818-5.65-.818-.502 0-.345-1.084.196-1.271.737-.315.963-.315 6.418.502zm-45.358.227c-.157.581-.393 1.517-.501 2.138-.197 1.044-.354 1.123-1.897 1.123-1.631 0-1.7-.04-1.7-1.163 0-1.596 1.504-3.103 3.125-3.103 1.12 0 1.2.079.973 1.005zm-22.28.158c1.66.423 3.479.778 4.02.778.51 0 1.09.148 1.198.384.158.237-.226.384-.845.384-1.395-.029-8.658-1.044-8.855-1.27-.393-.395.383-1.478.884-1.281.315.118 1.937.581 3.598 1.005zm-10.251-.779c.698.316.658.355-.266.355-.58.039-1.16-.158-1.277-.355-.266-.463.462-.463 1.543 0zm53.524.582c1.12 1.123 1.435 4.147.433 4.383-.472.079-.62-.236-.62-1.32 0-1.783-1.7-3.487-2.83-2.866-1.042.541-1.228 1.438-.54 2.167.619.581.697.581 1.317-.187l.697-.857.423.817c.62 1.163-.157 2.404-1.465 2.246-2.358-.275-2.977-4.147-.815-5.231 1.12-.581 2.162-.315 3.4.848zm69.309-.109c.727 1.705.659 4.808-.118 5.576-.54.542-.619.394-.855-1.468-.157-1.123-.658-2.679-1.081-3.487-.658-1.163-.737-1.557-.344-2.02.688-.817 1.74-.236 2.398 1.399zm-29.121-1.359c.079.345-.432.502-1.818.502-1.858 0-2.595-.463-1.474-.926.855-.354 3.096-.039 3.292.424zm-82.528-.04c1.268.306 3.018.779 3.824.966 2.24.581 1.818 1.28-.58.975-2.86-.394-8.04-1.783-8.04-2.216 0-.542 2.123-.424 4.796.275zm-9.907.04c.08.305-.186.502-.619.502-1.08 0-2.005-.384-2.005-.857 0-.542 2.438-.187 2.624.355zm164.053 2.285c1.819.7 3.558 1.281 3.863 1.32.314 0-.069.424-.885 1.005l-1.474.966-5.179-2.749c-2.86-1.507-5.219-2.906-5.219-3.064 0-.729.658-.699 3.056.237 1.386.542 4.02 1.586 5.838 2.285zm-94.744-2.945c0 .236-.51 1.438-1.16 2.669l-1.13 2.296-4.442.039c-2.742.04-4.521-.079-4.678-.354-.197-.345.697-3.764 1.238-4.768.265-.424 10.172-.345 10.172.118zm80.199.542c.55.738 1.012 1.438 1.012 1.546 0 .434-1.975.237-3.361-.345-1.239-.502-1.317-.66-.855-1.28 1.317-1.626 1.897-1.626 3.204.079zm-26.33.315c.963 1.271 1.504 4.295 1.199 6.433-.197 1.428-.393 1.665-1.081 1.546-.737-.118-.816-.344-.816-3.408 0-2.788-.118-3.488-.855-4.542-.501-.65-.885-1.31-.885-1.428 0-.502 1.779.502 2.438 1.399zm-32.797-1.635c.118.197-.039.394-.344.394-.354 0-.619-.197-.619-.394 0-.227.147-.385.344-.385.236 0 .501.158.619.385zm-10.752.66l4.295.62-.58.936c-.344.502-.894.847-1.238.729-.344-.079-3.096-.463-6.114-.847-5.415-.7-6.064-.975-5.022-2.059.501-.542 1.2-.463 8.659.621zm-48.03-.266c0 .384-.541.66-1.622.807-2.054.276-2.752.857-3.794 3.261-.767 1.744-.885 1.862-1.278 1.084-.884-1.626.54-4.384 2.83-5.389 1.505-.699 3.863-.542 3.863.237zm-9.632.078c-.109.503-.423 1.813-.688 2.907-.276 1.31-.659 2.049-1.013 2.049-.462 0-.54-.503-.383-2.483.226-2.867.462-3.33 1.543-3.33.62 0 .737.197.54.857zm-36.198-.039c0 .463-.462.424-1.74-.039-1.425-.542-.845-1.242.58-.7.659.187 1.16.542 1.16.739zm25.642-1.133c3.951.434 4.138.473 4.138 1.36 0 .463-.118.896-.226.896-.62 0-9.632-1.635-9.75-1.744-.314-.315.383-.975 1.002-.975.354 0 2.517.197 4.836.463zm135.63-.611c0 .542-1.357 2.473-1.858 2.67-.933.345-.894.039.187-1.478.894-1.27 1.671-1.812 1.671-1.192zm-52.68 1.192c1.317.779 2.398 1.557 2.398 1.754 0 .148-.579.305-1.307.305-.933 0-1.897-.423-3.213-1.399-2.674-2.049-2.703-2.088-1.435-2.088.619 0 2.211.66 3.557 1.428zm-93.466-.61c.619 1.162-.04 1.625-1.514 1.083-1.041-.354-1.16-.542-.845-1.162.54-.976 1.818-.936 2.359.079zm-12.187-.7c.51.463-.344 1.044-1.543 1.044-.777 0-1.7-.344-2.202-.817l-.933-.769 2.21.148c1.23.079 2.36.236 2.468.394zm162.313 0c1.661.463 2.978 1.005 2.9 1.241-.118.424-.502.424-2.045.04-1.238-.315-1.238.148 0 1.625.541.66.806 1.281.61 1.389-.187.158-1.199-.729-2.241-1.891-1.7-2.02-2.664-3.3-2.359-3.3.079 0 1.474.423 3.135.896zm-27.037.305c2.093 1.823 3.449 4.926 3.636 8.453l.157 2.985-1.395-.158-1.386-.148v-2.797c0-3.685-.541-5.389-2.211-7.014-.846-.818-1.268-1.547-1.16-1.941.354-.847.855-.739 2.359.62zm-43.736-.344c3.332.581 4.914 1.044 4.914 1.389 0 .896-1.042.936-6.074.118-2.742-.463-5.563-.808-6.221-.808-1.317 0-1.553-.315-.776-1.093.697-.69 2.624-.582 8.157.394zm23.44-.621c.226.227-2.437 4.492-2.938 4.689-.472.197-9.013-4.768-9.013-5.191 0-.237 11.676.266 11.951.502zm-33.416-.236c.118.197.04.699-.157 1.083-.501.936-4.56 1.439-8.118 1.015-2.123-.236-2.359-.355-2.359-1.162 0-.739.236-.897 1.465-1.055 3.096-.305 8.933-.266 9.17.119zm-38.094.197c0 .886-.157.965-1.543.965-3.253 0-5.808 2.02-6.654 5.271-.344 1.201-.658 1.714-1.16 1.714-.54 0-.697-.316-.697-1.596 0-4.069 3.715-7.211 8.629-7.29 1.268-.04 1.425.079 1.425.936zm-8.973-.119c.62.542.58 1.478-.079 1.478-1.268 0-2.938-.542-2.938-.936 0-1.28 1.67-1.586 3.017-.542zm-10.674-.817c3.175.433 3.44.512 3.332 1.28-.118.936-.157.936-6.192.434-3.174-.276-3.793-.434-3.793-.975 0-.345.118-.779.275-.887.344-.394 2.516-.355 6.378.148zm-10.32.354c.109.424.109 1.163-.038 1.626l-.276.857-.697-.897c-.541-.66-.62-1.044-.345-1.625.541-.975 1.042-.926 1.357.039zm149.665-.197c1.268 1.045.767 1.281-1.277.542-.777-.266-1.121-.581-.973-.965.314-.778.933-.66 2.25.423zm-146.765-.039c0 .542-.157 1.084-.393 1.202-.226.157-.383-.266-.383-.926s.196-1.202.383-1.202c.236 0 .393.424.393.926zm-1.553.197c0 .66-.147 1.281-.383 1.399-.236.148-.383-.315-.383-1.133 0-.768.186-1.389.383-1.389.236 0 .383.502.383 1.123zm121.477-.384c1.701 1.389 4.059 5.812 4.403 8.216.158 1.162.079 2.206-.265 3.103l-.58 1.31-.236-2.482c-.344-3.094-1.543-5.773-3.902-8.601-.973-1.201-1.778-2.285-1.778-2.443 0-.541 1.081-.157 2.358.897zm-135.787-.315c0 .778-.147.817-2.32.66-1.267-.079-2.427-.316-2.584-.463-.54-.503.845-1.015 2.9-1.015 1.778 0 2.004.079 2.004.818zm177.007 1.32c3.479 1.28 6.31 2.443 6.31 2.6 0 .109-.855 1.163-1.897 2.286l-1.897 2.01-3.017-1.005c-4.099-1.399-9.16-3.527-9.317-3.99-.04-.197.226-.778.658-1.32l.727-.966 2.251.848c1.238.463 3.863 1.546 5.877 2.443 1.966.857 3.784 1.507 3.981 1.477.383-.157-10.634-4.965-11.332-4.965-.501 0-.423-.935.118-1.477.58-.581-.04-.769 7.538 2.059zm-64.08-1.744l.973.581-1.16.118c-1.936.227-10.713-.394-10.369-.699.895-.896 9.013-.857 10.556 0zm-49.574-.236c1.465.778 2.398 2.561 2.398 4.541 0 2.364-.619 2.906-2.014 1.704-.964-.817-1.042-1.054-.659-1.98.737-2.059-1.12-4.423-2.546-3.261-.737.621-.737 1.902 0 2.178.305.157.846.039 1.16-.237.462-.384.58-.345.58.315 0 1.35-.934 1.744-2.093.808-1.16-.926-1.396-3.024-.384-3.99.737-.738 2.32-.778 3.558-.078zm102.479-.542c.659 0 1.239.157 1.239.384 0 .197-.502.394-1.16.394-1.396 0-1.474.581-.275 1.586.471.384.658.699.393.739-.236 0-1.199-.621-2.133-1.399-2.585-2.167-2.624-2.207-.884-1.931.845.109 2.122.227 2.82.227zm-43.077.975c2.477 1.744 4.865 2.63 6.575 2.433.767-.069 1.386-.039 1.386.079 0 .355-6.3 8.177-7.42 9.231-.934.847-1.199.847-6.457.768l-5.494-.108 3.754-5.241c2.044-2.867 4.098-5.97 4.521-6.896.462-.887.884-1.625 1.042-1.625.118 0 1.041.62 2.093 1.359zm-26.919.187c1.739 0 2.054.463 1.12 1.704-.501.66-.737.66-5.533-.118-2.782-.463-5.76-.808-6.644-.808-1.632 0-1.936-.354-1.435-1.625.196-.473 1.042-.473 5.533.108 2.899.394 6.035.7 6.959.739zm63.736-.079c-.58.582-.619.582-.619-.157 0-1.084.923-2.01 1.081-1.084.078.355-.118.936-.462 1.241zm-53.299-1.586c-.383.079-1.081.079-1.543 0-.501-.078-.196-.157.659-.157.855-.04 1.238.039.884.157zm-70.763.503c1.386.857 1.504 1.241.658 1.94-.51.424-.855.385-1.975-.118-.737-.384-1.7-.66-2.094-.66-.845 0-1.002-.778-.304-1.468.697-.699 2.28-.541 3.715.306zm-8.59-.306c-.118.503-.226 1.084-.226 1.311 0 .275-.855.315-2.595.118-1.474-.197-3.636-.306-4.875-.306-1.66-.039-2.28-.197-2.476-.66-.384-1.044.698-1.32 5.65-1.32 4.758 0 4.758 0 4.522.857zm13.19-.778c1.277 1.202 1.12 1.744-.541 1.98-1.2.109-1.661 0-2.516-.817-.816-.739-.963-1.123-.659-1.508.698-.778 2.713-.62 3.715.345zm64.502-.857c.118.197-.118.394-.58.394-.462 0-.698-.197-.58-.394.118-.227.394-.384.58-.384.197 0 .462.157.58.384zm-12.914.197c3.902.345 7.155.66 7.194.739.079.079-.039.542-.275 1.044l-.423.936-5.101-.66c-2.83-.355-5.808-.66-6.653-.699-1.858 0-2.713-.503-2.398-1.321.157-.344.304-.62.422-.62s3.371.276 7.234.581zm-91.698.197c0 .66-.265.769-1.621.769l-1.661-.04 1.356-.729c1.74-.936 1.926-.936 1.926 0zm178.285.966c3.675 1.162 6.771 2.127 6.85 2.127.344 0 .039.976-.659 1.941l-.776 1.084-6.772-2.552c-3.705-1.399-6.761-2.719-6.761-2.906 0-.355 1.12-1.822 1.346-1.822.049 0 3.096.965 6.772 2.128zm-95.718-1.281c-.147.502-.422 1.044-.658 1.281-.187.197-2.703.463-5.524.502l-5.218.158v-2.365l2.624-.157c1.435-.079 4.02-.158 5.798-.188 3.175-.078 3.214-.078 2.978.769zM14.271 106.6c.039 2.522-.384 3.103-2.163 3.103-1.553 0-1.553-.118-.314-1.635.776-.926.973-1.547.973-3.409 0-1.241.187-2.748.462-3.369.422-1.044.462-1.044.737 1.044.147 1.163.265 3.103.305 4.266zm105.231-5.044c3.125 1.635 2.624 2.138-.58.621-1.779-.808-3.479-2.207-2.674-2.168.197.04 1.661.739 3.254 1.547zm-101.556 1.123c1.12 2.295 1.12 2.404.659 5.083-.433 2.286-.62 2.709-1.278 2.709-.619 0-.698-.147-.462-.689.58-1.36.62-4.345 0-6.403-1.16-4.069-.658-4.374 1.081-.7zm-1.74 2.561c.846 3.064.384 4.847-1.198 4.847-.58 0-.659-.118-.315-.739.197-.423.433-2.748.433-5.152.03-3.527.108-3.99.344-2.443.157 1.044.462 2.64.737 3.487zm160.722-4.029l1.543 1.586-2.084-.226c-1.159-.158-2.28-.355-2.437-.473-.275-.148 1.042-2.473 1.396-2.473.029 0 .766.729 1.582 1.586zm-174.609-.62c0 1.004-.54 1.28-.963.581-.354-.542.04-1.547.58-1.547.187 0 .383.424.383.966zm36.355 0v1.359l-5.032-.039H28.62v-.976c0-.502.04-.965.118-.965.04-.04 2.005-.197 4.324-.345 2.359-.118 4.57-.276 4.954-.315.5-.079.658.236.658 1.281zm-27.686-.779c-.04.394-2.791 2.138-3.371 2.138-.423 0 .776-2.216 1.356-2.443.777-.355 2.044-.118 2.015.305zm94.204-.187c3.282.227 6.113.542 6.3.729.157.158.039.581-.187.936-.472.621-.895.621-4.374.305-2.132-.226-5.494-.502-7.47-.66-2.938-.187-3.557-.344-3.4-.807.118-.316.236-.7.236-.857 0-.119.659-.188 1.465-.158.776.04 4.137.276 7.43.512zm-81.987 1.241l3.243 1.508-1.504.699c-.855.384-2.359 1.32-3.361 2.089-1.632 1.241-1.858 1.32-1.858.699 0-.424-.422-1.98-.973-3.448-.54-1.478-.963-2.906-.963-3.142 0-.66 1.7-.188 5.415 1.595zm157.939-2.177c1.121.424.62 1.005-.737.857-1.543-.197-1.7.227-.501 1.508.619.66.698.896.265.896-.688 0-3.823-2.6-3.823-3.142 0-.385 3.823-.503 4.796-.119zm-6.732.424c0 .778-1.897 3.3-1.936 2.561 0-.699 1.238-3.211 1.631-3.211.148 0 .305.305.305.65zM7.538 98.847c.315.502-1.818 4.305-2.32 4.108-.618-.197-.343-2.906.394-3.724.767-.847 1.543-1.005 1.926-.384zm-3.322.847c-.54 1.901-1.12 2.256-1.12.66 0-1.468.226-1.891 1.002-1.891.354 0 .384.305.118 1.231zm188.3.778c3.44 1.084 6.26 2.138 6.26 2.286 0 .158-.304.621-.658 1.093l-.698.848-6.958-2.168c-3.784-1.202-6.998-2.246-7.116-2.325-.079-.118.079-.66.354-1.201.648-1.163.265-1.242 8.816 1.467zm-62.577-1.94c0 1.014-2.476 5.743-3.017 5.743-.737 0-8.973-4.305-8.973-4.69 0-.275.933-.502 4.835-1.28 1.936-.394 7.155-.236 7.155.227zM27.608 99.93c.196.896.235 1.743.117 1.861-.117.119-1.857-.502-3.901-1.359-2.054-.887-3.912-1.586-4.099-1.586-.236 0-.314-.197-.196-.384.157-.276 1.7-.394 3.98-.316l3.755.119.344 1.665zm122.214-1.4c.766 1.134.766 3.882.039 5.35-.658 1.241-1.199 1.438-2.133.66-1.621-1.31-1.621-1.625-.304-4.295.697-1.399 1.385-2.561 1.543-2.561.157 0 .54.384.855.847zm-97.457-.108c2.084 1.39 3.135 3.951 2.201 5.428-.422.651-1.199.227-1.199-.699 0-.394-.462-1.084-1.002-1.635-1.239-1.163-3.951-1.271-5.072-.266-1.857 1.704-2.358-.424-.54-2.365.934-1.004 1.435-1.201 2.82-1.201.974 0 2.133.305 2.792.738zm108.897 1.045c-.806 2.324-1.386 3.251-2.044 3.251-.816 0 .117-2.867 1.356-4.148.649-.69 1.268-1.28 1.307-1.28.079 0-.226.975-.619 2.177zm-85.073-1.439c1.277.897 1.926 2.286 2.201 4.65.344 2.985 0 3.418-1.582 1.901-1.2-1.162-1.278-1.31-.737-2.088.697-1.044.304-2.68-.777-3.448-1.12-.778-1.7-.739-2.201.227-.58 1.044.196 2.177 1.041 1.477.315-.276.462-.699.354-1.014-.275-.621.226-.65.846-.04.658.66.58 2.059-.118 2.64-1.12.936-3.126-.62-3.824-2.985-.196-.58-.039-1.083.54-1.665.925-.935 2.586-.817 4.257.345zm30.86-.886c3.204.147 5.878.305 5.878.384 0 .079-.197.581-.462 1.123-.433.936-.58 1.015-2.398.778-1.937-.197-11.912-.965-12.885-.965-.54 0-.698-1.241-.187-1.714.147-.188 1.16-.188 2.201-.07 1.082.11 4.6.306 7.853.464zm-68.375.541v1.163H36.08a61.07 61.07 0 00-5.22.266c-2.28.197-2.633.158-2.633-.384 0-.345.393-.74.894-.847 2.595-.66 6.457-1.281 7.932-1.32 1.543-.04 1.621 0 1.621 1.123zm154.608-.157c3.991.965 7.273 1.822 7.352 1.901.236.237-1.081 2.522-1.435 2.522-.187 0-3.322-.975-6.959-2.138-3.636-1.162-6.879-2.127-7.194-2.127-.304 0-.58-.119-.58-.237 0-.502.816-1.704 1.16-1.704.236 0 3.676.817 7.656 1.783zm-63.539-1.241c.855.62.894.58-7.883 1.398-4.491.424-6.034.158-4.334-.738 1.897-1.044 11.057-1.508 12.217-.66zm21.622.236c1.621 1.97 1.857 6.433.422 9.418-.727 1.586-1.503 1.822-2.122.699-.276-.581-.158-1.123.579-2.443 1.16-2.019 1.199-3.182.197-5.733-1.278-3.222-.894-4.079.924-1.94zm-99.54-.542c.923.385 1.857 1.123 2.358 1.97 1.12 1.784.659 2.02-1.042.542-1.896-1.704-3.056-2.088-4.61-1.586-1.385.463-2.515 1.557-3.4 3.34-.344.65-.924 1.31-1.277 1.468-1.042.384-.384-2.325.933-3.99 1.927-2.443 4.02-2.946 7.037-1.744zm-41.85 1.044c1.78.74 3.332 1.439 3.44 1.587.55.541-3.36.157-5.68-.542-2.9-.887-4.216-.966-5.612-.306-1.12.503-1.465.306-1.12-.66.393-1.004 2.437-1.783 4.216-1.586.855.109 2.978.808 4.757 1.508zm169.508-1.004c.806.62 1.504 1.202 1.504 1.35 0 .196-1.042.314-2.319.314-1.278 0-2.32-.078-2.32-.197 0-.423 1.16-2.521 1.396-2.521.108 0 .884.472 1.739 1.054zm-56.885-.66c0 .187-.777.384-1.711.384-.923 0-2.044.118-2.437.236-.609.187-.609.148.039-.394.855-.69 4.109-.847 4.109-.226zm53.514.926c-1.041 1.625-1.385 1.162-.462-.66.58-1.123.895-1.429 1.003-.966.078.345-.148 1.084-.541 1.626zm-149.428.118c0 .886-.079.886-4.256.886-2.32 0-4.256-.069-4.256-.187s.738-.7 1.632-1.36c1.425-1.043 1.818-1.162 3.4-.925 1.278.148 1.937.079 2.123-.237.433-.7 1.357.582 1.357 1.823zm81.908-1.98c2.595.157 4.836.394 4.914.542.079.118.04.66-.078 1.133-.236.847-.344.886-3.558.65-1.818-.109-5.258-.306-7.617-.463-2.359-.119-4.492-.345-4.718-.503-.235-.157-.353-.66-.196-1.162.236-.897.314-.926 3.361-.7 1.74.158 5.268.394 7.892.503zm11.293-.187c0 .187-.423.344-.963.344-.659 0-.895-.157-.737-.541.226-.582 1.7-.385 1.7.197zm-81.594.344c0 1.005-.157 1.163-1.435 1.36-.816.118-2.782.502-4.413.808-3.44.66-4.216.66-4.216.157 0-.58 1.435-1.241 5.228-2.364 4.6-1.389 4.836-1.389 4.836.04zm113.575-.7c2.939 3.262 3.636 10.433 1.435 14.926-.541 1.123-1.12 2.058-1.317 2.058-.197 0-.541-.62-.776-1.359-.384-1.162-.344-1.438.235-2.019 1.121-1.163 1.701-3.094 1.701-5.931 0-2.827-.58-4.728-1.936-6.472-1.386-1.783-.806-2.828.658-1.202zm42.851.356c7.735 1.507 7.273 1.35 6.998 2.788-.157.66-.383 1.359-.541 1.467-.304.316-14.772-3.054-15.312-3.556-.236-.197-.197-.7.079-1.32.501-1.084-.315-1.162 8.776.62zm-99.354.423c-.147 1.123-.344 2.749-.462 3.645l-.225 1.586-3.716.276c-2.093.118-4.678.227-5.838.227h-2.054l.118-3.251c.079-1.783.266-3.38.384-3.488.235-.236 6.771-.896 9.975-.975l2.094-.04-.275 2.02zm89.683-2.059c.315.582-1.12 1.202-2.663 1.202-1.701 0-1.74.355-.236 1.675 1.042.965 1.513 1.813.963 1.813-1.229 0-5.602-3.567-5.602-4.532 0-.62 7.155-.739 7.538-.158zm-138.48.818l.767.778-1.897 1.931c-1.042 1.054-2.044 1.94-2.202 1.94-.157 0-.304-1.32-.304-2.945v-2.985l1.425.237c.776.157 1.779.58 2.211 1.044zM7.46 93.3c1.012.502 5.65 3.448 5.995 3.763.275.305-2.438-.463-5.524-1.517-2.938-1.005-4.334-1.084-6.113-.345-.619.236-.698.079-.58-1.044.079-1.123.305-1.36 1.278-1.557 1.464-.305 3.558-.04 4.944.7zm103.255-1.044c3.45 0 3.755.078 3.755.738 0 .424-.148.847-.344.966-.354.236-15.932-.542-16.247-.778-.078-.07-.039-.424.118-.769.236-.581.737-.62 4.6-.433 2.359.157 6.035.276 8.118.276zm13.465.965c1.897.936 3.283 1.783 3.165 1.901-.964.975-8.58-1.586-8.62-2.906 0-1.468.541-1.399 5.455 1.005zm-86.36-1.507c-.109.926-.463 1.123-4.944 2.482-4.797 1.468-5.377 1.507-5.416.118 0-.394 8.54-3.457 9.976-3.566.344-.04.462.306.383.966zm158.371-.345c5.878.965 6.458 1.123 6.458 1.852-.04 1.94-.197 1.94-8.276.355-6.113-1.202-7.587-1.596-7.587-2.138 0-1.468.933-1.468 9.405-.07zm-42.851.345c1.818 2.364 2.585 5.004 2.821 9.26.197 4.502-.383 7.329-2.319 11.398l-1.239 2.561-.275-1.517c-.187-1.271-.069-1.823.855-3.29 1.504-2.325 1.897-3.911 1.897-7.517 0-3.418-1.042-7.063-2.555-9.073-.885-1.202-1.278-3.221-.58-3.221.196 0 .815.62 1.395 1.399zM54.842 93.96l.108 3.408-1.12-.886c-.66-.542-1.386-1.705-1.74-2.867-.62-1.901-.58-1.98.196-2.64.462-.384 1.2-.66 1.622-.581.737.118.816.423.934 3.566zm-46.99-2.364c1.121.502 2.979 1.822 4.139 2.945 2.162 2.138 1.316 1.901-1.622-.424-2.015-1.586-4.07-2.325-6.389-2.364-1.74-.04-2.044-.157-2.044-.818 0-.66.187-.699 1.966-.502 1.09.158 2.87.66 3.95 1.163zm70.263.275c.934 1.31 1.631 4.532 1.238 5.93-.304 1.242-.806 1.242-1.779-.039-.54-.66-.619-1.014-.265-1.36 1.16-1.162-.354-4.925-2.015-4.925-.501 0-1.08.197-1.356.463-1.16 1.172.078 3.606 1.395 2.798.964-.62 1.003-1.28.04-1.626-.58-.236-.698-.433-.423-.62.698-.433 2.477 1.547 2.32 2.59-.079.66-.423.897-1.357.976-2.123.187-3.754-2.295-2.978-4.502.698-1.94 3.715-1.744 5.18.315zm54.419-1.862a325.4 325.4 0 00-.698 3.103c-.344 1.665-.658 2.247-1.12 2.247-.393 0-2.821-1.045-5.455-2.365-3.941-1.94-4.639-2.403-4.098-2.758.884-.463 4.992-.965 8.737-1.044 2.752-.04 2.821 0 2.634.817zm-17.445.385c-.118.66-.344 1.32-.423 1.438-.196.187-16.472-.66-16.708-.857-.04-.079 0-.503.157-.966.187-.857.266-.857 8.698-.857h8.551l-.275 1.242zm-19.411-.887c.157.187.079.768-.118 1.31-.344.897-.659.975-4.757 1.439-2.398.236-4.993.384-5.72.305-1.16-.07-1.356-.266-1.474-1.192-.118-.936 0-1.054.973-1.094.845-.039 7.302-.69 10.438-1.083.235 0 .54.118.658.315zm-48.149 2.089c.964.896 1.622 2.206 1.317 2.679-.078.148-.815-.394-1.631-1.241-1.081-1.163-1.779-1.557-2.664-1.557-1.16 0-2.014-.808-2.014-1.891 0-.591 3.872 1.005 4.992 2.01zm136.751-.503c.147.237-.738.384-2.477.384-1.514 0-2.752-.079-2.752-.187 0-.158.275-.739.58-1.399l.619-1.123 1.897.966c1.042.502 1.975 1.123 2.133 1.359zm-5.573-.66c-.236.581-.58 1.044-.816 1.044-.501 0-.501-.108.315-1.783.737-1.546 1.12-.926.501.739zm17.75-1.862c3.096.315 5.838.581 6.113.581.265 0 .462.542.462 1.4 0 1.28-.079 1.359-1.042 1.162-.619-.118-3.951-.66-7.469-1.202-3.519-.581-6.536-1.202-6.723-1.36-.619-.58.187-1.162 1.622-1.162.776 0 3.941.276 7.037.581zm-141.93.197c0 .424-.265.778-.58.778-.344 0-1.12.266-1.74.582-1.277.65-1.935.147-1.12-.857 1.12-1.32 3.44-1.665 3.44-.503zm101.831 4.65c1.857 3.763 2.005 4.266 2.005 6.975 0 2.64-.738 6.403-1.317 6.748-.109.079-.227-2.059-.227-4.729 0-4.768-.039-5.004-1.238-7.447-.698-1.39-1.779-3.409-2.477-4.532-.658-1.123-1.041-2.207-.923-2.443.501-.847 2.201 1.32 4.177 5.428zM130.44 87.95c.315.316-.226.434-2.044.434-1.395 0-3.99.108-5.798.227-2.634.157-3.136.118-2.556-.266 1.7-1.055 9.435-1.36 10.398-.395zm-106.93.316c.54 1.202.579 1.428.117 1.586-1.16.384-2.437 2.059-2.28 2.906.118.7-.275 1.162-1.936 2.364-2.82 2.02-2.742 1.744 2.015-6.817.462-.817.923-1.477 1.12-1.477.157 0 .58.62.963 1.438zm91.736-.778v1.083l-4.953.118c-2.703.08-6.536 0-8.472-.118-3.126-.226-3.588-.345-3.588-.965 0-.976.58-1.044 9.396-1.123l7.617-.04v1.044zm71.54-1.045c0 .424-.266.542-2.084.966l-1.12.236 1.317 1.35c.688.7 1.12 1.32.924 1.32-.62 0-5.612-2.443-5.612-2.749 0-.275 1.091-.66 3.675-1.241 1.475-.345 2.9-.276 2.9.118zm-64.002.187c0 .198-.698.434-1.543.513-1.474.069-1.513.04-.776-.513.816-.65 2.319-.65 2.319 0zm-76.149.621c1.976.936 3.41 2.837 4.216 5.546.472 1.517.472 1.783 0 1.783-.304 0-1.002-.778-1.543-1.743-1.317-2.246-2.899-3.566-4.953-4.108-1.74-.463-2.202-.897-2.202-2.06 0-.62.197-.689 1.396-.502.767.119 2.162.621 3.086 1.084zm155.119-1.202c2.015 0 2.054.04 2.054 1.094 0 .62-.078 1.202-.196 1.27-.158.198-3.135-.029-10.91-.847-3.125-.315-4.363-.58-4.363-.965 0-.739 1.543-.897 6.722-.7 2.556.08 5.533.148 6.693.148zm-81.093-.384a.386.386 0 01-.393.384c-.187 0-.383-.187-.383-.384 0-.236.196-.384.383-.384.236 0 .393.148.393.384zm-103.068.276c-.148.62-.58 2.63-1.003 4.57-.422 1.902-.845 3.872-.924 4.385-.196.768-.314.807-1.09.423-.463-.276-1.701-1.202-2.782-2.098-1.042-.887-2.438-1.891-3.096-2.246-1.042-.542-1.081-.62-.383-.847 3.135-1.055 4.953-1.98 6.771-3.498 2.507-2.01 2.9-2.088 2.507-.69zm-10.635.768c0 1.242-.383 2.06-1.002 2.06-.383 0-.501-.316-.344-.976.61-3.093.61-3.054 1.002-2.473.197.266.344.926.344 1.39zm1.897-1.005c.58 1.705.54 2.562-.196 2.828-1.003.394-1.307-.118-1.307-2.128 0-2.246.845-2.64 1.503-.7zm-3.676.74c-.147.886-.5 1.704-.805 1.822-1.013.384-1.052-.316-.118-2.02.5-.926 1.002-1.665 1.041-1.586.08.079.04.847-.118 1.783zm49.043-.937c.148 1.163.04 1.478-.58 1.636-.432.108-1.513.58-2.476 1.044-1.622.847-1.7.847-2.054.158-.62-1.133-.462-2.099.501-2.946 1.052-.975 1.67-1.202 3.214-1.241 1.12-.04 1.238.079 1.395 1.35zm69.919-.423c2.201 1.005 2.702 1.399 2.162 1.586-.423.157-1.357-.04-2.32-.503-.845-.423-2.162-.926-2.86-1.044-1.277-.315-1.739-1.399-.54-1.399.344 0 1.975.62 3.558 1.36zm-28.306.276l-.118 1.664-4.059.503c-2.25.266-5.11.423-6.388.384-2.28-.118-2.28-.118-2.546-1.468-.157-.739-.196-1.438-.078-1.556.078-.109 2.82-.384 6.034-.62 3.244-.227 6.182-.464 6.575-.464.58-.079.688.197.58 1.557zm-74.95-.66l.924.965-1.543 3.143c-.816 1.743-2.015 3.95-2.595 4.955l-1.08 1.783.235-2.394c.226-2.443 1.464-7.408 2.162-8.689.501-.965.816-.926 1.897.237zm-9.474.384c1.356 1.162 1.464 1.399.963 1.901-.305.266-.924.66-1.357.778-.648.188-.884-.078-1.464-1.674-.344-1.045-.658-1.97-.658-2.128 0-.582 1.08-.08 2.516 1.123zm104.218-.581v1.162h-3.98c-2.202 0-6.153.118-8.698.276l-4.718.226v-1.004c0-.582.108-1.084.305-1.084.315-.079 11.332-.542 14.89-.66l2.201-.079v1.163zm69.879.078c.777.621 0 1.005-2.742 1.32l-2.202.266.58-1.467c.344-.779.62-1.517.62-1.596 0-.227 3.204 1.014 3.744 1.477zM13.455 84.12c.894.66 1.631 1.242 1.631 1.35 0 .079-.314.355-.737.542-.58.315-1.002.118-2.32-.966-.854-.778-1.582-1.546-1.582-1.743 0-.7 1.465-.306 3.008.817zm35.578-.975c1.13.315 1.091.581-.422 2.059-1.278 1.241-1.317 1.241-2.821.7-1.12-.395-1.474-.7-1.396-1.242.354-1.822 1.818-2.325 4.64-1.517zm155.08.473l-.118 1.468-7.617.118-7.656.079v-.936c0-2.207-.157-2.167 8.01-2.167h7.499l-.118 1.438zm-23.784 1.084c-.344 1.044-.698 1.704-.806 1.428-.236-.768.766-4.03 1.159-3.645.148.158.04 1.163-.353 2.217zM74.675 83.065c1.818 1.242 3.44 3.724 3.715 5.704.236 1.547.157 1.665-.501 1.399-.393-.197-1.042-.433-1.435-.512-.462-.148-.62-.424-.423-.847 1.042-2.404.158-4.847-1.66-4.61-1.436.147-2.094 1.349-1.16 2.048.845.62 1.926.355 1.66-.423-.117-.316-.039-.542.119-.542.186 0 .461.266.58.62.422 1.123.225 2.05-.541 2.483-1.592.847-4.256-1.596-4.256-3.881 0-2.325 1.661-2.946 3.902-1.439zm-39.254-.03c.197.503.354.966.354 1.084.04.119.265.69.54 1.31.226.621.344 1.202.266 1.32-.108.08.039.543.353 1.015.305.424.58 1.163.58 1.586 0 .818-1.779 1.547-8.01 3.33l-2.437.7-.226-.966c-.157-.542-.197-1.015-.118-1.084.079-.078 2.24-.975 4.757-2.019 2.555-1.005 4.442-1.901 4.216-1.98-.196-.079-2.093.581-4.216 1.478-4.482 1.861-5.376 2.01-5.376.926 0-.808.314-1.005 5.995-3.685 1.818-.847 2.86-1.428 2.32-1.31-.541.108-2.782 1.084-4.993 2.128-2.202 1.044-4.099 1.901-4.177 1.901-.069 0-.108-.384-.03-.857.07-.581.963-1.28 3.204-2.404 1.7-.886 3.715-2.01 4.453-2.472 1.7-1.094 2.201-1.094 2.545 0zm-19.912-1.201c1.897.65 2.123 1.005 1.317 1.891-1.012 1.123-1.7.976-3.676-.768l-1.74-1.517 1.386-.04c.777 0 1.976.197 2.713.434zm139.915 2.67c.393 1.861.196 4.65-.344 4.65-.197 0-.777-.542-1.317-1.203-1.042-1.24-1.16-2.127-.777-5.694l.276-2.019.884 1.202c.472.66 1.052 2.059 1.278 3.064zM115.708 81.4c-.079.542-.236 1.054-.305 1.123-.236.237-16.167.818-16.904.582-1.081-.345-.659-1.783.58-2.128.54-.158 2.899-.276 5.179-.315 2.28-.03 4.256-.148 4.374-.266.118-.08 1.778-.119 3.715-.08 3.479.119 3.479.119 3.361 1.084zm72.434-1.162c.118.197-.383.62-1.16.936-1.621.69-1.7 1.162-.383 2.01.541.354.885.738.806.817-.226.266-5.563-1.783-5.838-2.207-.226-.394 1.592-.975 4.452-1.517.963-.197 1.779-.344 1.818-.384.04-.04.187.118.305.345zm-55.107 3.448c0 2.138-.118 3.96-.275 4.039-.265.148-10.713-4.384-11.175-4.886-.304-.276 4.334-1.783 7.43-2.365 4.364-.896 4.02-1.162 4.02 3.212zm-82.911-2.473c.924.542 1.7 1.202 1.7 1.429 0 .423-.5.354-3.331-.503-2.084-.62-3.706 0-4.836 1.862-.766 1.202-.884 1.28-1.425.739-.894-.857-.04-3.497 1.396-4.305 1.425-.818 4.363-.463 6.496.778zm-15.784-.66c.383 1.084.383 1.084-4.678 3.714-4.757 2.443-5.101 2.6-5.573 1.94-.265-.383-.462-.886-.383-1.083.157-.423 9.17-5.625 9.818-5.654.236 0 .59.502.816 1.083zm169.468-.66v1.39l-7.233.275c-3.941.118-7.273.158-7.352.079-.078-.079-.039-.778.079-1.517.196-1.005.501-1.429 1.12-1.547.433-.118 3.637-.157 7.077-.118l6.309.04v1.398zm-71.933-1.241c0 .345-2.634 1.005-7.931 1.98a51.945 51.945 0 00-3.057.65c-1.081.316-.344-.62.855-1.123 3.755-1.428 10.133-2.404 10.133-1.507zm-8.354.04c-.196.187-.963.462-1.7.62-1.278.187-1.317.187-.619-.394.845-.66 2.978-.887 2.319-.227zm61.84-.119c1.356.7 1.277.818-1.013 1.241l-1.808.306v-1.31c0-1.202.069-1.32.885-1.055.461.119 1.356.503 1.936.818zm-3.597-.502c0 1.202-.394 2.167-.816 2.167-.384 0-.462-1.547-.118-2.483.354-.925.934-.728.934.316zm-148.967-.118c.265.462.462.857.383.896-.845.65-9.976 5.655-10.32 5.655-1.051 0-.275-1.242 1.622-2.64 3.784-2.828 6.654-4.69 7.234-4.69.304-.04.806.316 1.08.778zm132.023 2.443c.078 2.02 0 3.605-.108 3.526-.472-.305-1.2-4.61-.934-5.851.422-2.404.934-1.36 1.042 2.325zm-49.417-2.404c.108.66.187 1.28.108 1.36-.186.147-12.373.886-15.43.886-2.506 0-2.624-.04-2.624-.926 0-.502.265-1.054.619-1.162.305-.119 3.941-.434 8-.621 4.099-.236 7.617-.502 7.814-.581.933-.355 1.277-.118 1.513 1.044zm-40.07-.079c1.082 1.044 1.937 3.064 2.595 5.97l.226 1.162-1.543-1.586c-1.002-.975-1.582-1.94-1.582-2.522 0-1.398-.855-2.325-1.976-2.167-1.08.148-1.317 1.586-.236 1.783.394.079.659-.118.659-.512 0-.345.197-.502.393-.384.767.463.423 1.743-.472 1.743-1.307 0-2.24-1.123-2.24-2.709 0-1.743.196-1.94 1.778-1.94.895 0 1.583.344 2.398 1.162zm-25.484.158c1.435 1.005 3.44 3.526 3.096 3.91-.118.08-1.16-.541-2.438-1.388-1.818-1.202-2.594-1.517-4.059-1.517-1.975 0-3.99 1.004-4.678 2.324-.54 1.015-1.16.66-1.16-.62 0-1.242 1.003-2.749 2.28-3.487 1.622-.927 5.062-.542 6.959.778zM156.2 81.016c1.425 2.71 2.015 5.773 1.543 8.334-.422 2.365-.845 2.828-1.621 1.744-.462-.66-.502-1.123-.197-2.246.698-2.561.236-5.162-1.543-8.108-.894-1.467-1.622-3.093-1.622-3.645.04-.886.079-.886 1.16.434.619.729 1.661 2.325 2.28 3.487zm-31.018-4.029c1.514.424 2.015.73 1.701 1.044-.266.266-1.081.227-2.742-.236-1.278-.345-2.674-.66-3.096-.66-.423 0-.777-.187-.777-.384 0-.582 2.516-.463 4.914.236zm-84.572-.315l.806.66-.963.926-.963.896-.776-1.28c-.462-.74-.816-1.429-.816-1.626 0-.542 1.857-.276 2.712.424zm163.198.079v1.162h-6.889c-3.784 0-6.998-.118-7.116-.227-.118-.118-.147-.551-.039-.935.236-.818 1.317-.966 9.513-1.084l4.531-.079v1.163zM31.136 75.628c.147.423.187.847.108.926-.069.078-2.28 1.556-4.904 3.3-3.637 2.364-4.914 2.985-5.298 2.67-.737-.621.03-1.705 2.241-3.054a93.27 93.27 0 004.177-2.877c2.664-1.97 3.322-2.167 3.676-.965zm84.031-.858c.079.513 0 1.055-.196 1.242-.305.315-8.394.975-14.998 1.202-2.939.118-3.096.079-3.214-.74-.157-1.083-.079-1.083 7.656-1.851 11.136-1.094 10.595-1.094 10.752.147zm-75.215-1.083c.963.276 1.7.818 2.201 1.625.423.66.698 1.281.62 1.36-.08.079-.856-.227-1.74-.66-.855-.463-2.054-.808-2.673-.808-1.16 0-2.005-.62-2.005-1.438 0-.62 1.582-.66 3.597-.08zm-10.29.236c.118.266-1.465 1.547-3.44 2.867-1.976 1.32-4.256 2.946-5.072 3.606-1.16.926-1.543 1.044-1.926.66-.58-.582.108-1.202 5.68-5.123 3.755-2.59 4.492-2.906 4.758-2.01zm158.903-.118c-2.703 1.626-2.978 2.522-.963 3.33 1.277.551 1.474 1.162.383 1.162-1.003 0-6.221-1.93-6.221-2.325 0-.541 6.535-3.093 7.115-2.787.226.118.079.384-.314.62zm14.084-.965c.579.147 1.002.58 1.081 1.044.118.7-.158.847-1.936 1.044-1.121.158-4.177.276-6.772.276-4.482 0-4.718-.04-4.983-.857-.462-1.547.658-1.862 6.378-1.822 2.9.039 5.691.157 6.232.315zm-151.798.502c.58.847 2.133 5.35 2.133 6.197 0 .236-.737-.266-1.631-1.084a43.667 43.667 0 00-2.782-2.325c-1.08-.778-1.08-.818-.462-1.98.54-1.084 1.081-1.547 1.858-1.626.157-.039.54.355.884.818zm43.087-.197c.502 1.123 1.858 9.31 1.543 9.576-.304.315-6.26.965-9.779 1.083l-3.41.118-1.081-3.684c-.62-2.01-1.081-3.684-1.042-3.724.04-.04 2.359-.768 5.1-1.665 2.792-.886 5.573-1.862 6.193-2.127 1.66-.779 1.936-.74 2.476.423zm62.459 2.404c.619.778 1.661 2.522 2.319 3.92 1.121 2.326 1.199 2.828 1.199 6.581 0 3.34-.157 4.384-.855 5.891-.462 1.054-1.041 1.862-1.238 1.862-.541 0-.541-.079.354-3.448 1.268-4.847.187-9.181-3.253-13.22-1.937-2.207-2.556-3.37-2.556-4.729 0-.69.158-.66 1.475.503.776.7 1.936 1.901 2.555 2.64zM28.423 72.367c0 .236-1.975 1.901-4.373 3.684-5.878 4.305-6.143 4.463-6.644 3.96-.54-.541 2.24-3.024 6.801-6.166 2.9-2.02 4.216-2.444 4.216-1.478zm86.047-.69c0 .187.078.62.196.887.157.424-.973.66-5.494 1.044-9.858.897-12.688 1.084-12.875.936-.118-.118.118-.394.501-.7.816-.58 4.679-1.201 11.873-1.9 2.86-.306 5.337-.543 5.533-.582.148 0 .266.118.266.315zm73.289.424c.963.04-4.059 2.325-5.111 2.325-.187 0-.108-2.946.118-3.182.118-.109 1.199 0 2.398.315 1.199.266 2.359.502 2.595.542zm-6.074.778c-.157 2.591-.855 2.67-1.003.07-.078-1.626 0-2.01.502-2.01.501 0 .58.384.501 1.94zM71.972 71.56c.806.384 1.504 1.28 2.162 2.71.541 1.201.895 2.206.856 2.245-.472.434-1.897-.61-1.897-1.31 0-2.098-3.519-3.606-3.794-1.635-.148 1.123 1.012 1.635 1.7.7.58-.809 1.317-.503 1.317.541 0 1.054-1.779 1.438-3.056.739-1.543-.857-2.241-2.365-1.661-3.606.353-.808.737-1.005 1.818-1.005.776 0 1.936.266 2.555.621zm50.97-.276c-.502.394-1.514 1.015-2.163 1.36-1.199.62-1.277.62-1.277-.04 0-.886 1.818-2.02 3.243-2.059h1.12l-.923.74zm9.13-.345c.383 1.163.845 6.236.609 6.355-.108.078-2.123-.267-4.481-.779-2.32-.463-4.875-.886-5.602-.886-.856-.04-1.2-.158-.934-.424.54-.542 9.17-5.004 9.71-5.044.226 0 .541.355.698.778zm-38.87-.197c0 .66-2.32 1.705-7.077 3.261-5.032 1.586-6.693 1.823-6.998.966-.354-.926-.118-1.045 3.44-2.089 1.7-.512 4.403-1.32 5.995-1.783 3.44-1.054 4.64-1.162 4.64-.355zm-43.815-.157c.344.354.118.857-.894 2.02-.698.856-1.317 1.9-1.317 2.285 0 .502-.266.7-.964.7-.815 0-.963-.198-.963-1.163 0-1.704.806-3.143 2.123-3.724 1.435-.62 1.474-.66 2.015-.118zm-8.63.7c1.436.62 1.701.896 1.514 1.595-.157.581-.422.73-.855.581-.924-.394-4.796-.896-5.297-.7-.266.08-.806-.314-1.278-.935-.806-1.005-.806-1.084-.147-1.35 1.08-.472 4.167-.039 6.064.808zm-13.759-1.045c.265.276.462.581.462.739 0 .157-1.16 1.005-2.595 1.93-1.464.936-3.98 2.798-5.641 4.118-2.87 2.325-4.138 2.946-4.138 2.01 0-.739 4.02-4.413 7.539-6.817 1.936-1.32 3.557-2.404 3.715-2.443.108 0 .383.187.658.463zm87.088-.276c0 .936-1.238 1.202-7.577 1.714-3.253.266-6.969.69-8.276.966-2.014.423-2.437.423-2.594-.04-.384-.965.344-1.241 4.717-1.665 2.359-.236 5.838-.66 7.735-.975 4.914-.69 5.995-.69 5.995 0zm88.867.473c.236.768.384 1.468.344 1.507-.029.079-3.086 0-6.762-.118l-6.653-.227v-2.177l3.98-.147c2.172-.04 4.993-.158 6.31-.198l2.359-.078.422 1.438zm-72.857-1.054c-.697.7-9.936 5.428-10.132 5.24-.344-.354.697-1.201 4.334-3.457 2.506-1.586 3.823-2.167 4.825-2.167.934 0 1.239.118.973.384zm-4.216 0c-.157.236-1.779.355-3.794.315-2.899-.04-3.243-.079-1.818-.315 2.791-.424 5.887-.424 5.612 0zm30.586 2.798c3.135 3.29 5.336 8.137 5.808 12.787.423 4.186-1.317 10.314-3.135 11.053-1.12.423-1.081-.237.157-3.458.688-1.744 1.465-4.147 1.661-5.31.845-4.492-1.16-9.142-6.152-14.225-1.701-1.704-2.821-3.172-2.821-3.645 0-.769.079-.73 1.661.355.894.62 2.172 1.704 2.821 2.443zm-108.12-3.182c0 .236-.58.778-1.318 1.202-1.435.857-2.28 2.482-2.32 4.462-.039.769-.235 1.31-.5 1.31-.276 0-.62.04-.777.08-.501.236-.855-2.208-.501-3.715.462-2.098 2.24-3.724 4.059-3.724.737 0 1.356.188 1.356.385zm-22.861-.237c.354.394-.423 1.133-3.823 3.498-2.36 1.664-5.15 3.871-6.192 4.915-1.042 1.054-2.163 1.901-2.516 1.901-1.543 0 4.678-6.009 9.828-9.457 2.359-1.625 2.123-1.546 2.703-.857zm17.484-.926c.885.503.924 1.28.108 2.483l-.58.926-2.32-1.005c-1.237-.542-2.28-1.123-2.28-1.28 0-1.281 3.362-2.01 5.072-1.124zm-18.988-.423c0 .187-1.553 1.507-3.45 2.906-1.887 1.399-4.757 3.95-6.378 5.654-1.7 1.784-3.244 3.104-3.676 3.104-.806 0 4.53-5.428 9.632-9.802 2.28-2.02 3.872-2.759 3.872-1.862zm89.132.078c.315.966-.304 1.508-1.808 1.508-.59 0-3.214.354-5.809.778-6.339 1.005-10.555 1.162-10.555.384 0-.66.314-.739 9.474-2.246 8.59-1.438 8.394-1.438 8.698-.424zm74.833-.62c0 .345-.423.808-.964 1.044-1.317.581-1.199.965.384 1.744 1.896.886 1.818 1.783-.079 1.438-3.479-.62-5.563-1.162-5.641-1.517-.079-.345 5.258-3.29 5.956-3.29.196 0 .344.266.344.58zm-32.601 2.206c3.597 2.749 6.457 6.896 7.853 11.359 1.12 3.724 1.12 9.3 0 12.324-1.002 2.719-3.597 6.246-3.794 5.152-.069-.384.236-1.162.659-1.744 1.435-1.704 2.319-4.068 2.791-7.093 1.081-7.21-1.858-13.91-8.59-19.692-4.482-3.872-3.823-4.03 1.081-.306zm45.829-2.718c.698.62 1.16 1.792.777 2.02-.619.354-12.069.383-12.413.038-.158-.236-.433-.857-.58-1.467l-.236-1.054h5.917c4.177 0 6.113.157 6.535.463zm-168.692-.109c0 .187.118.926.236 1.626l.266 1.32-1.426-1.32c-1.7-1.626-1.74-1.98-.235-1.98.658 0 1.16.157 1.16.354zm153.498-.739c.422.237-.039.621-1.514 1.36-1.965 1.005-2.083 1.005-2.585.345-.275-.385-.511-1.084-.511-1.586 0-.897.079-.897 2.055-.66 1.081.157 2.24.384 2.555.541zm-5.376.237c.501 1.27.501 2.867 0 2.867s-1.16-1.665-1.16-2.946c0-1.241.698-1.202 1.16.079zm-89.486-.04c.344.542.54 1.202.422 1.468-.157.463-10.054 3.803-12.914 4.384-.973.187-1.278.079-1.632-.542-.304-.62-.304-.896.04-1.123.501-.315 12.649-5.044 13.15-5.123.157 0 .58.395.934.936zm20.649-.58c.226.423.344.768.226.768-.079 0-1.239.275-2.546.62-4.059 1.044-14.81 2.443-15.361 2.02-.924-.74-.501-1.439 1.13-1.862 1.464-.424 13.298-2.167 15.273-2.286.501 0 1.042.266 1.278.74zm-80.592 3.87c4.06 4.345 4.678 5.153 6.536 8.877 4.324 8.689 5.523 17.83 3.902 29.691-.855 6.128-.777 5.891-2.202 5.704-1.051-.157-1.16-.315-.973-1.202 1.239-5.782 1.474-8.255 1.278-14.185-.118-3.921-.423-7.064-.855-8.532-2.703-9.999-4.865-14.146-10.123-19.535-2.212-2.256-3.99-4.186-3.99-4.383 0-.158.314-.424.658-.66 1.012-.542 1.858.078 5.77 4.226zm88.749-4.304c-.501.896-2.359 2.138-2.359 1.596 0-.473 1.937-2.286 2.438-2.325.157 0 .118.305-.079.729zm-1.975-.148c-.266.305-.619.581-.806.581-.197 0-.354-.276-.354-.581 0-.355.354-.581.816-.581.698 0 .737.069.344.581zm-49.731 1.123c.894.926 1.897 2.246 2.28 2.906l.698 1.202h-1.2c-.736 0-1.12-.158-.962-.424.923-1.438-1.78-3.881-3.372-3.024-.845.463-.884 1.626-.108 2.285.462.385.688.385 1.16 0 .54-.463.54-.58-.04-1.201-.58-.621-.58-.74-.078-.74.924 0 1.543 1.006 1.386 2.207-.108.976-.265 1.084-1.464 1.084-1.082 0-1.475-.226-2.202-1.31-1.09-1.635-1.12-2.906-.118-3.92 1.2-1.203 2.28-.966 4.02.935zm-24.522-.236c.855.857 1.553 1.861 1.553 2.325 0 1.044-.04 1.044-1.779-.119-2.516-1.704-6.349-.965-6.349 1.202 0 1.241-1.346.394-1.464-.965-.236-2.128 2.015-3.872 5.032-3.911 1.16 0 1.74.305 3.007 1.468zm-10.82-1.626c.226.227.304.66.186 1.005-.186.424-.698.542-2.437.394-2.044-.197-3.126-.778-3.165-1.793 0-.463 4.904-.108 5.416.394zm167.217-.157c1.239 1.783 1.003 1.861-5.376 1.861-5.494 0-5.995-.039-6.378-.739-.737-1.428-.462-1.546 3.597-1.704 2.162-.04 4.757-.157 5.759-.197 1.465-.079 1.936.08 2.398.779zm-89.958-1.163c1.091 1.084.393 1.36-5.14 2.059-3.096.345-7.037.965-8.698 1.31-3.017.66-3.096.66-3.332-.04-.108-.423-.147-.807-.068-.886.147-.157 12.137-2.325 14.418-2.64 2.172-.266 2.358-.266 2.82.197zm-66.439.305c1.976 1.015 4.453 5.044 3.096 5.044-.187 0-.806-.7-1.356-1.546-1.268-2.02-2.506-2.798-4.826-3.025-3.174-.315-5.808 1.823-5.808 4.65 0 1.507-.501 1.98-.924.847-.894-2.325.305-5.191 2.634-6.196 1.808-.778 5.405-.7 7.184.226zm109.408 1.015c.895 1.123 1.435 2.749 1.082 3.103-.266.266-3.745-2.098-3.745-2.522 0-.197-.118-.896-.236-1.596l-.275-1.231 1.199.62c.619.306 1.553 1.084 1.975 1.626zm-23.391.502c2.123 4.108 2.32 3.911-4.295 3.911l-5.73-.039 1.553-1.231c.845-.7 2.585-2.138 3.863-3.261 1.277-1.084 2.516-2.02 2.752-2.02.226-.039 1.081 1.163 1.857 2.64zm-7.312-1.94c-.934.857-5.759 1.477-6.192.817-.147-.236-.147-.541-.039-.699.314-.266 3.292-.739 5.455-.818 1.513-.039 1.513-.039.776.7zm1.346 1.202c-3.439 3.182-4.982 4.423-5.297 4.147-.108-.158 1.13-1.665 2.791-3.37 2.241-2.284 3.283-3.102 4.02-3.102.924 0 .776.236-1.514 2.325zm-90.488-2.128c2.28 1.162 1.199 2.01-1.661 1.32-2.477-.62-2.438-.581-1.818-1.32.619-.739 2.044-.739 3.479 0zm165.517-.62c.777 1.506.541 1.585-5.376 1.585-4.914 0-5.798-.079-5.995-.62-.541-1.468-.187-1.547 6.614-1.626 3.941-.079 4.374 0 4.757.66zm-12.757.039c0 .384-.354.926-.776 1.162-1.121.581-.963 1.044.58 1.586 1.621.581 1.818 1.28.304.975-.619-.118-2.044-.315-3.204-.472-3.174-.345-3.597-.73-1.739-1.547.845-.345 2.044-1.044 2.624-1.557 1.356-1.123 2.211-1.192 2.211-.147zm-77.545-.779c.393.424.58.897.433 1.084-.157.158-3.99.897-8.472 1.665-8.01 1.399-8.737 1.438-8.777.236 0-.463 1.848-1.044 3.4-1.044.777-.04 3.598-.62 6.261-1.32 5.838-1.586 6.271-1.586 7.155-.62zm-43.971.158c1.238 1.428 1.857 2.827 1.435 3.25-.118.158-1.003-.62-1.897-1.664-1.582-1.822-1.74-1.901-2.703-1.428-1.16.502-1.395 2.01-.393 2.787.472.424.698.424 1.199-.078.659-.7.393-1.478-.58-1.478-.462 0-.501-.108-.187-.424.344-.344.698-.305 1.425.197 2.015 1.281.659 3.99-1.385 2.906-1.317-.699-1.819-1.546-1.858-3.103 0-1.743.58-2.285 2.359-2.285 1.16 0 1.66.276 2.585 1.32zm-29.74.04c1.13 1.704.815 2.167-.728 1.044-.619-.463-1.317-.857-1.553-.857-.619 0-.462-.69.315-1.123.924-.582.924-.582 1.966.935zM183.7 58.84c0 .463-.541 1.044-1.779 1.94-1.357.927-1.779.7-2.212-1.122-.226-.975-.186-1.005 1.858-1.044 1.16-.04 2.133.069 2.133.226zm-4.914.818c.697 1.202.884 2.748.304 2.748-.186 0-.619-.581-.963-1.32-1.12-2.364-.58-3.566.659-1.428zm-137.41-1.123c.738.384 3.52 4.108 2.86 3.792-.186-.078-.844-.384-1.503-.66-.619-.266-1.435-.62-1.74-.807-.54-.276-1.08-2.72-.58-2.72.119 0 .58.198.964.395zm110.028.66c3.902 1.93 5.956 4.807 6.261 8.797l.236 2.364-1.199-1.123c-.659-.62-1.475-1.94-1.819-2.906-.963-2.946-1.897-4.147-3.784-4.886-1.277-.463-1.936-1.044-2.594-2.217l-.855-1.546.894.276c.501.147 1.818.729 2.86 1.24zm9.592.768c.738 1.478 1.465 3.064 1.583 3.606l.275.975-.698-.818c-2.015-2.364-2.752-3.566-2.938-4.925-.118-.769-.079-1.429.078-1.429.187 0 .924 1.163 1.7 2.591zm-47.883-2.206c-.108.197-.501.384-.806.384-.314 0-.54-.188-.54-.385 0-.236.344-.384.806-.384.432 0 .658.148.54.385zm83.727 0c.433.423.777.925.777 1.122 0 .197-2.477.463-5.455.621-5.877.315-6.143.237-6.143-1.665 0-.857.079-.857 5.022-.857 4.531 0 5.111.079 5.799.779zm-82.488.66c-.541.58-1.121.925-1.268.807-.118-.148.226-.729.806-1.27.54-.582 1.12-.936 1.277-.818.118.157-.236.739-.815 1.28zm-7.961-.7c.501.424.845.818.737.936-.315.266-9.907 2.473-13.111 2.975-2.673.434-2.939.434-3.41-.227-.266-.394-.502-.817-.502-.975 0-.108 2.674-.808 5.917-1.507 3.214-.66 6.418-1.399 7.037-1.547 1.818-.512 2.359-.433 3.332.345zm-69.88 1.28c.306 2.168-.117 2.404-1.316.7l-.816-1.123.816-.818c.462-.462.885-.778.963-.699.04.04.236.936.354 1.94zm50.734 0c1.661 2.247 3.096 4.887 2.782 5.153-.079.079-2.546 1.015-5.524 2.098a357.758 357.758 0 00-6.31 2.365c-1.385.62-2.319.462-2.977-.503-1.308-1.862-2.546-3.842-2.625-4.226-.078-.394 11.48-7.172 12.413-7.25.227-.04 1.278 1.044 2.241 2.364zm-47.726-.62c-.226.739-.304 1.626-.186 1.94.118.385-.079.543-.777.543-1.621 0-2.044-2.867-.619-4.305.737-.74.894-.779 1.435-.197.501.502.54.857.147 2.02zm111.964-1.202c5.72 2.67 8.973 7.25 9.317 13.024.196 3.22-.039 3.644-1.278 2.285-.501-.542-.845-1.744-1.042-3.566-.344-3.29-1.739-6.354-3.636-8.019-.737-.66-2.899-1.98-4.796-2.945-1.897-.936-3.558-1.941-3.676-2.178-.462-.729 2.015-.039 5.111 1.4zm-34.222-1.665c-.737.74-5.534 1.468-6.389 1.005-1.041-.542-.579-.778 2.133-1.083 4.099-.463 4.796-.463 4.256.078zm-32.836.08c.157.423-.973 1.24-3.912 2.866-8.079 4.492-8.855 4.807-9.7 3.793-.462-.542 1.316-1.744 8.855-6 2.28-1.28 4.403-1.556 4.757-.66zm110.754-.198c.433.7.236.739-4.138 1.005-4.717.276-6.182 0-6.182-1.163 0-.462.846-.58 4.944-.58 4.413 0 4.953.078 5.376.738zm-69.761 1.98c1.003 1.31 1.74 2.552 1.543 2.749-.304.276-10.939 1.477-10.939 1.202 0-.966 6.34-6.827 7.116-6.551.226.078 1.238 1.24 2.28 2.6zm-5.533-2.403c0 .187-1.16 1.664-2.555 3.33-1.701 1.98-2.703 2.866-2.939 2.64-.383-.395.934-2.365 3.332-5.044 1.081-1.163 2.162-1.626 2.162-.926zm-15.509.62l.894.926-1.7.276c-.934.108-4.452.847-7.853 1.625-5.838 1.281-6.192 1.32-6.653.66-.276-.393-.502-.817-.502-.975 0-.108 1.858-.62 4.177-1.083 2.28-.463 5.524-1.163 7.234-1.547 1.7-.394 3.204-.739 3.322-.778.118 0 .619.384 1.081.896zm-44.974-.542c1.002.385 3.243 2.286 3.243 2.749 0 .857-2.123.305-3.047-.818-1.277-1.428-2.79-1.862-3.675-.926-.777.778-.698 2.05.186 2.6.934.572 1.897.03 1.897-1.093s-.924-1.31-1.464-.344c-.236.384-.462.502-.62.236-.117-.236.04-.66.345-1.015 1.317-1.32 3.754 1.202 2.516 2.64-.659.808-2.821.769-3.558-.078-1.396-1.547-1.278-3.724.197-4.345.845-.345 2.427-.187 3.98.394zm123.905-.817c0 .197-.462.7-1.042 1.123-1.239.896-.924 1.507.845 1.862 2.477.463 1.828.926-1.229.926-4.294 0-4.53-.306-1.67-2.483 2.398-1.783 3.096-2.088 3.096-1.428zm-6.693.58c.776 1.587.815 2.168.078 2.168-.265 0-2.28-3.211-2.28-3.645 0-.108.315-.226.698-.226.422 0 1.002.62 1.504 1.704zm4.373-1.703c.501.345.354.58-.776 1.546-.728.66-1.504 1.163-1.74 1.163-.344 0-1.74-2.325-1.74-2.906 0-.385 3.676-.158 4.256.197zm-28.689 2.551c4.325 2.217 7.804 5.665 9.819 9.773 1.622 3.26 1.661 3.369 1.661 7.29 0 4.728-.501 5.733-1.661 3.369-.58-1.123-.737-1.941-.58-3.33.305-2.522-.501-6.246-1.897-8.876-2.201-4.187-6.457-7.29-12.492-9.112-1.503-.464-2.358-.927-2.437-1.36-.118-.581.079-.581 2.32.079 1.356.424 3.715 1.399 5.267 2.167zm-50.399-2.472c.816.62.934.886.511 1.123-.275.157-3.292.807-6.693 1.467-3.4.66-6.575 1.32-7.037 1.439-.58.157-.933 0-1.238-.542-.393-.7-.118-.857 4.324-1.94 2.595-.66 5.416-1.469 6.27-1.784 2.124-.778 2.625-.739 3.863.236zm91.462-.473l.816 1.162h-1.278c-.698 0-2.899.079-4.875.118-3.243.118-3.676.04-4.177-.66-1.12-1.625-.806-1.783 4.059-1.783h4.649l.806 1.163zm-111.757-.582c.383.473.226.7-.855 1.36-1.897 1.202-11.214 5.812-11.715 5.812-.58 0-1.937-1.468-1.622-1.783.462-.463 12.482-5.93 13.062-5.97.353 0 .855.276 1.13.581zm25.829-.886c-.118.276-.502.502-.895.502-.383 0-.766-.226-.845-.502-.118-.276.197-.463.845-.463.659 0 .973.187.895.463zm-8.197-.315c1.042.778.501 1.162-3.175 2.137-7.115 1.862-9.74 2.325-10.25 1.744-.266-.315-.345-.66-.227-.778.344-.345 11.214-3.606 12.099-3.645.432 0 1.13.236 1.553.542zm10.978-.542c0 .62-2.359 3.103-2.742 2.876-.777-.473 1.199-2.876 2.663-3.221.04-.04.079.118.079.345zm-53.79 1.093c1.7 1.39 1.936 2.01.698 2.01-.698 0-1.081-.305-1.435-1.163-.885-2.127-3.676-1.861-3.4.345.157 1.202 1.7 1.675 2.122.63.236-.66-.54-1.477-1.12-1.132-.148.118-.305.04-.305-.148 0-.502.924-.857 1.425-.542.58.384.934 1.744.58 2.246-.62 1.005-1.966 1.005-2.978 0-1.12-1.123-1.238-2.02-.305-3.063.924-.966 2.9-.66 4.718.817zm-8.737-1.093c.108.433.766 1.014 1.425 1.32.776.315 1.474 1.005 1.779 1.704.314.778.855 1.32 1.474 1.478.776.187 1.002.463 1.002 1.36 0 2.324 1.74 4.216 3.873 4.216.54 0 .766.236.766.857 0 1.822 1.632 3.605 3.912 4.305.344.118.767.847.885 1.664.353 1.744 2.132 3.645 3.44 3.645.894 0 .972.119.776 1.547-.197 1.36-.079 1.665 1.16 2.906.737.739 1.621 1.36 1.936 1.36.462 0 .54.315.383 1.36-.147.886 0 1.664.432 2.324.57.887.57 1.084.03 1.822-1.2 1.784-.462 4.847 1.592 6.473l1.003.817-.846.69c-1.051.857-1.16 3.103-.236 4.541.738 1.123.777 1.35.158 1.35-1.78 0-2.556 3.724-1.13 5.467.697.897.697.897-.384 1.941-1.238 1.123-1.464 2.68-.698 4.384.394.847.354 1.084-.383 1.665-1.16.965-1.474 3.487-.658 5.073l.658 1.241H67.6c-2.821 0-13.19-.738-13.377-.965-.078-.079.227-2.364.688-5.123 2.399-13.791.856-29.77-3.783-39.07-1.12-2.285-6.772-10.314-9.475-13.486-1.74-2.02-1.857-2.325-1.356-2.827 1.002-1.015 6.27-4.729 6.732-4.768.266-.04.54.305.659.729zm143.354-.582l.895.976H187.1c-4.953 0-5.336-.118-5.336-1.596 0-.187 1.896-.345 4.177-.345 3.98 0 4.255.04 5.1.965zm-11.715-.344c-1.317 1.202-1.002 1.862.698 1.546.845-.147 1.386-.078 1.7.316.384.463.266.62-.816.807-.697.119-2.28.197-3.557.119l-2.241-.119 1.435-1.467c1.346-1.4 2.506-2.138 3.479-2.168.187-.04-.118.424-.698.966zm-35.46-.158c1.7.897 3.44 2.788 2.978 3.26-.541.582-3.253-.66-5.111-2.324l-1.926-1.744 1.16-.04c.648 0 1.965.385 2.899.848zm-32.178-.384c-.118.266-1.042.62-2.093.739-1.042.148-2.506.384-3.244.542-2.162.463-1.041-.237 1.622-1.015 2.939-.808 3.912-.887 3.715-.266zm61.486.7c.973 1.428 1.081 2.088.393 1.861-.541-.197-2.251-2.561-2.251-3.103 0-.7.973-.04 1.858 1.241zm-59.746-.119c-1.976 2.67-4.099 5.152-4.452 5.152-.767 0-.148-1.35 1.857-3.871 1.356-1.675 2.477-2.72 2.939-2.72.658 0 .619.12-.344 1.44zm-16.708-.7c1.12.897 1.582.66-6.035 2.907-4.943 1.477-5.877 1.625-6.339 1.162-.315-.266-.501-.581-.383-.7.226-.226 10.939-4.068 11.4-4.107.276 0 .856.355 1.357.739zm81.171-.778c-.383.818-2.398 2.365-2.978 2.365-.147 0-.688-.582-1.199-1.28l-.845-1.232 1.425-.237c.816-.118 2.054-.276 2.752-.315 1.12-.03 1.238.04.845.7zm-55.687 5.084c0 .226-2.476.66-9.16 1.507-1.356.157-2.437.197-2.437.04 0-.464 1.582-2.444 4.02-4.956l2.359-2.482 2.634 2.827c1.425 1.547 2.584 2.946 2.584 3.064zM52.63 47.68c.777.236 1.7.739 2.133 1.202l.737.817-1.857-.157c-1.16-.119-2.015-.434-2.32-.858-.393-.502-.776-.62-1.395-.423-1.003.305-.934 1.586.078 1.507.462-.04.659.158.58.542-.197.936-1.356 1.015-1.818.157-.58-1.083-.118-2.324 1.08-2.748 1.318-.463 1.2-.463 2.782-.04zm41.308-.936c.462.354.737.778.54.936-.618.541-11.331 3.91-11.714 3.684-.855-.542-.275-1.32 1.464-1.94 1.003-.385 3.135-1.242 4.718-1.98 3.331-1.469 3.754-1.547 4.992-.7zm95.02.197c.501.502.924 1.005.924 1.162 0 .463-9.052-.079-9.357-.581-.737-1.044-.275-1.36 2.32-1.507 3.793-.237 5.101 0 6.113.926zm-88.022-.847c0 .541-.698.886-1.199.58-.305-.157-.275-.354.079-.58.697-.434 1.12-.434 1.12 0zm41.691-.119c2.546.808 5.219 3.133 6.497 5.655.541 1.084.924 2.02.845 2.098-.383.345-1.848-.394-2.044-1.054-.737-2.285-4.796-4.994-7.47-4.994-1.159 0-4.717-1.98-4.717-2.601 0-.384 4.717.236 6.889.896zm-38.595-.817c0 .463-2.437 2.866-2.752 2.68-.423-.237.619-2.326 1.278-2.602.658-.265 1.474-.315 1.474-.078zM76.729 47.56c1.622 1.4 2.939 2.788 2.939 3.025 0 .236-2.9 1.783-6.457 3.448l-6.497 3.024-1.818-2.01c-3.135-3.379-3.175-3.142 1.12-5.585 2.084-1.163 4.56-2.68 5.534-3.33.963-.62 1.847-1.162 2.005-1.162.157 0 1.582 1.162 3.174 2.59zm14.733-2.748c1.002.729.923.768-5.14 3.103-3.637 1.39-4.954 1.744-5.455 1.428-.354-.236-.58-.541-.58-.738.079-.345 9.2-4.335 10.015-4.374.226 0 .737.226 1.16.58zm95.324-.818c.776.7.776.779.118 1.005-.384.158-2.28.315-4.177.394l-3.44.148-.737-1.27-.767-1.321 4.098.158c3.362.069 4.217.226 4.905.886zm-10.055-.66c0 .197-.344.66-.766 1.044-1.012.897-.659 1.36 1.002 1.36.737 0 1.317.158 1.317.394 0 .187-.471.384-1.051.384-.619 0-2.005.118-3.086.227-1.121.157-2.054.079-2.015-.07 0-.393 3.872-3.605 4.334-3.605.148-.04.265.109.265.266zm-35.263.276c5.219 1.241 9.356 4.492 10.86 8.521 1.12 2.946 1.091 3.34-.265 2.838-.738-.276-1.317-1.015-1.937-2.483-2.162-4.847-6.221-7.516-11.793-7.792-3.057-.158-4.915-.66-4.915-1.36 0-.502 5.416-.345 8.05.276zm-69.496-.197c.384.236.737.62.737.896 0 .267-2.398 1.931-5.297 3.636-4.03 2.443-5.415 3.103-5.927 2.837-1.66-.897-1.16-1.478 3.99-4.62 2.822-1.744 5.259-3.133 5.416-3.133.187 0 .659.187 1.081.384zm97.378 1.94l.924 1.626-1.002-.66c-.963-.62-2.595-2.827-2.595-3.487 0-.7 1.818 1.005 2.673 2.522zm-63.775-2.442c-.039.778-.776 1.202-3.165 1.783-1.435.384-3.096.66-3.675.66-1.013-.04-1.052-.04-.315-.463.659-.394 5.917-2.099 6.89-2.217.147-.04.265.079.265.237zm-16.511.423c.619.66.54.74-1.514 1.4-1.19.383-3.519 1.28-5.14 1.98-2.162.886-3.165 1.162-3.637.886-.766-.424-.884-1.468-.147-1.468.226 0 2.201-.778 4.324-1.714 4.374-1.931 5.22-2.089 6.114-1.084zm85.741-.739c0 .513-3.017 3.143-3.597 3.143-.236 0-.934-.7-1.553-1.547l-1.081-1.517 2.054-.148c1.121-.078 2.506-.157 3.126-.197.579-.039 1.051.08 1.051.266zm-61.338 1.242c1.199 1.083 2.162 2.177 2.162 2.443 0 .394-10.752 3.142-11.096 2.827-.236-.226 5.877-7.24 6.339-7.24.236 0 1.435.886 2.595 1.97zm-4.413-1.744c0 .118-1.199 1.478-2.703 3.064-1.474 1.586-2.712 3.063-2.712 3.26 0 .227-.266.424-.58.424-.305 0-.58-.118-.58-.315 0-.808 4.295-5.891 5.376-6.354.816-.345 1.199-.345 1.199-.079zm-14.496-.227c-.118.188-.502.385-.816.385-.305 0-.54-.197-.54-.385 0-.236.343-.394.815-.394.423 0 .659.158.54.394zm-7.775-.039c.226.345-1.74 1.28-6.575 3.064-2.712.965-3.213 1.044-3.833.62-.383-.315-.619-.62-.501-.778.157-.118 2.133-.896 4.452-1.704 4.177-1.517 6.064-1.862 6.457-1.202zm9.357.266c-.58.542-1.2.896-1.317.778-.344-.345 1.16-1.783 1.818-1.783.423.04.315.306-.501 1.005zm88.248-.7c1.553.897.894 1.094-2.9.936-2.86-.118-3.941-.315-4.442-.778-.619-.62-.432-.66 2.899-.62 2.045 0 3.941.197 4.443.463zm-40.837.818c4.059 1.704 7.391 3.95 8.777 5.852 1.091 1.517 3.715 8.452 3.332 8.836-.433.473-1.396-.965-2.094-3.132-1.887-5.704-6.034-9.536-11.558-10.699-1.12-.236-3.597-.433-5.494-.433-1.897 0-3.901-.187-4.521-.424l-1.091-.463 1.75-.502c2.978-.897 7.459-.463 10.899.965zm-75.756-1.241c.58.581-8.708 6.127-9.631 5.773-1.082-.424-.423-.966 3.911-3.527 4.06-2.404 5.18-2.827 5.72-2.246zm16.787-.463c.069.236-.973.778-2.29 1.241-1.347.424-3.597 1.241-5.022 1.783-2.172.818-2.595.887-2.782.424-.118-.345.03-.66.462-.778.344-.109 2.241-.887 4.138-1.744 3.361-1.428 5.219-1.744 5.494-.926zm14.074-.818c-.236.276-1.238.62-2.28.74-1.013.117-2.438.354-3.175.462-2.162.394-.462-.502 2.202-1.123 3.056-.739 3.833-.778 3.253-.079zm-16.865-.078c-.423.275-2.546 1.201-4.679 2.058-3.4 1.4-4.02 1.547-4.638 1.084-.974-.739-.463-1.084 3.36-2.404 3.293-1.162 7.578-1.665 5.957-.739zm99.697-.424c2.398.66 1.622 1.123-1.818 1.123-2.663 0-3.4-.148-4.138-.769l-.923-.738 2.702-.04c1.514 0 3.371.197 4.177.424zm-116.287.197l.973.66-1.475.965c-3.282 2.246-6.535 3.96-7.577 3.96-1.435 0-1.78-1.014-.659-1.861 1.976-1.439 6.801-4.305 7.273-4.345.265 0 .924.266 1.465.62zm106.892.157l-1.317 1.163h1.896c3.715 0 2.978.66-1.002.887-2.202.157-4.059.197-4.138.118-.275-.315 4.403-3.3 5.14-3.3.659 0 .541.197-.579 1.133zm-27.264-.118c2.978 1.586 10.29 10.117 12.217 14.265.619 1.28 1.199 3.103 1.356 4.069l.275 1.743-1.012-.926c-.619-.542-1.307-1.98-1.819-3.684-1.199-3.842-2.545-6.512-4.206-8.108-2.477-2.404-6.536-4.807-9.907-5.89l-3.322-1.084-4.059.699c-3.371.581-4.216.62-5.111.197l-1.041-.512 1.277-.503c2.084-.886 5.062-1.28 9.553-1.162 3.48.04 4.521.236 5.799.896zM99.314 41.09c-2.476 2.749-3.017 3.143-3.017 2.167 0-.58 4.521-4.876 5.101-4.876.197 0-.737 1.202-2.084 2.71zm64.464-1.743c1.16.778 2.133 1.546 2.133 1.743 0 .887-.855.66-2.634-.778-3.362-2.63-3.057-3.212.501-.965zm-58.006-.582c1.002.424 2.24 1.123 2.781 1.547l.973.739-.934.197c-.462.118-3.017.729-5.612 1.32-2.624.61-4.747 1.005-4.747.847 0-.305 5.298-5.428 5.563-5.428.118 0 .963.355 1.976.778zm65.161-1.005c0 .08-.924.769-2.084 1.547l-2.054 1.438-1.317-1.162c-.698-.66-1.425-1.202-1.582-1.202-.197 0-.315-.197-.315-.394 0-.227 1.475-.384 3.676-.384 2.015 0 3.676.079 3.676.157zm-82.567.227c-.118.197-.501.394-.816.394-.305 0-.462-.197-.344-.394.118-.227.501-.384.816-.384.304 0 .462.157.344.384zm-8.58.158c.078.305-7.853 3.25-8.895 3.33-1.012 0-.472-.66.963-1.31 2.32-1.016 6.811-2.523 7.352-2.444.265.04.54.227.58.424zm9.936.04c-.501.54-1.002.846-1.12.738-.118-.118.186-.542.697-.975 1.268-1.045 1.504-.926.423.236zm23.784.925c8.856 5.783 14.851 12.876 20.65 24.46 4.992 10.04 6.457 15.349 6.152 22.215-.236 4.266-1.592 9.034-3.872 13.644-1.465 2.906-1.779 3.291-2.477 3.025-.806-.316-.688-1.163 1.052-6.286 4.403-13.289 3.587-21.505-3.371-34.223-1.239-2.206-3.057-5.23-4.06-6.709-2.044-3.024-9.553-10.58-14.732-14.885-3.096-2.512-3.941-3.526-3.096-3.526.157 0 1.858 1.014 3.754 2.285zm66.744-1.93l.934.728-2.9.276c-2.86.266-5.032-.158-5.032-.936 0-.384 1.435-.65 4.295-.729 1.278-.079 2.084.148 2.703.66zm-49.534.226c1.582.817 1.199 1.241-1.396 1.586-2.28.276-5.759-.65-5.455-1.507.393-1.163 4.679-1.202 6.851-.08zm-52.67-.306c.069.266-.197.503-.58.503-.393 0-2.172.62-3.99 1.36-3.204 1.31-5.022 1.664-5.022 1.043 0-.394 1.464-1.044 5.415-2.56 2.663-1.006 3.902-1.124 4.177-.346zm38.9.306c10.752 6.088 14.694 9.496 20.807 17.87 8.393 11.556 11.174 29.652 6.496 42.488-1.936 5.231-4.639 9.142-5.258 7.517-.118-.306.383-1.941 1.12-3.606.964-2.088 1.74-4.955 2.595-9.22 1.042-5.35 1.199-6.71.963-9.694-.658-9.23-4.334-19.93-9.631-27.83-1.199-1.743-4.02-5.27-6.34-7.832-3.557-3.95-4.835-5.043-8.472-7.368-7.312-4.65-8.511-5.891-2.28-2.325zm1.504 2.6c4.492 2.867 5.376 3.645 8.973 7.714 6.113 6.935 8.855 11.398 11.873 19.15 3.675 9.458 4.491 17.91 2.594 26.855-1.041 4.7-3.597 11.319-4.413 11.319-.186 0-.805-.344-1.307-.729l-.973-.738 1.779-3.842c4.217-8.916 4.993-17.477 2.398-25.81-1.346-4.227-6.074-14.078-8.658-17.91-5.15-7.714-10.33-13.3-15.667-16.866-1.7-1.123-3.4-2.324-3.744-2.63-1.13-.975-.354-1.32.963-.473.698.434 3.479 2.217 6.182 3.96zm-25.868-4.344c-.501.502-5.061 1.626-5.877 1.478-.344-.079.737-.512 2.437-.976 3.784-.965 3.941-1.004 3.44-.502zm-9.052 0a.378.378 0 01-.383.384.405.405 0 01-.383-.384c0-.236.186-.384.383-.384.236 0 .383.148.383.384zm-8.354.62c-3.125 1.4-6.26 2.602-7.194 2.75-1.779.354-1.229-.543.776-1.272 1.003-.354 2.743-1.054 3.912-1.517 1.16-.463 2.428-.778 2.86-.66.737.197.698.276-.354.7zm24.984-.383l2.132 1.004-1.238.542c-1.779.778-9.013 2.443-9.013 2.098 0-.58 4.679-4.66 5.337-4.66.344 0 1.622.474 2.782 1.016zm-7.46 1.586c-1.238 1.201-2.359 2.02-2.516 1.861-.157-.157.737-1.201 2.015-2.403 1.238-1.163 2.359-1.98 2.477-1.862.147.157-.738 1.202-1.976 2.404zm85.113-2.404c1.857.424.737.965-2.005.965-2.821 0-4.875-.463-4.875-1.044 0-.305 5.337-.226 6.88.079zm-60.051.66c2.703 1.044 10.241 5.27 13.799 7.753 6.968 4.847 12.61 10.235 15.008 14.383 2.093 3.645 4.216 12.284 4.835 19.84.462 5.783-.894 13.22-3.44 19.072-2.241 5.123-4.177 8.255-5.189 8.531-.462.118-.963.118-1.081.04-.079-.119.501-1.586 1.356-3.261 3.017-6.118 4.059-10.846 4.059-17.979-.039-14.077-5.219-26.637-15.234-36.824-3.901-3.96-6.929-6.166-13.071-9.575-2.477-1.36-4.678-2.68-4.914-2.877-.502-.502 1.277-.108 3.872.897zm-44.286-.897c0 .197-1.12.74-2.477 1.202-1.307.434-3.086 1.133-3.902 1.557-.815.423-1.582.66-1.7.581-.393-.424 1.003-1.36 3.637-2.443 2.781-1.202 4.442-1.517 4.442-.897zm58.124-.305c1.858.503 4.413 2.68 3.676 3.103-.885.581-2.202.384-4.256-.66-2.162-1.083-4.216-1.28-6.84-.542-3.096.808-3.558-.276-.659-1.596 1.779-.807 5.72-.965 8.079-.305zm-46.33-.463c-.462.424-3.98 1.005-3.597.62.157-.196.973-.433 1.74-.58 2.171-.434 2.25-.434 1.857-.04zm82.763-.355c.118.197-.117.582-.579.858-1.475.925-.934 1.467 1.464 1.467 1.553 0 2.054.118 1.632.394-.315.188-2.674.385-5.229.385-4.56 0-4.6 0-3.863-.74.777-.728 4.993-2.708 5.878-2.748.236 0 .58.158.697.384zm-88.1 1.596c19.106 10 34.075 23.18 37.249 32.716 3.361 10.118 2.202 22.826-3.135 33.918-2.133 4.413-6.31 11.083-8.197 13.102-1.012 1.044-2.594 1.705-2.594 1.044 0-.078 1.395-2.098 3.056-4.462 10.438-14.61 13.376-29.573 8.315-42.4-2.516-6.324-4.914-9.733-11.254-15.742-5.798-5.507-18.408-14.225-26.103-18.067-1.661-.808-3.018-1.626-3.018-1.783 0-.808 2.28-.109 5.681 1.674zm96.612-1.556c.383.394-5.956.502-6.929.118-.344-.118-.619-.384-.619-.62 0-.464 7.007 0 7.548.502zm-88.76.394c-.736.66-1.857 1.428-2.476 1.783l-1.12.581.855-1.093c1.042-1.31 2.703-2.473 3.518-2.473.344.04.04.503-.776 1.202zm-8.776-.778c-.314.305-.619.305-1.16 0-.619-.345-.54-.384.462-.424.816 0 1.003.108.698.424zm83.688-.424c2.476 0 2.398.384-.315 1.783l-1.926.965-2.28-1.398c-1.278-.769-2.33-1.508-2.33-1.626 0-.118 1.091-.118 2.369.04 1.307.118 3.322.236 4.482.236zm-6.418 1.241c2.545 1.626 3.204 2.246 2.201 2.246-.579 0-3.941-1.94-5.336-3.063-1.819-1.517.275-.926 3.135.817zm-63-1.014c1.465.778 1.16 1.014-2.515 1.861-3.135.74-3.096.74-2.782.197.344-.541 3.322-2.679 3.755-2.679.187 0 .884.276 1.543.62zm39.756-.08c2.28 1.016 6.113 3.961 5.681 4.385-.423.423-2.202-.266-3.44-1.4-3.597-3.093-8.472-3.526-13.376-1.122-1.553.738-1.779.778-2.9.236l-1.238-.581 1.278-.66c3.4-1.783 10.939-2.246 13.995-.857zm-50.97-.541c-1.63 1.517-2.476 1.517-1.041 0 .61-.66 1.386-1.163 1.7-1.163.423 0 .187.395-.658 1.163zm-1.237-.768c0 .187-.354.384-.816.384-.423 0-.659-.197-.54-.384.117-.237.5-.395.815-.395.305 0 .54.158.54.395zm92.739.039c.462.266.845.62.845.729 0 .315-6.693-.187-7.273-.542a.536.536 0 01-.226-.7c.344-.58 5.524-.186 6.654.513zm-85.044-.62c.776.226.845.344.344.62-.727.424-5.838 1.507-6.064 1.31-.275-.305 3.627-2.512 4.206-2.364.315.118 1.013.315 1.514.433zm43.736-.474c.737 0 1.12.08.855.198-.315.078.658.738 2.123 1.477 1.435.69 3.675 2.128 4.953 3.133 2.241 1.822 2.28 1.862 1.199 1.98-.737.118-1.238-.118-1.622-.66-.855-1.163-5.572-3.871-8.314-4.729-4.138-1.28-9.17-.817-13.229 1.281-1.278.62-1.661.66-2.821.227-.698-.227-1.317-.582-1.317-.69 0-.581 2.045-1.123 6.418-1.744 2.516-.394 4.678-.778 4.796-.857.118-.118 1.435-.078 2.9.08 1.513.157 3.322.304 4.059.304zm-17.131.355c.58.62.541.66-.423.926-1.975.463-6.349-.581-5.798-1.428.383-.7 5.415-.276 6.221.502zm54.842-1.084c.697.385.58.424-.855.542-1.976.148-4.059-.354-4.295-1.054-.148-.423.275-.463 2.093-.226 1.278.157 2.624.463 3.057.738zm-7.932-.738c0 .118-.265.66-.619 1.162-.58.887-.58.926.698 1.123.698.118 1.897.276 2.634.345 2.545.276-4.452.276-8.285 0-3.558-.227-3.745-.266-2.782-.768 2.054-1.084 8.354-2.483 8.354-1.862zM93.781 30.35c10.054 3.685 25.219 14.846 31.441 23.14 6.191 8.217 11.027 18.255 11.636 24.077.511 5.113-.068 10.699-1.7 16.087-1.818 6.04-3.666 9.802-7.617 15.427-4.02 5.773-6.143 7.98-7.695 7.98-.62 0-1.121-.148-1.121-.305 0-.198 1.356-1.744 3.017-3.409 4.295-4.384 8.934-12.876 10.91-20.047 1.228-4.414 1.779-11.467 1.268-16.856-.767-7.99-3.086-13.338-9.74-22.135-4.256-5.626-5.573-7.015-9.907-10.699-5.258-4.502-10.939-7.526-20.875-11.24-2.133-.778-4.177-1.704-4.57-2.06-.688-.62-.688-.66.196-.886.963-.236 2.359.04 4.757.926zm63.461-1.32c-.118.158-1.238.62-2.516 1.015-2.28.69-2.28.69-3.479-.158-.659-.463-1.199-.975-1.199-1.123 0-.157 1.661-.236 3.676-.157 2.014.078 3.597.276 3.518.423zm-7.42.66c.619.74 1.002 1.478.845 1.596-.265.306-3.519-1.172-4.875-2.216l-.963-.779 1.936.04c1.74 0 2.044.157 3.057 1.36zm-32.06-.384c2.939 1.547.806 2.246-2.899.966-2.516-.887-4.531-1.005-6.507-.463-.806.266-1.661.236-2.28 0-2.162-.818.737-1.478 6.074-1.4 3.293.08 4.374.237 5.612.897zm-16.59-.581c1.464.424 3.558 1.28 4.6 1.862 1.081.62 2.86 1.389 3.941 1.743 2.319.769 2.791 1.242 1.621 1.586-.422.158-1.385.818-2.162 1.478l-1.356 1.202-1.239-.7c-3.164-1.861-8.737-4.767-11.322-5.89-2.83-1.202-2.87-1.242-1.779-1.636 1.78-.66 4.865-.502 7.696.355zm37.78-.975c4.137.315 4.177.315 14.811 7.368 10.211 6.748 12.954 9.418 17.248 16.669 4.521 7.634 6.035 10.856 7.155 15.082.846 3.33 1.003 4.728 1.042 10.078.04 5.89 0 6.354-1.081 9.496-2.398 7.014-7.273 15.733-13.229 23.604-3.479 4.61-8.039 9.615-9.081 9.92-.737.236-4.216-.768-4.216-1.241 0-.069.501-.887 1.12-1.813.619-.896 2.32-3.802 3.823-6.443 8.551-15.387 10.487-21.278 10.015-30.814-.806-15.97-5.72-26.707-17.632-38.568-4.756-4.768-8.698-7.792-14.811-11.437-2.083-1.241-3.793-2.325-3.793-2.404 0-.118 1.169-.079 2.633.04 1.435.118 4.138.354 5.996.463zm-10.556.738c1.7 1.084 1.927 1.36 1.239 1.36-1.16 0-3.293-1.005-4.177-1.98-.62-.7-.62-.739.078-.739.423 0 1.7.62 2.86 1.36zm-4.373-.778c1.081.581 2.201 1.28 2.437 1.557.383.502.305.58-.541.58-1.081 0-5.651-2.285-5.651-2.826 0-.582 1.858-.237 3.755.69zm-8.895-.542c5.062.473 8.619 1.715 8.01 2.72-.432.699-2.634.305-4.57-.818-2.664-1.508-4.324-1.705-9.317-1.123-5.494.62-6.733.62-8.236 0-1.317-.542-1.278-.966.118-1.36.963-.226 8.816.079 13.995.581zm-15.352-1.005a126.87 126.87 0 00-28.502 7.872c-5.533 2.246-15.47 7.98-21.887 12.6-2.595 1.89-7.509 5.27-10.91 7.516C22.006 65.087 5.8 80.159 1.938 88.267.884 90.513 0 95.005 0 98.227c0 3.102 1.238 7.87 2.663 10.195 1.239 1.98 2.831 2.325 18.222 3.793 3.518.355 10.83 1.241 16.236 1.98 5.416.778 11.263 1.557 12.964 1.744 1.7.236 12.56.542 24.167.739 13.652.197 23.205.542 27.067.926 4.256.433 10.595.581 21.858.62 20.148 0 24.089.434 33.063 3.34 3.823 1.202 4.403 1.32 10.054 1.389 5.415.039 6.378-.039 10.015-1.005 5.258-1.359 6.231-1.822 12.216-5.733 6.536-4.305 9.907-7.911 13.269-14.265 4.452-8.373 5.454-20.668 2.594-31.327-1.936-7.21-4.334-11.319-13.347-22.943-9.012-11.635-13.337-15.743-19.145-18.186-3.44-1.428-5.219-1.625-17.976-1.97-6.929-.197-16.403-.62-21.081-.936-13.072-.926-28.581-1.123-33.063-.424zm-91.225-.463c-4.453 1.705-6.93 6.63-5.298 10.541.649 1.547 1.16 1.862.61.355-.846-2.217-.187-4.62 1.896-6.866 1.435-1.586 2.83-2.207 4.836-2.207 3.056 0 4.56 1.162 5.071 4.03.383 1.98-1.277 5.348-3.292 6.668-1.74 1.163-4.099 1.587-5.76 1.005-1.543-.541-1.543-.266.04.542 1.74.897 4.757.581 6.997-.739 4.757-2.788 5.455-9.762 1.317-12.59-1.592-1.054-4.6-1.399-6.417-.739zm38.438-9.033c-3.794.818-5.838 4.65-4.138 7.713.806 1.478 2.82 2.749 4.325 2.749.776-.03.658-.148-.57-.581-2.251-.808-3.293-2.168-3.293-4.335 0-1.477.197-1.94 1.278-3.024 2.201-2.207 5.18-2.207 7.312.079 1.238 1.32 1.199 3.714-.04 5.536l-.972 1.36 1.051-.927c1.809-1.674 2.123-4.383.728-6.55-1.003-1.557-3.558-2.483-5.681-2.02zM21.003.778c-1.936 1.162-2.555 2.404-2.359 4.69.462 4.767 6.457 6.934 9.74 3.486 1.897-1.98 1.7-5.388-.423-7.053-.658-.502-.658-.463.04.305.884 1.054 1.238 3.96.619 5.123-.58 1.162-2.673 2.364-3.98 2.364-3.529 0-6.271-4-4.767-6.905.697-1.35 1.474-1.862 3.597-2.365l1.474-.345L23.588.04c-.728 0-1.897.305-2.585.739z" fill="#A6D4CF"/></svg>