<svg width="93" height="93" viewBox="0 0 93 93" fill="none" xmlns="http://www.w3.org/2000/svg">
<g clip-path="url(#clip0)">
<path d="M2 71.5L15 25.5L82.5 36.5L80 84L45 78.5L44 56L37 77.5L2 71.5Z" fill="#6BDBCF"/>
<path d="M16 34.4998C14.0002 34.0998 12.8334 34.3331 12.5 34.4998L6.5 56.5L12 58C12.1667 58.5 12.7 59.9 13.5 61.5C14.5 63.5 18 64 22 63.5C25.2 63.1 26.3333 59.3333 26.5 57.5C27.1667 57.3333 28.8 57 30 57C31.5 57 33.5 54.5 34 50C34.4 46.4 31.8333 44.5 30.5 44C30.6667 42.8333 30.9 40.2 30.5 39C30 37.5 28.5 35.4996 25.5 34.4998C23.1 33.6999 20.5 35.1664 19.5 35.9996C19.1666 35.6663 17.9998 34.8997 16 34.4998Z" fill="#F8C34B"/>
<path d="M15.5652 53.3049C16.4195 53.9252 17.3886 54.3223 18.4026 54.4798C19.0717 54.5837 19.7608 54.5833 20.4488 54.4736C22.1773 54.1995 23.6961 53.268 24.7249 51.8504C25.7537 50.4334 26.1693 48.701 25.8953 46.9722C25.6215 45.2416 24.6902 43.7218 23.2724 42.6922C21.8555 41.663 20.1216 41.2469 18.3909 41.5205C16.6603 41.794 15.1408 42.7251 14.1118 44.1425C13.0821 45.5607 12.6673 47.2955 12.9433 49.0256C13.2168 50.7562 14.1479 52.2759 15.5652 53.3049ZM16.0301 45.5352C16.6868 44.6309 17.6566 44.0365 18.761 43.8619C19.1996 43.7927 19.6383 43.7927 20.0646 43.8589C20.7134 43.9596 21.3333 44.2136 21.8795 44.6103C22.7846 45.2676 23.3792 46.238 23.5537 47.3427C23.5537 47.3428 23.5538 47.343 23.5538 47.3432C23.7287 48.4467 23.4632 49.5528 22.8064 50.4577C22.1496 51.3627 21.1805 51.9573 20.0765 52.1322C18.9705 52.3087 17.8627 52.0437 16.9579 51.3866C16.0534 50.7299 15.4594 49.7601 15.2846 48.654C15.1083 47.5481 15.3731 46.4405 16.0301 45.5352Z" fill="#035A52"/>
<path d="M76.4282 46.4297C75.2652 45.8436 73.9442 45.7466 72.7076 46.1562C71.472 46.5657 70.4705 47.4323 69.8876 48.5964C69.3031 49.758 69.2063 51.0773 69.6153 52.3117C70.0241 53.5461 70.8903 54.5484 72.0552 55.1344C72.5176 55.3661 72.9997 55.5171 73.4858 55.5926C75.5192 55.9084 77.618 54.9023 78.5935 52.9668C79.7976 50.5644 78.8252 47.6315 76.4282 46.4297ZM76.4754 51.902C75.8548 53.1328 74.3482 53.6319 73.1193 53.0158C72.5209 52.7148 72.0756 52.1999 71.8656 51.566C71.6558 50.933 71.7057 50.2563 72.0058 49.6606C72.0063 49.6597 72.0068 49.6586 72.0072 49.6578C72.306 49.0607 72.8196 48.6162 73.4532 48.4063C73.8348 48.2799 74.2321 48.2475 74.6183 48.3075C74.8741 48.3472 75.1249 48.4273 75.3634 48.5475C76.5944 49.1647 77.0925 50.6706 76.4754 51.902Z" fill="#035A52"/>
<path d="M81.2459 84.0294L81.6357 76.0121C81.6677 75.3583 81.1648 74.8026 80.5094 74.7706C79.8556 74.7389 79.2999 75.2431 79.2681 75.8969L78.9422 82.5996L73.2911 81.7253C73.8079 80.9621 74.1583 80.087 74.3032 79.1539C74.8268 75.7821 72.5686 72.609 69.2414 71.9769C68.586 69.6239 66.5932 67.8105 64.1231 67.4269C61.6805 67.0475 59.3028 68.101 57.9431 70.0897C54.5682 69.6603 51.4335 72.0046 50.9078 75.3894C50.7544 76.3769 50.8366 77.3638 51.1303 78.2837L45.9619 77.4811L46.0261 54.466L47.19 46.9718C47.2904 46.3249 46.8476 45.7191 46.2007 45.6186C45.5537 45.5182 44.948 45.9611 44.8475 46.608L43.6837 54.1022L36.7647 76.0527L3.93076 70.9536L7.28396 58.3193C8.73996 58.9219 10.2755 58.9744 11.3508 58.9008C11.8555 60.7074 12.944 62.2778 14.4906 63.402C15.5807 64.194 16.8172 64.7011 18.1115 64.9021C18.9638 65.0345 19.8414 65.034 20.7181 64.8945C22.9255 64.5433 24.8646 63.353 26.1767 61.5451C26.8176 60.6659 27.2793 59.6674 27.5374 58.613C30.0565 58.4964 32.4412 57.2345 33.9423 55.1687C36.6532 51.4331 35.8196 46.1882 32.0742 43.4702C32.0615 43.4612 32.0487 43.4522 32.036 43.4432C32.7491 40.2134 31.505 36.866 28.7748 34.8851C26.0155 32.8839 22.3113 32.78 19.4583 34.5365C19.4542 34.5334 19.4498 34.5304 19.4457 34.5273C18.0595 33.5205 16.0023 32.7747 14.0205 32.9369L15.6642 26.7441L38.3871 30.273C38.2519 32.6191 38.384 35.0205 38.7873 37.47C38.8726 37.9885 39.2824 38.3724 39.7748 38.4489C39.8958 38.4677 40.0218 38.4679 40.1495 38.447C40.7955 38.3407 41.2328 37.7308 41.1264 37.0849C40.7653 34.8917 40.6379 32.7408 40.7425 30.6388L55.9458 32.9998C55.4078 35.0338 54.6336 37.0447 53.6239 39.0258C53.3266 39.6091 53.5586 40.3228 54.1417 40.62C54.2569 40.6787 54.377 40.7167 54.4982 40.7355C54.9906 40.8119 55.4975 40.5702 55.7361 40.1022C56.8637 37.8896 57.7182 35.6413 58.3013 33.3657L81.048 36.8982L80.8743 40.753C79.7173 40.4776 78.4876 40.4987 77.3608 40.8351C75.6429 38.9518 72.9285 38.2085 70.4516 39.0276C68.0031 39.8402 66.3011 41.9564 65.9994 44.453C64.4026 45.0206 63.1082 46.1634 62.3437 47.6847C61.5565 49.2509 61.4266 51.0285 61.9781 52.6906C62.5956 54.5489 63.9644 55.9935 65.7356 56.7075C65.7102 57.4766 65.8197 58.2513 66.0624 58.994C66.6134 60.6583 67.7787 62.0078 69.3442 62.7943C69.9654 63.1063 70.6199 63.315 71.2878 63.4187C72.3029 63.5763 73.3485 63.4916 74.3524 63.1592C75.7038 62.7113 76.8412 61.8649 77.6412 60.7289C78.3858 60.968 79.179 61.0809 79.9593 61.0623L79.5313 70.5615C79.5017 71.2154 80.0074 71.7684 80.6619 71.7989C81.3158 71.8283 81.8699 71.3221 81.8993 70.6681L83.7199 30.261L84.9665 22.2335C85.2802 20.2135 83.8921 18.3149 81.872 18.0012L53.8887 13.6554C53.2417 13.5549 52.636 13.9979 52.5356 14.6447C52.4351 15.2915 52.8779 15.8974 53.5249 15.9978L81.5083 20.3437C82.2367 20.4568 82.7373 21.1413 82.6242 21.8697L81.5496 28.7894L59.2262 25.3225C59.1905 23.768 59.0341 22.2057 58.7537 20.6374C58.6385 19.993 58.0227 19.5639 57.3783 19.6793C56.734 19.7945 56.3049 20.4103 56.4202 21.0546C56.6534 22.3583 56.7935 23.6581 56.8427 24.9524L42.3294 22.6985C42.7686 21.48 43.2959 20.2837 43.9127 19.1116C44.2177 18.5323 43.9952 17.8155 43.4158 17.5107C42.8373 17.2061 42.1197 17.4283 41.8149 18.0076C41.073 19.4173 40.451 20.8586 39.9458 22.3284L17.6206 18.8613L18.6952 11.9416C18.8083 11.2133 19.4949 10.7131 20.2256 10.8266L48.2666 15.1814C48.9136 15.2819 49.5193 14.8389 49.6198 14.192C49.7202 13.5452 49.2774 12.9394 48.6304 12.8389L20.5895 8.48413C18.5672 8.17005 16.6666 9.55786 16.3529 11.5779L15.1059 19.6076L1.30168 71.6186C1.21543 71.9433 1.27121 72.2896 1.45495 72.5708C1.6387 72.852 1.93335 73.0422 2.26536 73.0938L37.4071 78.5513C37.9858 78.6412 38.5433 78.2948 38.7194 77.7364L43.6342 62.1444L43.5886 78.4926C43.5871 79.0782 44.0132 79.5773 44.592 79.6671L79.8812 85.1431C80.2132 85.1944 80.5512 85.1024 80.8116 84.89C81.0719 84.6777 81.2295 84.3648 81.2459 84.0294ZM77.6956 58.1915C77.41 58.0407 77.0749 58.0129 76.7682 58.115C76.4616 58.2171 76.2098 58.4398 76.0714 58.7317C75.5779 59.7724 74.7025 60.5455 73.6072 60.9086C72.5441 61.2606 71.4082 61.178 70.4084 60.6757C69.4091 60.1736 68.6647 59.3118 68.3145 58.2532C68.0864 57.5558 68.0415 56.8131 68.1839 56.1052C68.311 55.4745 67.9115 54.8576 67.2839 54.7154C65.8385 54.3877 64.6959 53.3513 64.228 51.9435C63.8763 50.8834 63.9593 49.7491 64.4618 48.7492C64.9646 47.7489 65.8257 47.005 66.8962 46.6514C67.0478 46.5997 67.2021 46.5589 67.3674 46.5262C67.9317 46.4147 68.3344 45.9145 68.3229 45.3397C68.2858 43.4929 69.4414 41.8605 71.197 41.278C72.9741 40.6907 74.9419 41.3611 75.983 42.9084C76.3036 43.3851 76.9199 43.563 77.4451 43.3311C77.6294 43.2497 77.7822 43.1898 77.9271 43.1419C78.817 42.847 79.8547 42.8703 80.7647 43.1867L80.0665 58.6853C79.2565 58.7343 78.398 58.5622 77.6956 58.1915ZM81.3071 31.1507L81.1555 34.5161L58.8004 31.0444C58.9921 29.94 59.1196 28.8299 59.1844 27.715L81.3071 31.1507ZM56.8295 27.3493C56.7736 28.4648 56.6486 29.5755 56.4551 30.6801L40.9614 28.2739C41.1123 27.1628 41.3301 26.0667 41.6152 24.9865L56.8295 27.3493ZM39.2601 24.6208C38.9837 25.703 38.7683 26.7994 38.6159 27.9097L16.2758 24.4402L17.1397 21.1854L39.2601 24.6208ZM13.3454 35.4809C14.8426 34.972 16.8219 35.5517 18.0559 36.4478C18.2449 36.584 18.4234 36.7311 18.5865 36.8847C19.0145 37.2875 19.6728 37.3161 20.1338 36.9518C22.2341 35.2924 25.2152 35.2319 27.3828 36.804C29.5246 38.3579 30.3902 41.0861 29.5363 43.5923C29.3514 44.1357 29.5822 44.7335 30.0843 45.0114C30.2847 45.1225 30.4922 45.2539 30.6914 45.3955C33.3694 47.3389 33.9671 51.0985 32.0243 53.7757C30.7751 55.4946 28.7664 56.4119 26.6508 56.2293C26.0096 56.1741 25.4412 56.6408 25.3709 57.2806C25.2568 58.3175 24.8729 59.3091 24.2598 60.1504C23.3179 61.4482 21.928 62.3015 20.3457 62.5531C18.7642 62.8049 17.1796 62.4251 15.8841 61.4839C14.5463 60.5117 13.6867 59.0733 13.4629 57.4336C13.4192 57.1129 13.2462 56.8241 12.9842 56.6341C12.7219 56.4442 12.3938 56.3697 12.0753 56.4279C10.8279 56.6561 9.17363 56.632 7.90119 55.9937L13.3454 35.4809ZM64.8064 80.4076L59.5572 79.5924C59.4646 78.6428 59.8753 77.6812 60.6678 77.1017C61.8879 76.2096 63.609 76.4775 64.5025 77.6958C65.0813 78.4902 65.1812 79.5317 64.8064 80.4076ZM70.495 81.2911L67.1821 80.7766C67.622 79.2777 67.3714 77.608 66.4164 76.2968C64.749 74.0232 61.5428 73.5254 59.2685 75.188C57.9606 76.1443 57.2153 77.6597 57.1807 79.2234L53.9904 78.7279C53.3534 77.881 53.0849 76.8172 53.2501 75.7532C53.5842 73.6019 55.6042 72.1231 57.7532 72.4568C57.9057 72.4805 58.0612 72.5141 58.229 72.5596C58.7786 72.7085 59.3545 72.4467 59.6042 71.936C60.368 70.3727 62.0378 69.502 63.759 69.7693C65.5018 70.04 66.8645 71.4487 67.0724 73.1951C67.1411 73.7731 67.6204 74.2152 68.2009 74.2393C68.3663 74.2459 68.5226 74.2606 68.6648 74.2827C70.816 74.6168 72.2943 76.6389 71.9602 78.7901C71.8061 79.7857 71.2794 80.6771 70.495 81.2911Z" fill="#035A52"/>
</g>
<defs>
<clipPath id="clip0">
<rect width="80.9152" height="80.9152" fill="white" transform="translate(12.4175) rotate(8.82757)"/>
</clipPath>
</defs>
</svg>
