<svg width="33" height="33" viewBox="0 0 33 33" fill="none" xmlns="http://www.w3.org/2000/svg">
<g clip-path="url(#clip0)">
<path d="M31.6442 6.8838H5.84218L5.45864 2.61107C5.39591 1.91234 4.81032 1.37695 4.10881 1.37695H1.35525C0.606767 1.37695 0 1.98372 0 2.73221C0 3.4807 0.606767 4.08746 1.35525 4.08746H2.86978C3.69746 13.3085 1.55835 -10.5244 4.42852 21.4534C4.53914 22.705 5.21541 24.0631 6.38041 24.986C4.27996 27.6684 6.19913 31.6228 9.61586 31.6228C12.4517 31.6228 14.4519 28.7945 13.4794 26.1157H20.8969C19.9256 28.791 21.9214 31.6228 24.7604 31.6228C27.026 31.6228 28.8692 29.7796 28.8692 27.514C28.8692 25.2484 27.026 23.4052 24.7604 23.4052H9.62502C8.59554 23.4052 7.69843 22.7841 7.31121 21.8792L28.97 20.6063C29.5613 20.5716 30.0616 20.1567 30.2053 19.5821L32.959 8.56774C33.1725 7.71367 32.526 6.8838 31.6442 6.8838ZM9.61586 28.9123C8.84491 28.9123 8.21762 28.285 8.21762 27.514C8.21762 26.743 8.84491 26.1157 9.61586 26.1157C10.3869 26.1157 11.0142 26.743 11.0142 27.514C11.0142 28.285 10.3869 28.9123 9.61586 28.9123ZM24.7603 28.9123C23.9893 28.9123 23.362 28.285 23.362 27.514C23.362 26.743 23.9893 26.1157 24.7603 26.1157C25.5313 26.1157 26.1586 26.743 26.1586 27.514C26.1586 28.285 25.5313 28.9123 24.7603 28.9123ZM27.8171 17.9589L6.94639 19.1854L6.08548 9.59425H29.9084L27.8171 17.9589Z" fill="#0DB2A2"/>
</g>
<defs>
<clipPath id="clip0">
<rect width="33" height="33" fill="white"/>
</clipPath>
</defs>
</svg>
