<svg width="85" height="85" viewBox="0 0 85 85" fill="none" xmlns="http://www.w3.org/2000/svg">
<g clip-path="url(#clip0)">
<path d="M5.53877 39.5552L8.6917 30.9325C9.83187 27.8684 12.649 25.7463 15.9086 25.4971L70.115 21.4324C74.1186 21.1365 77.6056 24.1371 77.9101 28.1405L79.2689 46.2618C79.4335 48.4566 77.7877 50.3693 75.5928 50.5339L69.6622 50.9786C69.297 53.8722 66.9457 56.1073 64.0378 56.3253C61.1298 56.5434 58.4714 54.684 57.6788 51.8772L28.087 54.0962C27.7218 56.9897 25.3705 59.2248 22.4625 59.4429C19.5545 59.6609 16.8962 57.8015 16.1035 54.9947L9.59785 55.4826C8.08795 55.5953 6.68395 54.6991 6.14969 53.2818C6.03804 52.9779 5.96911 52.6608 5.94397 52.3384L5.17834 42.1281C5.11331 41.2544 5.23631 40.3772 5.53877 39.5552ZM72.3526 36.0208C73.028 35.9701 73.5344 35.3817 73.4837 34.7063L72.7502 24.9238C72.6996 24.2489 72.1111 23.7421 71.4357 23.7927L62.8761 24.4346C62.2007 24.4852 61.6944 25.0741 61.745 25.7491L62.4785 35.5315C62.5292 36.2069 63.1176 36.7132 63.793 36.6626L72.3526 36.0208ZM63.8539 53.8735C65.8796 53.7216 67.3992 51.9563 67.2472 49.93C67.0953 47.9043 65.3295 46.3848 63.3037 46.5367C61.278 46.6886 59.7585 48.4544 59.9104 50.4802C60.0679 52.5036 61.8301 54.0195 63.8539 53.8735ZM49.0277 36.5401C49.0783 37.2155 49.6668 37.7219 50.3422 37.6712L58.9018 37.0294C59.5772 36.9787 60.0836 36.3903 60.0329 35.7149L59.2994 25.9325C59.2488 25.2575 58.6603 24.7507 57.9849 24.8014L49.4253 25.4432C48.7499 25.4938 48.2436 26.0828 48.2942 26.7577L49.0277 36.5401ZM35.5769 37.5487C35.6275 38.2241 36.216 38.7305 36.8914 38.6798L45.451 38.038C46.1264 37.9873 46.6327 37.3989 46.5821 36.7235L45.8486 26.9411C45.7979 26.2661 45.2095 25.7593 44.5341 25.81L35.9745 26.4518C35.299 26.5025 34.7927 27.0914 34.8433 27.7663L35.5769 37.5487ZM32.0002 39.0466C32.6756 38.996 33.1819 38.4075 33.1313 37.7321L32.3977 27.9497C32.3471 27.2748 31.7587 26.7679 31.0832 26.8186L22.5236 27.4604C21.8482 27.5111 21.3419 28.1 21.3925 28.7749L22.1261 38.5573C22.1767 39.2327 22.7652 39.7391 23.4406 39.6884L32.0002 39.0466ZM22.2787 56.9911C24.3044 56.8392 25.8239 55.0738 25.672 53.0476C25.5201 51.0218 23.7542 49.5023 21.7285 49.6542C19.7028 49.8061 18.1833 51.572 18.3352 53.5977C18.4927 55.6211 20.2549 57.137 22.2787 56.9911ZM18.6473 40.0479C19.2769 39.944 19.7244 39.3777 19.6805 38.7407L18.9461 28.9478C18.896 28.2786 18.3126 27.7762 17.6429 27.8264L16.092 27.9427C13.7906 28.1215 11.8014 29.6185 10.9932 31.7806L7.84028 40.4034C7.67561 40.8528 7.60242 41.331 7.62575 41.8086L18.6473 40.0479Z" fill="#C8E8E4"/>
</g>
<defs>
<clipPath id="clip0">
<rect width="78.479" height="78.479" fill="white" transform="matrix(-0.9972 0.0747756 0.0747756 0.9972 78.2593 0)"/>
</clipPath>
</defs>
</svg>
