<svg width="259" height="95" fill="none" xmlns="http://www.w3.org/2000/svg"><path fill="#6BDBCF" d="M38 48h10v29H38zM19 48h10v29H19zM0 48h11v29H0zM57 34h10v43H57zM76 22h10v55H76zM95 5h10v72H95zM114 5h10v72h-10zM133 15h10v62h-10zM152 24h10v53h-10zM171 32h10v45h-10zM190 18h10v59h-10zM209 18h10v59h-10zM228 0h10v77h-10zM246 41h11v36h-11z"/><path d="M6.863 89.25c-.226.27-.498.486-.814.65a2.184 2.184 0 01-1.031.246c-.493 0-.922-.12-1.29-.363a2.372 2.372 0 01-.843-1.02 3.506 3.506 0 01-.3-1.458c0-.57.108-1.084.323-1.541.219-.457.528-.807.926-1.05.398-.241.863-.362 1.395-.362.843 0 1.507.316 1.992.949.488.629.732 1.488.732 2.578v.316c0 1.66-.328 2.873-.984 3.639-.657.762-1.647 1.152-2.971 1.172h-.21v-.914h.228c.894-.016 1.582-.248 2.062-.698.48-.453.742-1.167.785-2.144zm-1.67 0a1.66 1.66 0 001.002-.334 1.96 1.96 0 00.674-.826v-.434c0-.71-.154-1.289-.463-1.734-.308-.445-.699-.668-1.172-.668-.476 0-.859.183-1.148.55-.29.364-.434.844-.434 1.442 0 .582.139 1.063.416 1.442.282.374.657.562 1.125.562zM22.033 93h-1.09v-7.225l-2.185.803v-.984l3.105-1.166h.17V93zm8.526-3.639c0 1.27-.217 2.213-.65 2.83-.434.618-1.112.926-2.034.926-.91 0-1.584-.3-2.021-.902-.438-.606-.665-1.508-.68-2.707V88.06c0-1.254.217-2.186.65-2.795.434-.61 1.113-.914 2.04-.914.917 0 1.593.294 2.027.884.433.586.656 1.492.668 2.72v1.405zm-1.084-1.482c0-.918-.13-1.586-.387-2.004-.258-.422-.666-.633-1.225-.633-.554 0-.959.21-1.213.627-.253.418-.384 1.06-.392 1.928v1.734c0 .922.133 1.604.398 2.045.27.438.676.656 1.219.656.535 0 .932-.207 1.19-.62.261-.415.398-1.067.41-1.958V87.88zM79.033 93h-1.09v-7.225l-2.185.803v-.984l3.105-1.166h.17V93zm4.752-4.793h.815c.511-.008.914-.142 1.207-.404.293-.262.44-.615.44-1.06 0-1-.499-1.5-1.495-1.5-.469 0-.844.134-1.125.404-.277.265-.416.619-.416 1.06h-1.084c0-.676.246-1.236.738-1.682.496-.449 1.125-.673 1.887-.673.805 0 1.436.212 1.892.638.458.426.686 1.018.686 1.776 0 .37-.121.73-.363 1.078a2.157 2.157 0 01-.979.779c.469.148.83.395 1.084.738.258.344.387.764.387 1.26 0 .766-.25 1.373-.75 1.822-.5.45-1.15.674-1.951.674-.801 0-1.453-.217-1.957-.65-.5-.434-.75-1.006-.75-1.717h1.09c0 .45.146.809.44 1.078.292.27.685.404 1.177.404.523 0 .924-.136 1.201-.41.277-.273.416-.666.416-1.178 0-.496-.152-.876-.457-1.142-.305-.266-.744-.402-1.318-.41h-.815v-.885zM41.033 93h-1.09v-7.225l-2.185.803v-.984l3.105-1.166h.17V93zm6.739 0h-1.09v-7.225l-2.186.803v-.984l3.106-1.166h.17V93zM98.033 93h-1.09v-7.225l-2.185.803v-.984l3.105-1.166h.17V93zm7.752-2.865h1.184v.884h-1.184V93h-1.09v-1.98h-3.884v-.64l3.82-5.911h1.154v5.666zm-3.744 0h2.654V85.95l-.129.235-2.525 3.949zM60.033 93h-1.09v-7.225l-2.185.803v-.984l3.105-1.166h.17V93zm8.766 0h-5.59v-.78l2.953-3.28c.438-.497.738-.899.902-1.208.168-.312.252-.634.252-.966 0-.446-.134-.81-.404-1.096-.27-.285-.629-.428-1.078-.428-.54 0-.959.154-1.26.463-.297.305-.445.73-.445 1.277h-1.084c0-.785.252-1.42.756-1.904.508-.484 1.185-.726 2.033-.726.793 0 1.42.209 1.88.626.462.415.692.967.692 1.659 0 .84-.535 1.84-1.605 3l-2.285 2.478h4.283V93zM117.033 93h-1.09v-7.225l-2.185.803v-.984l3.105-1.166h.17V93zm3.674-4.277l.434-4.254h4.371v1.002h-3.451l-.258 2.326c.418-.246.892-.37 1.424-.37.777 0 1.394.258 1.851.774.457.512.686 1.205.686 2.08 0 .88-.239 1.572-.715 2.08-.473.504-1.135.756-1.987.756-.753 0-1.369-.209-1.845-.627-.477-.418-.748-.996-.815-1.734h1.026c.066.488.24.857.521 1.107.281.246.653.37 1.113.37.504 0 .899-.172 1.184-.516.289-.344.434-.819.434-1.424 0-.57-.157-1.027-.469-1.371-.309-.348-.721-.522-1.236-.522-.473 0-.844.104-1.114.31l-.287.235-.867-.222zM136.033 93h-1.09v-7.225l-2.185.803v-.984l3.105-1.166h.17V93zm7.43-8.537v.92h-.199c-.844.015-1.516.265-2.016.75-.5.484-.789 1.166-.867 2.045.449-.516 1.062-.774 1.84-.774.742 0 1.334.262 1.775.785.445.524.668 1.2.668 2.028 0 .879-.24 1.582-.721 2.11-.476.526-1.117.79-1.922.79-.816 0-1.478-.312-1.986-.937-.508-.63-.762-1.438-.762-2.426v-.416c0-1.57.334-2.77 1.002-3.598.672-.832 1.67-1.258 2.995-1.277h.193zm-1.424 3.844c-.371 0-.713.111-1.025.334-.313.222-.53.502-.651.837v.399c0 .703.158 1.27.475 1.7.316.429.711.644 1.183.644.489 0 .872-.18 1.149-.54.281-.359.422-.83.422-1.412 0-.585-.143-1.058-.428-1.417a1.35 1.35 0 00-1.125-.545zM155.033 93h-1.09v-7.225l-2.185.803v-.984l3.105-1.166h.17V93zm8.684-7.922L160.184 93h-1.137l3.521-7.64h-4.617v-.891h5.766v.61zM174.033 93h-1.09v-7.225l-2.185.803v-.984l3.105-1.166h.17V93zm8.35-6.305c0 .426-.113.805-.34 1.137a2.27 2.27 0 01-.908.78c.445.19.797.47 1.054.837.262.367.393.783.393 1.248 0 .739-.25 1.326-.75 1.764-.496.437-1.15.656-1.963.656-.82 0-1.478-.219-1.974-.656-.493-.442-.739-1.03-.739-1.764 0-.46.125-.877.375-1.248a2.374 2.374 0 011.049-.843 2.23 2.23 0 01-.896-.78 2.008 2.008 0 01-.329-1.13c0-.72.231-1.29.692-1.712.461-.421 1.068-.632 1.822-.632.75 0 1.356.21 1.817.632.464.422.697.993.697 1.711zm-.885 3.979c0-.477-.152-.865-.457-1.166-.301-.301-.695-.451-1.184-.451-.488 0-.88.148-1.177.445-.293.297-.44.688-.44 1.172s.143.865.428 1.142c.289.278.689.416 1.201.416.508 0 .906-.138 1.195-.416.29-.28.434-.662.434-1.142zm-1.629-5.432c-.426 0-.771.133-1.037.399-.262.261-.393.619-.393 1.072 0 .434.129.785.387 1.055.262.265.61.398 1.043.398.434 0 .779-.133 1.037-.398.262-.27.393-.621.393-1.055 0-.434-.135-.787-.404-1.06-.27-.274-.612-.41-1.026-.41zM193.033 93h-1.09v-7.225l-2.185.803v-.984l3.105-1.166h.17V93zm7.33-3.75c-.226.27-.498.486-.814.65a2.184 2.184 0 01-1.031.246c-.493 0-.922-.12-1.289-.363a2.366 2.366 0 01-.844-1.02 3.51 3.51 0 01-.299-1.458c0-.57.107-1.084.322-1.541.219-.457.528-.807.926-1.05.398-.241.863-.362 1.395-.362.843 0 1.507.316 1.992.949.488.629.732 1.488.732 2.578v.316c0 1.66-.328 2.873-.984 3.639-.657.762-1.647 1.152-2.971 1.172h-.211v-.914h.229c.894-.016 1.582-.248 2.062-.698.481-.453.742-1.167.785-2.144zm-1.67 0c.364 0 .698-.111 1.002-.334.309-.223.534-.498.674-.826v-.434c0-.71-.154-1.289-.463-1.734-.308-.445-.699-.668-1.172-.668a1.39 1.39 0 00-1.148.55c-.289.364-.434.844-.434 1.442 0 .582.139 1.063.416 1.442.282.374.657.562 1.125.562zM214.061 93h-5.59v-.78l2.953-3.28c.437-.497.738-.899.902-1.208.168-.312.252-.634.252-.966 0-.446-.135-.81-.404-1.096-.27-.285-.629-.428-1.078-.428-.539 0-.959.154-1.26.463-.297.305-.445.73-.445 1.277h-1.084c0-.785.252-1.42.755-1.904.508-.484 1.186-.726 2.034-.726.793 0 1.42.209 1.881.626.461.415.691.967.691 1.659 0 .84-.535 1.84-1.606 3l-2.285 2.478h4.284V93zm6.498-3.639c0 1.27-.217 2.213-.651 2.83-.433.618-1.111.926-2.033.926-.91 0-1.584-.3-2.021-.902-.438-.606-.665-1.508-.68-2.707V88.06c0-1.254.217-2.186.65-2.795.434-.61 1.114-.914 2.039-.914.918 0 1.594.294 2.028.884.433.586.656 1.492.668 2.72v1.405zm-1.084-1.482c0-.918-.129-1.586-.387-2.004-.258-.422-.666-.633-1.225-.633-.554 0-.959.21-1.213.627-.254.418-.384 1.06-.392 1.928v1.734c0 .922.133 1.604.398 2.045.27.438.676.656 1.219.656.535 0 .932-.207 1.189-.62.262-.415.399-1.067.411-1.958V87.88zM233.061 93h-5.59v-.78l2.953-3.28c.437-.497.738-.899.902-1.208.168-.312.252-.634.252-.966 0-.446-.135-.81-.404-1.096-.27-.285-.629-.428-1.078-.428-.539 0-.959.154-1.26.463-.297.305-.445.73-.445 1.277h-1.084c0-.785.252-1.42.755-1.904.508-.484 1.186-.726 2.034-.726.793 0 1.42.209 1.881.626.461.415.691.967.691 1.659 0 .84-.535 1.84-1.606 3l-2.285 2.478h4.284V93zm4.71 0h-1.089v-7.225l-2.186.803v-.984l3.106-1.166h.169V93zM251.061 93h-5.59v-.78l2.953-3.28c.437-.497.738-.899.902-1.208.168-.312.252-.634.252-.966 0-.446-.135-.81-.404-1.096-.27-.285-.629-.428-1.078-.428-.539 0-.959.154-1.26.463-.297.305-.445.73-.445 1.277h-1.084c0-.785.252-1.42.755-1.904.508-.484 1.186-.726 2.034-.726.793 0 1.42.209 1.881.626.461.415.691.967.691 1.659 0 .84-.535 1.84-1.606 3l-2.285 2.478h4.284V93zm6.738 0h-5.59v-.78l2.953-3.28c.438-.497.738-.899.902-1.208.168-.312.252-.634.252-.966 0-.446-.134-.81-.404-1.096-.269-.285-.629-.428-1.078-.428-.539 0-.959.154-1.26.463-.297.305-.445.73-.445 1.277h-1.084c0-.785.252-1.42.756-1.904.508-.484 1.185-.726 2.033-.726.793 0 1.42.209 1.881.626.461.415.691.967.691 1.659 0 .84-.535 1.84-1.605 3l-2.285 2.478h4.283V93z" fill="#000"/></svg>