<svg width="184" height="179" fill="none" xmlns="http://www.w3.org/2000/svg"><g clip-path="url(#clip0)" fill="#A6D4CF"><path d="M71.952 4.46c-2.445-.075-4.666-.051-4.937.045-1.172.413-.875 1.823.492 2.383.5.201 2.72.872 4.96 1.495 2.24.622 4.56 1.3 5.174 1.51l1.131.394-4.874 1.951c-6.104 2.476-6.74 2.811-6.799 3.634-.084 1.185.352 1.331 4.388 1.619 2.504.178 3.799.37 3.67.542-.257.362.224.347.646-.003.195-.168 1.723-.242 3.706-.183 2.693.076 3.414.177 3.59.504.175.326.29.335.492.068.183-.252.98-.278 2.968-.07l2.712.276-4.692 3.585c-11.07 8.505-19.082 16.865-26.168 27.324-2.37 3.52-8.664 14.018-11.03 18.414-2.422 4.49-4.995 10.162-6.987 15.345-2.196 5.73-5.202 14.926-6.036 18.505-.384 1.676-.884 3.343-1.127 3.739-.49.825-.56 1.118-.216.944.137-.073.383.193.522.566.14.374.166.69.035.681-.132-.009-2.155.028-4.528.107-8.592.216-9.867.456-8.896 1.699.227.297.4.657.39.805-.01.148.526 1.674 1.198 3.392.673 1.719 1.209 3.493 1.192 3.955-.034.477.09.833.288.847.197.014 1.113 1.336 2.059 2.942.93 1.587 2.414 3.76 3.266 4.813.884 1.072 1.57 2.146 1.55 2.409-.02.28.13.505.36.522.462.032 1.26 1.396 1.02 1.742-.109.125.049.235.331.222.73-.03 4.145 3.173 3.663 3.436-.207.118-1.631.116-3.13.009-3.855-.275-6.864-1.266-10.659-3.537-1.683-1.013-3.323-1.924-3.68-2.032-.954-.316-1.71.308-3.165 2.603-2.629 4.129-3.705 4.829-9.433 6.207-2.98.698-3.322.855-3.363 1.431-.025.346.115.703.307.799.481.216 6.797-1.285 8.556-2.036 2.05-.896 4.011-2.857 5.798-5.855.392-.634.792-1.134.94-1.124.132.01 1.226.699 2.457 1.548 3.785 2.651 8.799 4.545 12.638 4.802 1.04.058 3.197-.02 4.831-.185 2.436-.256 3.5-.544 6.11-1.632 1.74-.719 3.822-1.828 4.663-2.479.823-.62 1.654-1.139 1.803-1.129.148.011 1.993 1.068 4.105 2.343 2.11 1.292 4.71 2.667 5.806 3.093 1.08.407 1.96.834 1.953.932-.007.099.891.279 1.992.39 2.663.273 2.822.367 2.2 1.199-.292.376-.395.666-.23.678.148.011.464-.248.737-.592.401-.518.822-.62 3.33-.723 3.968-.163 6.696-1.259 9.867-3.944 1.25-1.052 2.488-1.923 2.735-1.905.264.019 1.673.681 3.14 1.464 2.106 1.125 2.656 1.545 2.564 1.902-.11.389-.047.427.285.186.332-.241.645-.219 1.352.079 1.158.48 1.173.497.743.963-.448.481-.238.545.519.153.396-.22.92-.133 2.261.326 2.683.919 7.417 1.404 9.648 1.001 4.396-.828 8.279-3.032 10.905-6.202.779-.937 1.577-1.69 1.791-1.675.511.036.491.316-.107 1.051-.58.703-.19.797.521.12.497-.478.595-.454 3.247 1.14 2.667 1.596 5.76 2.808 7.506 2.933.741.052.867.144.718.613-.212.646-.05.707.58.223.263-.196 1.371-.415 2.486-.501 2.83-.212 4.437-.924 6.977-3.108 1.182-1.024 2.284-1.855 2.416-1.846.148.011.518.17.819.356.522.335.52.368-.293 1.088-.46.413-.77.821-.694.909.062.071.512-.211.956-.626l.831-.751 2.097 1.24c1.16.695 3.592 1.877 5.424 2.652 3.168 1.317 3.526 1.409 7.341 1.78 4.849.494 7.75.204 12.49-1.261 4.267-1.333 5.946-2.818 4.737-4.21-.581-.67-1.608-.66-2.851.045-1.466.822-6.066 2.181-8.457 2.507-3.142.421-8.454-.09-11.001-1.048l-2.096-.794.815-.984c.434-.515 1.033-1.018 1.319-1.08.286-.063.54-.375.558-.639.021-.296.731-1.419 1.554-2.518 1.716-2.243 3.956-6.499 5.784-11.015.942-2.298 1.471-3.22 2.045-3.609 1.253-.853 1.149-2.415-.2-3.239-.681-.428-1.435-.532-4.18-.578-1.835-.048-4.84-.163-6.637-.275l-3.265-.182-4.451-7.941c-2.453-4.375-5.618-10.157-7.048-12.855-4.394-8.283-8.359-14.453-18.363-28.576-2.843-4.023-7.336-10.676-9.943-14.765a2042.152 2042.152 0 00-6.215-9.67c-.808-1.215-1.45-2.434-1.432-2.681.018-.247-.087-.403-.241-.332-.138.073-1.437-1.673-2.855-3.858l-2.597-3.988.299-8.38.314-8.361-.664-.907c-.361-.506-.703-1.06-.74-1.227-.17-.64-12.338-1.821-21.393-2.07zm9.504 3.24c-.496.46-.889.863-.891.895-.007.1-4.03-1.312-4.152-1.453-.076-.088.226-.149.673-.15.447-.002-.37-.159-1.812-.36-2.28-.295-1.998-.308 2.223-.058l4.83.295-.87.83zm1.343.443c-1.11 1.177-1.438 1.353-1.686.888-.204-.394 1.659-2.13 2.252-2.088.477.034.4.194-.566 1.2zm2.492.11c-.673.615-2.536 2.367-4.172 3.954-1.635 1.57-3.237 2.911-3.59 2.985-.352.058-.632.038-.626-.044.007-.099 1.075-1.147 2.382-2.294 1.308-1.164 2.4-2.31 2.417-2.557.017-.247.672-1.077 1.44-1.865 1.213-1.22 1.54-1.396 2.38-1.336l.972.07-1.203 1.088zm2.174-.77c-.008.115-.367.503-.77.821-.422.35-2.2 2.06-3.947 3.804-1.73 1.745-3.338 3.169-3.552 3.153-.56-.04-.219-.412 4.116-4.552 3.427-3.261 4.199-3.868 4.153-3.226zm1.45 2.666a2656.37 2656.37 0 01-4.012 3.783c-.87.83-1.654 1.37-1.88 1.288-.257-.101.873-1.327 3.285-3.57 2.038-1.889 3.554-3.418 3.422-3.427-.247-.018-2.718 2.138-6.283 5.472-1.368 1.309-2.981 2.103-2.938 1.495.018-.247 2.09-2.382 5.218-5.384l2.363-2.262 1.647.117 1.664.118-2.486 2.37zm-.433 2.35c-2.664 2.771-2.996 3.012-3.793 2.823-.44-.098.118-.736 2.793-3.191 4.057-3.73 4.735-3.483 1 .369zm2.452-.486c-.106.323-.849 1.23-1.631 1.984-1.086 1.063-1.57 1.343-2.043 1.243-.587-.124-.456-.33 1.567-2.468 2.111-2.214 2.673-2.422 2.107-.76zm-.162 2.039c-.34 1.067-.763 1.417-1.553 1.36-.66-.046-.66-.046.325-1.084 1.18-1.222 1.567-1.31 1.228-.276zm-13.621.17c-1.8 1.56-2.107 1.223-.32-.386.742-.658 1.438-1.138 1.546-1.03.091.122-.45.745-1.226 1.417zm-1.638.215c-.633.749-1.695 1.02-1.654.445.015-.214 1.805-1.178 2.255-1.213.05-.012-.206.333-.601.768zm-2.366.675a.627.627 0 01-.53.243c-.198-.014-.157-.127.102-.274.55-.291.649-.284.428.03zm16.472 6.53c-.128.174-1.848 1.77-3.829 3.548-7.78 6.954-15.955 14.805-15.995 15.365-.026.378.398-.005 5.22-4.722C81.388 29.606 87.77 23.91 88.03 24.21c.552.618-1.195 2.841-5.351 6.795-8.456 8.08-19.243 19.12-19.11 19.575.04.136 2.444-2.224 5.357-5.24 4.362-4.519 11.291-11.384 16.672-16.508l.978-.94-.794 1.846c-.454 1.026-1.06 2.107-1.38 2.415-.304.31-1.636 1.587-2.97 2.881-5.622 5.47-18.66 19.31-19.058 20.24-.317.738.734-.311 4.795-4.785 4.417-4.845 12.691-13.384 15.705-16.179l1.667-1.551-.38 1.147c-.294.872-1.415 2.198-4.914 5.768-7.642 7.807-20.831 22.363-20.716 22.834.04.152 1.773-1.643 3.843-3.976 8.871-9.952 20.478-22.289 20.723-22.007.184.212-.82 3.613-1.261 4.227-.274.36-2.267 2.534-4.45 4.826-6.892 7.265-20.023 22.635-19.868 23.258.037.168 1.44-1.402 3.127-3.465 6.188-7.613 20.903-24.061 21.192-23.71.046.053-.129.884-.382 1.875-.433 1.672-.727 2.081-5.56 7.64-6.764 7.788-12.445 14.56-15.725 18.775-3.7 4.764-8.67 11.785-8.578 12.123.037.168 1.586-1.822 3.443-4.419 4.21-5.868 7.4-9.974 12.482-16.012 3.96-4.695 12.933-15.152 13.215-15.38.071-.078.014.96-.13 2.289-.23 1.836-.431 2.566-.9 3.11-9.448 11.07-25.602 31.93-25.127 32.46.167.21-.252.742 3.987-5.075 4.572-6.305 11.2-14.763 16.995-21.726l4.435-5.323-.06 1.996-.059 1.997-2.54 3.342c-1.388 1.836-7.254 9.57-13.028 17.196-12.043 15.895-11.09 14.606-10.686 14.503.237-.066 8.288-10.589 24.279-31.709.95-1.255 1.818-2.285 1.933-2.276.115.008.15.92.088 2.023-.079 1.103-.063 3.204.032 4.666l.175 2.658-5.876 8.346c-3.24 4.582-8.23 11.635-11.097 15.631l-5.189 7.304-1.65.395c-.893.218-3.482.992-5.702 1.71-2.236.718-4.061 1.233-4.055 1.151.006-.083.436-.779.974-1.585.536-.788.9-1.49.84-1.577-.153-.176-2.355 2.859-2.387 3.303-.022.312-1.141.911-1.31.717-.029-.052.952-1.503 2.219-3.249 1.266-1.745 2.233-3.23 2.155-3.302-.184-.195-.13-.274-2.847 3.485-2.458 3.363-2.529 3.425-4.565 4.354-1.146.514-2.1.893-2.146.84-.045-.07 2.253-2.816 5.086-6.087 2.832-3.271 5.136-6.1 5.097-6.252-.04-.135-2.645 2.739-5.804 6.416-4.223 4.892-5.996 6.767-6.695 7.048-.527.194-.965.311-.96.229.018-.247 5.517-7.247 8.94-11.386 3.151-3.794 3.665-4.501 3.029-4.166-.378.188-6.285 7.341-9.275 11.213-1.33 1.708-2.454 3.066-2.515 2.996-.045-.07.076-.838.303-1.698.458-1.787.98-2.61 7.29-11.222 2.383-3.254 4.248-5.965 4.172-6.053-.06-.087-.78.721-1.583 1.772-2.305 3.077-7.37 10.026-8.187 11.274-.392.617-.772 1.07-.816 1-.045-.07.245-1.124.648-2.368.78-2.359 2.628-5.518 8.163-13.955 1.632-2.463 2.907-4.555 2.83-4.627-.198-.246-3.731 4.96-7.435 10.93-1.18 1.918-2.125 3.339-2.114 3.19.06-.855 1.7-4.806 2.476-5.942 2.904-4.274 5.913-8.41 8.443-11.62 1.583-2.003 2.814-3.702 2.737-3.79-.245-.282-6.29 7.424-9.395 11.965-.908 1.358-1.695 2.41-1.74 2.357-.138-.159 2.964-7.462 4.654-10.963 3.551-7.321 13.572-23.657 17.944-29.25 5.63-7.222 12.327-13.84 20.041-19.872 2.664-2.06 4.887-3.753 4.936-3.75.05.004.006.15-.14.338zm.792 10.971c-.097 1.366-.446 10.684-.777 20.682-.774 22.733-1.153 31.537-1.338 31.341-.322-.353-2.499-6.99-3.128-9.549-1.677-6.9-2.018-12.348-1.371-21.662.517-7.504.877-9.529 2.859-16.2.83-2.835 2.714-7.894 3.156-8.524.422-.582.745 1.624.599 3.912zm5.221-1.48l1.182 2.003-.899 2.4L95 37.917l-.519-1.542c-.352-1.1-.503-2.467-.486-4.566.003-1.67.11-2.952.237-2.86.126.091.75 1.078 1.4 2.183zm2.639 4.57c-.03.428-2.012 4.768-2.297 5.046-.123.107-.34-.339-.477-.977-.238-1.075-.161-1.45.68-3.722l.942-2.545.596.935c.326.536.569 1.082.556 1.263zm1.252 2.173c-.02.28-.567 1.696-1.215 3.122-1.3 2.917-1.26 2.804-.914 2.829.148.01.765-1.203 1.367-2.681.603-1.495 1.216-2.659 1.344-2.6.146.043.416.426.635.839.349.686.284.897-1.373 4.4-.97 2.015-1.843 3.573-1.934 3.45-.107-.123-.445-1.42-.74-2.863l-.574-2.637 1.277-2.82c1.257-2.771 1.276-2.803 1.713-2.193.255.365.435.858.414 1.154zm2.897 4.423c.064.27-.863 2.122-2.217 4.406l-2.351 3.95-.123-1.066c-.102-.9.188-1.707 1.77-5.1 1.892-4.016 1.892-4.016 2.342-3.356.271.383.517.88.579 1.166zm-7.354 2.834c3.079 14.192 3.556 32.136 1.157 43.276-.52 2.41-1.056 4.605-1.175 4.877-.136.288-.607.619-1.099.782l-.848.287.228-10.17c.133-5.597.298-16.98.362-25.326.128-14.808.207-18.01.42-17.747.06.087.51 1.905.955 4.02zm8.707-.439c-.012.165-1.211 2.361-2.651 4.905l-2.63 4.625-.249-1.39-.249-1.39 2.421-4.227 2.42-4.227.479.712c.254.382.47.844.459.992zm1.334 1.964c.355.587.658 1.22.646 1.385-.022.313-6.075 9.754-6.535 10.168-.124.107-.308-.568-.422-1.518l-.191-1.734 2.766-4.896c1.533-2.702 2.841-4.792 2.916-4.687.076.104.448.693.82 1.282zm2.403 4.156c.259.548-.201 1.425-3.763 7.273l-4.05 6.64-.305-2.684-.29-2.683 3.514-5.389 3.514-5.405.555.8c.283.45.668 1.09.825 1.448zm1.476 2.288l.754 1.261-4.72 7.7c-2.588 4.248-4.73 7.833-4.741 7.981-.098.92-.43-.923-.476-2.613l-.053-2.038 4.174-6.78c2.303-3.74 4.208-6.779 4.258-6.775.033.002.39.557.804 1.264zm3.437 5.206c10.958 16.077 15.719 23.626 19.418 30.735 1.383 2.662 4.418 8.17 6.698 12.202 2.295 4.033 4.099 7.303 3.972 7.228-9.25-5.421-18.632-9.926-25.071-12.038l-1.148-.38 2.678-3.199c3.169-3.809 3.205-3.856 2.876-3.88-.149-.01-1.533 1.529-3.092 3.419l-2.828 3.453-1.124-.262c-.619-.143-2.362-.549-3.876-.904-1.775-.425-4.596-.79-8.071-1.055l-5.336-.396.197-.68c.426-1.558 1.5-7.352 1.586-8.553.111-1.563.28-1.832 7.063-11.536 2.84-4.064 5.139-7.522 5.101-7.69-.055-.153-2.678 3.43-5.832 7.969l-5.753 8.239.018-2.81.035-2.809 5.548-7.691c5.11-7.128 6.816-9.702 5.491-8.291-.269.278-2.818 3.768-5.668 7.749l-5.183 7.221-.111-1.463-.127-1.48 4.988-8.195c2.738-4.502 5.053-8.19 5.152-8.183.099.007 1.154 1.471 2.399 3.28zM80.314 69.78l-.033 1.635-8.979 12.623-8.98 12.64-1.514.339c-.823.172-1.626.28-1.754.222-.113-.041 1.19-2.065 2.934-4.471 1.728-2.407 6.494-9.112 10.58-14.89 4.97-7.022 7.494-10.365 7.624-10.107.085.204.153 1.118.122 2.01zm.674 3.554c.1 1.148-.03 1.354-3.62 6.208-2.052 2.765-5.561 7.641-7.825 10.837-3.737 5.274-4.207 5.835-5.08 5.988-.503.097-1.051.124-1.18.065-.209-.08 3.33-5.137 14.436-20.668 1.526-2.124 2.855-3.816 2.965-3.741.112.057.251.662.304 1.311zm.701 2.944c.225 1.025.188 1.088-4.184 7.144a711.005 711.005 0 00-6.53 9.159c-1.145 1.671-2.124 3.09-2.159 3.12-.052.03-.672.135-1.373.217l-1.285.14.815-1.215c3.57-5.27 14.046-19.621 14.31-19.603.099.007.265.466.406 1.038zm.776 3.065l.39 1.268-2.875 3.632a379.753 379.753 0 00-5.583 7.259c-1.466 1.979-2.866 3.732-3.093 3.897-.209.15-.71.214-1.086.138-.686-.132-.61-.259 2.96-5.296 4.548-6.44 8.715-12.18 8.83-12.17.034.002.257.58.457 1.272zm.898 3.19c-.023.56-1.265 2.423-4.3 6.457-2.342 3.124-4.422 5.82-4.6 5.99-.194.167-.82.354-1.42.41l-1.05.108 1.137-1.556c4.053-5.533 9.812-12.696 10.026-12.45.122.141.22.628.207 1.04zm-2.195 7.12a726.06 726.06 0 00-3.682 4.963c-.384.518-2.419.952-2.386.491.012-.164 1.954-2.788 7-9.49l1.7-2.243.314.932.33.95-3.276 4.396zm3.931-2.201c-.01.363-4.255 6.278-5.185 7.254-.464.463-2.156.508-1.94.044.058-.129 1.564-2.204 3.34-4.591 3.002-4.037 3.253-4.3 3.51-3.72.174.344.291.782.275 1.013zm.72 1.97c-.013.197-.901 1.506-1.996 2.933-1.517 2.008-2.14 2.61-2.724 2.683-.952.114-.952.114 1.934-3.682 1.771-2.321 2.416-3.003 2.594-2.71.115.24.208.561.193.775zm.78 2.089c.363 1.166.36 1.216-.502 2.395-.845 1.163-.948 1.222-2.322 1.207l-1.422-.019 1.776-2.387c.971-1.32 1.843-2.399 1.925-2.393.099.007.342.554.544 1.197zm.956 2.846c.214.478.33.933.243.993-.071.078-.55.06-1.107-.03l-.982-.152.64-.864c.349-.471.674-.861.724-.858.05.004.268.416.482.91zm23.943 4.152c4.437 1.16 9.295 2.928 14.28 5.234 4.584 2.112 10.992 5.363 11.344 5.769.198.245-3.734.131-19.548-.532-10.631-.443-21.619-.762-23.957-.714l-1.625.033.303-4.245c.234-3.29.41-4.37.752-4.758.237-.298.424-.367.427-.185-.014.429.677.726 1.252.552.237-.066.78-.705 1.193-1.403.94-1.57.94-1.57 7.718-.972 3.389.307 5.764.675 7.861 1.221zm-24.256.704c.533.187.565.437.439 4.529-.07 2.377-.16 4.338-.195 4.369-.05.013-6.134-.123-13.57-.322-12.23-.325-19.925-.36-31.875-.186-2.322.05-4.24.029-4.287-.024-.216-.214 9.333-3.883 13.465-5.176 4.98-1.58 8.902-2.475 13.568-3.135 2.91-.405 4.491-.524 10.917-.777 2.225-.09 10.747.434 11.538.722zm61.263 17.393c-2.013 1.759-3.005 2.432-3.482 2.398-.56-.04-.272-.367 1.819-2.07 1.371-1.109 2.418-2.093 2.341-2.181-.077-.088-1.349.813-2.824 1.998-1.808 1.442-2.901 2.142-3.345 2.093-.56-.039-.36-.29 1.347-1.706 1.161-.959 2.252-1.642 2.582-1.619.329.024.914-.282 1.36-.73.623-.617 1.015-.771 1.905-.708l1.12.08-2.823 2.445zm2.627.071c-2.276 1.972-2.848 2.328-3.779 2.377l-1.114.07 2.923-2.455c2.431-2.042 3.072-2.443 3.797-2.392.856.061.82.108-1.827 2.4zm6.112-1.665c-.197.218-1.409 1.19-2.672 2.191-2.191 1.697-2.38 1.799-3.922 1.821l-1.609.051 2.666-2.34 2.668-2.357 1.631.116c1.417.101 1.577.179 1.238.518zm-17.648 1.373c-2.831 2.329-3.177 2.536-4.199 2.479l-1.105-.062 2.364-2.047c1.306-1.131 2.273-2.154 2.166-2.277-.106-.14-1.347.78-2.76 2.019-1.395 1.224-2.742 2.236-2.973 2.22-.263-.019.42-.781 1.621-1.836 1.132-1.011 1.95-1.813 1.818-1.822-.115-.008-1.265.803-2.529 1.804-2.312 1.787-2.33 1.802-4.219 1.816l-1.889.031.591-.636c.306-.342.912-.943 1.32-1.328.41-.401.671-.812.564-.935-.108-.124-.859.435-1.678 1.236l-1.478 1.466-3.126-.057c-4.993-.091-19.389-.67-32.029-1.272-22.242-1.071-51.233-1.3-62.085-.502-2.246.155-4.124.253-4.153.201-.288-.368-2.717-6.957-2.594-7.048.37-.321 30.708.285 44.639.897 5.578.248 17.828.74 27.224 1.095a5470.35 5470.35 0 0146.071 1.941l1.535.059-3.096 2.558zm4.546-2.223c.472.348-5.037 4.702-5.877 4.642-.51-.036-.131-.489 2.181-2.491 2.807-2.446 3.083-2.608 3.696-2.151zm-.46 2.977c-1.868 1.587-2.369 1.882-3.16 1.826l-.955-.068 2.669-2.142c2.249-1.824 2.732-2.104 3.159-1.826.459.298.296.501-1.713 2.21zm14.094-1.46c-.031.444-3.753 3.42-4.231 3.386-.363-.026.123-.57 1.635-1.802 2.075-1.704 2.628-2.029 2.596-1.584zm-1.054 2.488c-.277.625-.52.79-1.097.749l-.724-.068.966-.775c1.192-.924 1.274-.918.855.094zm-1.268 2.688c-.011.148-.428.664-.945 1.173-.855.848-1.058.917-2.508.813l-1.565-.111 1.111-.946c.794-.688 1.427-.974 2.293-1.044a94.09 94.09 0 011.416-.131c.133-.007.21.081.198.246zm-6.605.919c-1.06.933-1.315 1.03-2.551.942l-1.384-.098.991-.889c.848-.75 1.222-.888 2.414-.886.778.006 1.475-.027 1.559-.038.068-.028-.394.418-1.029.969zm2.085.016c-1.044.934-1.932 1.317-2.254.964-.245-.282 2.123-1.916 2.733-1.889.446.015.386.159-.479.925zm-5.572-.116c-.777.689-1.222.889-1.98.835l-.972-.069.851-.783c.779-.705 1.339-.897 2.563-.893.464 0 .386.16-.462.91zm-4.798-.044c-.614.486-1.369.862-1.715.837-.577-.041-.556-.106.398-.947.637-.567 1.272-.885 1.716-.837.691.049.69.066-.399.947zm2.086 0c-.527.425-1.228.739-1.574.715-.577-.041-.574-.074.257-.825.513-.46 1.146-.746 1.573-.699l.709.051-.965.758zm-8.814-.38c-.598.487-1.313.767-2.146.84l-1.266.108.867-.782c.568-.538 1.2-.807 1.863-.826.565-.026 1.13-.052 1.297-.073.15-.006-.105.307-.615.733zm1.943.155c-.531.475-1.146.745-1.575.715l-.707-.067.965-.758c.526-.409 1.227-.723 1.556-.7.593.043.592.059-.239.81zm2.487.177c-.655.599-1.096.749-1.838.696l-.987-.087.965-.758c.648-.499 1.243-.722 1.836-.679l.89.063-.866.765zm-9.443-.391c-.761.69-1.048.769-2.514.664l-1.647-.117.693-.662c.637-.583 1.275-.703 3.525-.675l.81.008-.867.782zm1.944.138c-.831.752-1.893 1.007-1.853.447.03-.411 1.518-1.314 2.127-1.27.544.038.523.103-.274.823zm-5.955-.308c-.796.721-1.547.8-5.858.658-2.363-.069-2.771-.148-2.485-.442.447-.464.133-.47-.713.016-.484.28-1.664.344-4.223.245-1.947-.089-3.619-.093-3.709 0-.088.077-.669.102-1.345.053-1.021-.072-1.164-.149-.97-.548.175-.368.057-.343-.62.104-.66.433-1.197.527-2.531.432l-1.68-.12 1.181-1.007 1.181-1.007 8.469.338c4.671.201 9.706.41 11.223.502l2.754.146-.674.63zm-23.811-.422c-.955.858-1.33 1.013-2.22.95l-1.07-.076.65-.781c.889-1.078.391-1.063-.763.029-.87.831-1.056.883-3.126.885-6.773.014-28.842.708-30.484.971-.602.09-.633.055-.293-.302.232-.231.333-.489.241-.594-.092-.106-.384.055-.688.364-.321.325-1.053.603-1.785.65-1.399.116-1.396.083.325-1.763.591-.635.98-1.203.888-1.309-.109-.107-.207-.13-.26-.068-.053.046-.7.76-1.418 1.536a73.073 73.073 0 01-1.417 1.536c-.146.188-2.885.291-2.872.11.01-.148 3.541-3.932 4.319-4.62.46-.414 16.144-.025 30.213.729 5.888.32 10.736.599 10.798.653.08.039-.385.535-1.038 1.1zm-42.73-.281c-2.29 2.417-2.518 2.583-3.717 2.679-.7.066-1.343.037-1.405-.034-.244-.282 4.785-5.116 5.386-5.189 2.34-.297 2.335-.231-.263 2.544zm-3.376-.009c-1.359 1.408-2.638 2.624-2.861 2.74-.206.101-.804.125-1.36.036l-.983-.153 2.328-2.695 2.327-2.679 1.499.107 1.515.108-2.465 2.536zm97.73 5.636c-.33.44-1.372 1.589-2.298 2.499-1.673 1.65-1.708 1.664-3.124 1.563l-1.45-.103 2.823-2.445c1.713-1.498 3.16-2.52 3.663-2.616 1.073-.188 1.156.049.386 1.102zm-101.899-8.016c-.111.174-1.18 1.454-2.32 2.828l-2.099 2.496-1.492.026c-.944.016-1.402-.066-1.292-.224 1.294-1.892 4.076-5.382 4.38-5.459.22-.068 1.017-.11 1.727-.076 1.006.055 1.28.157 1.096.409zm2.504.178c-.128.173-1.177 1.421-2.332 2.761-1.786 2.056-2.208 2.406-2.9 2.357-.445-.032-.802-.123-.796-.206.005-.082.988-1.318 2.184-2.771 2.027-2.436 2.221-2.604 3.111-2.54.692.049.9.163.733.399zm91.595 9.019c-2.74 2.434-3.411 2.8-3.979 2.164-.123-.124 1.067-1.263 2.666-2.555 2.038-1.657 3.08-2.327 3.557-2.293.593.042.286.4-2.244 2.684zm3.175.292c-3.033 2.596-3.206 2.699-4.359 2.617l-1.202-.086 1.311-1.213c4.785-4.422 4.489-4.211 6.004-4.103l1.384.098-3.138 2.687zm-104.023-9.804c-.01.131-.9 1.474-1.951 2.986l-1.951 2.755-1.34-.013c-.762-.004-1.3-.109-1.242-.237.059-.128.947-1.437 1.947-2.92 1.81-2.65 1.864-2.696 2.992-2.731.63-.005 1.227-.028 1.345-.053.133-.007.21.065.2.213zm1.292 2.324c-2.816 3.735-2.603 3.536-3.6 3.349l-.882-.162 1.584-2.252c2.578-3.653 2.347-3.438 3.55-3.352l1.12.079-1.772 2.338zm93.98 7.138c-2.342 2.198-3.041 2.711-3.667 2.666-.412-.029-.994.012-1.281.091-.287.079.943-1.157 2.744-2.732 2.862-2.524 3.382-2.851 4.189-2.794l.923.066-2.908 2.703zm3.531-.294c-1.606 1.391-2.737 2.17-3.116 2.143-.313-.022-.925.199-1.341.467-1.845 1.257-1.142.216 1.517-2.241 2.87-2.64 2.991-2.714 4.211-2.643l1.252.089-2.523 2.185zm-102.163-9.176c-.026.13-.9 1.474-1.985 3.001l-1.954 2.787-1.274-.008-1.291-.009 1.844-2.878c1.658-2.594 1.91-2.874 2.762-2.979 1.401-.148 1.93-.127 1.898.086zm93.621 7.526c-.567.522-1.949 1.796-3.099 2.839-1.876 1.702-2.169 1.863-3.191 1.79l-1.12-.08 3.264-2.827c2.912-2.521 3.365-2.836 4.221-2.775l.956.068-1.031.985zm.164 1.88c-2.293 1.987-3.304 2.692-3.814 2.656-.594-.043-.269-.416 2.431-2.754 2.276-1.971 3.304-2.692 3.798-2.657.61.044.285.417-2.415 2.755zm3.408-1.345c-4.147 3.823-4.603 4.187-5.279 4.139-.609-.043-.285-.417 2.415-2.755 1.87-1.62 3.337-2.689 3.667-2.666.445.032.294.286-.803 1.282zm-102.254-5.346c-1.006 1.566-1.966 2.953-2.137 3.04-.433.267-1.849.149-1.829-.13.01-.132.537-1.268 1.16-2.564 1.123-2.284 1.44-3.254.923-2.745-.124.123-.796 1.415-1.495 2.87-1.538 3.231-1.876 3.323-3.538.856-.645-.939-1.407-2.101-1.702-2.602l-.548-.915 1.9-.179c1.568-.153 7.419-.481 8.694-.489.216-.001-.364 1.165-1.428 2.858zm86.88 6.402c-3.088 2.674-4.142 3.293-4.461 2.659-.058-.12.96-1.387 2.254-2.817 2.497-2.749 2.445-2.719 5.215-2.787.216-.017-1.138 1.325-3.008 2.945zm4.287-1.845c-3.943 3.754-5.168 4.692-6.009 4.632-.79-.056-.682-.18 2.425-2.886 2.416-2.077 3.445-2.814 3.956-2.778.675.048.675.048-.372 1.032zm.807 1.926c-2.837 2.642-3.599 3.101-4.655 2.827-.39-.11.169-.748 2.491-2.898 2.765-2.565 3.061-2.759 4.034-2.706l1.055.058-2.925 2.719zm1.68.12c-1.779 1.494-3.387 2.686-3.584 2.672-.214-.016.95-1.256 2.562-2.729 2.073-1.919 3.121-2.688 3.584-2.671.528.021.044.549-2.562 2.728zm-9.91-3.12c-.008.098-1.444 1.435-3.191 2.948-2.646 2.292-3.342 2.755-4.033 2.706-.791-.057-.683-.181 2.284-2.781 1.712-1.499 3.379-2.819 3.702-2.928.711-.231 1.256-.209 1.238.055zm2.419.437c-2.55 3.026-4.329 4.752-4.698 4.593-.24-.116-.775-.287-1.212-.417-.763-.22-.762-.236 1.85-2.498 2.258-1.956 2.761-2.267 3.551-2.211.824.059.87.112.509.533zm-8.096 2.317l-3.335 2.888-1.754-.009-1.753-.026 3.457-2.978 3.441-2.98 1.631.116 1.63.116-3.317 2.873zm-6.768-.283c-1.716 1.548-3.383 2.868-3.703 2.944-.321.093-1.048.074-1.605-.015l-.999-.154 2.842-2.708c2.56-2.464 2.943-2.734 4.008-2.807 2.763-.2 2.785-.281-.543 2.74zm2.652.188c-2.768 2.367-3.445 2.814-4.395 2.896l-1.116.102 3.423-2.964c3.071-2.676 3.505-2.959 4.378-2.897l.972.069-3.262 2.794zm-4.895-1.936c-5.156 4.975-5.051 4.899-6.412 4.72l-1.28-.174 2.877-2.722c2.944-2.751 3.377-3.017 5.028-2.95l.907.049-1.12 1.077zm-3.312-.219c-.447.464-1.868 1.818-3.143 2.984-2.337 2.116-2.353 2.115-3.753 2.015-.89-.063-1.344-.195-1.233-.352.771-1.07 5.397-5.354 5.902-5.467.353-.074 1.167-.115 1.828-.085l1.204.053-.805.852zm-3.762-.417c-2.823 2.908-5.269 5.165-5.74 5.28a6.586 6.586 0 01-1.4.116c-.791-.04-.791-.04.813-1.646 3.64-3.693 4.516-4.358 5.669-4.276 1.005.071 1.052.108.658.526zm-5.639 2.46c-2.868 2.838-2.902 2.852-4.137 2.764l-1.252-.089.745-.707c.409-.385 1.743-1.679 2.935-2.851 2.119-2.081 2.222-2.14 3.408-2.056l1.22.087-2.919 2.852zm-.72-2.664c-.007.082-1.242 1.383-2.738 2.864-2.565 2.546-2.791 2.695-3.813 2.622-.576-.041-1.066-.142-1.061-.207.008-.116 2.783-3.043 4.31-4.506.322-.324.44-.58.275-.592-.165-.012-1.403 1.107-2.762 2.515-1.375 1.407-2.669 2.605-2.923 2.686-.255.098-1.02.143-1.68.096l-1.22-.071.692-.645c.374-.37.615-.733.522-.823-.075-.104-.527.194-1.007.656-.836.817-.92.844-3.482.777-1.437-.052-3.308-.053-4.138-.013-1.08.039-1.438-.036-1.291-.241.274-.361-.099-.47-.519-.153-.159.138-.913.266-1.628.314-1.265.092-1.329.055-1.014-.419.187-.301.457-.596.61-.668.156-.088.304-.309.316-.473.012-.165-.488.114-1.105.632-.934.794-1.324.931-2.296.862-.626-.045-1.148-.148-1.142-.247.006-.082.637-.798 1.386-1.555.75-.757 1.35-1.524 1.313-1.692-.055-.169-.598.255-1.193.94-2.123 2.379-2.558 2.679-3.794 2.591l-1.137-.081 2.067-2.284c1.133-1.259 2.155-2.36 2.292-2.433.26-.147 9.105-.443 18.371-.594 6.415-.105 7.805-.089 7.788.142zm58.924 5.816c-.004.049-.233.248-.528.442-.452.298-.451.282-.074-.121.396-.452.62-.568.602-.321zm-85.986-5.246c-.006.082-.91 1.142-1.988 2.339-1.617 1.786-2.162 2.227-2.945 2.304-.536.077-1.065.073-1.225-.005-.403-.161 3.706-4.614 4.343-4.718.887-.135 1.827-.085 1.815.08zm-3.066.046c-.005.066-.908 1.126-2.022 2.353-1.922 2.112-2.062 2.218-3.1 2.144l-1.104-.078.849-.982c.469-.545 1.3-1.511 1.876-2.165.938-1.091 1.64-1.421 3.015-1.422.265.002.492.068.486.15zm-3.263.247c-.13.19-1.031 1.233-2.005 2.355l-1.785 2.039-1.548-.11c-1.433-.102-1.513-.141-1.102-.575.643-.649 3.366-3.547 3.475-3.688.07-.061.707-.165 1.422-.213.732-.047 1.415-.098 1.548-.105.117-.025.124.108-.005.297zm-3.73.082c-.007.082-.836 1.032-1.856 2.1-1.505 1.613-2.01 1.957-2.86 2.029-.549.044-1.25.11-1.516.14-.401.054-.285-.185.503-1.022.555-.589 1.47-1.566 2.026-2.171.54-.607 1.206-1.138 1.458-1.186.672-.134 2.256-.055 2.244.11zm-3.561.243c-.145.171-1.06 1.164-2.01 2.188-1.541 1.643-1.888 1.867-2.834 1.898-.598.024-1.091-.028-1.086-.093.004-.066.785-1.036 1.76-2.174 1.716-2.011 2.062-2.218 3.648-2.171.612.011.738.102.522.352zm-3.135-.158c-.006.083-.822 1.083-1.832 2.251-1.44 1.618-2.001 2.057-2.528 2.02-.775-.055-.813.024 1.112-2.369.726-.89 1.532-1.743 1.806-1.872.514-.244 1.46-.276 1.442-.03zm-3.636 1.776c-1.96 2.407-2.206 2.604-3.588 2.721-1.2.096-1.232.094-.86-.491 1.177-1.868 2.89-3.846 3.428-3.957.353-.074 1.052-.123 1.547-.105l.909.032-1.436 1.8zm-2.216-1.663c-.006.082-.724 1.089-1.602 2.267-1.539 2.073-2.234 2.537-3.288 2.23-.358-.092-.22-.412.675-1.573 2.225-2.884 2.543-3.159 3.416-3.097.444.032.803.107.799.173zm106.08 7.884c-.265.229-.603.321-.776.193-.426-.295-.033-.697.675-.647.511.037.524.087.101.454zm-110.42-5.531c-1.038 1.316-1.974 2.373-2.106 2.364-.428-.03-1.107-1.187-.928-1.604.098-.225.688-1.059 1.274-1.861 1.06-1.396 1.146-1.439 2.365-1.353l1.252.09-1.857 2.364zm-4.893-1.737c-.37.552-.405.566-.897.035-.523-.55-.523-.55.261-.643 1.02-.126 1.065-.073.636.608zm2.61.533c-.44.614-.936 1.306-1.085 1.527-.238.33-.384.287-.939-.299-.613-.688-.626-.739-.117-1.612.49-.841.627-.898 1.73-.819l1.203.085-.791 1.118zm97.836 6.95c-1.579 1.475-1.63 1.504-2.685 1.429l-.955-.068 1.088-1.097c1.051-1.049 1.307-1.147 3.439-1.326.149-.006-.25.479-.887 1.062zm2.584-.478c-.266.246-1.061.718-1.713 1.036l-1.232.557.749-.757c1.106-1.112 1.539-1.379 2.132-1.336.527.037.526.054.064.5zm-6.554-.5c-.031.428-1.94 1.896-2.418 1.862-.708-.05-.625-.292.472-1.272.848-.75 1.982-1.1 1.946-.59zm.847 1.119c-.967 1.023-2.144 1.518-2.101.909.029-.411 2.273-2.153 2.734-2.121.412.03.296.253-.633 1.212zm-3.6-.355l-.918.794-1.784-.755c-.981-.401-1.845-.826-1.903-.946-.057-.12 1.152-.133 2.702-.039l2.819.167-.916.779zm-16.446.069c-1.446 1.468-2.813 2.297-4.897 2.975-1.069.354-.96.229 1.689-2.096 2.436-2.125 2.939-2.453 3.73-2.396l.922.065-1.444 1.452zm-5.891-1.213c-.216.249-1.41 1.437-2.619 2.608-1.936 1.846-2.336 2.116-3.143 2.058-.495-.035-.918-.131-.911-.23.02-.28 4.833-4.634 5.325-4.797a3.556 3.556 0 011.101-.12c.594.026.624.077.247.481zm3.087 1.063c-.661.68-1.866 1.785-2.694 2.487-1.372 1.142-1.629 1.257-3.12 1.266l-1.607.018 1.207-1.138c4.314-4.091 4.314-4.091 5.929-3.976l1.499.106-1.214 1.237zm-9.13-1.527c-.01.148-.816 1-2.934 3.066-1.031 1.001-1.049 1.016-2.113.61l-1.062-.423 1.604-1.606c1.425-1.403 1.788-1.625 2.852-1.682.682-.05 1.332-.103 1.448-.112.133-.007.212.049.205.147zm2.707 1.053c-3.337 3.152-4.037 3.681-4.713 3.633-1.547-.127-1.439-.483.752-2.658l2.14-2.147 1.417.101 1.416.101-1.012.97zm-7.398.184c-.798.754-1.526 1.446-1.65 1.553-.108.125-.661-.014-1.22-.302-1.103-.558-1.103-.558.549-2.127.638-.6.943-.694 2.244-.601l1.516.108-1.439 1.369zm-5.95-1.085c-.293.409-.494.444-1.121.185-1.109-.476-.933-.86.369-.768 1.021.073 1.083.127.753.583zm2.47.656c-1.005.871-1.106.896-1.772.485-.666-.411-.678-.478-.242-1.026.38-.452.752-.558 1.773-.485l1.318.094-1.076.932zm-10.606-.309c-.989 1.087-4.079 3.331-4.279 3.118-.136-.175 3.282-3.768 3.831-4.043.257-.114.678-.216.958-.196.413.012.333.205-.51 1.121zm-4.314-1.035c-.006.082-1.072 1.329-2.348 2.743-2.12 2.33-2.435 2.572-3.275 2.512l-.924-.049.99-1.12c3.833-4.291 3.921-4.368 4.761-4.308.445.032.803.123.796.222zm.815 2.506c-1.972 2.108-2.446 2.488-3.468 2.663-.653.102-1.236.144-1.282.091-.06-.071 1.005-1.318 2.348-2.744 2.366-2.527 2.504-2.616 3.575-2.54l1.104.079-2.277 2.451zm-8.554-.312l-2.198 2.49-1.21-.219c-.669-.13-1.27-.289-1.348-.36-.122-.142 1.764-2.223 3.378-3.729.78-.721 1.102-.831 2.24-.75l1.334.095-2.197 2.473zm5.004-1.926c-.16.171-1.205 1.353-2.322 2.613-2.016 2.271-2.033 2.286-3.269 2.198-1.466-.104-1.507.009 1.296-3.082 2.03-2.237 2.03-2.237 3.315-2.146.956.068 1.197.168.98.417zm-10.055-.616c-.006.082-.622.832-1.394 1.67-1.042 1.149-1.496 1.481-1.901 1.353-.29-.104-.59-.307-.664-.444-.175-.327 1.322-2.288 1.991-2.62.516-.261 1.988-.239 1.968.041zm1.65 2.168c-1.108 1.144-2.053 2.086-2.086 2.084-.345-.025-1.766-.771-1.756-.903.008-.115.712-.941 1.537-1.825 1.523-1.628 1.54-1.627 2.907-1.529l1.383.098-1.985 2.075zm-7.484-2.319c-.008.115-.228.414-.495.676-.444.415-.544.424-1.14-.048-.611-.474-.624-.524-.117-.67.678-.217 1.768-.189 1.752.042zm2.115 1.225c-.977 1.154-.994 1.17-1.756.702-.89-.526-.887-.559-.199-1.387.433-.498.788-.605 1.728-.555l1.188.068-.961 1.172zm-11.783-.541c-.646.467-1.232.789-1.293.718-.214-.247 1.592-1.672 2.036-1.624.264.019-.01.363-.743.906zm-1.634.396c-.614.717-1.556 1.378-2.494 1.774-1.689.69-1.685.641.26-1.553 1.152-1.307 1.43-1.485 2.27-1.425l.955.068-.991 1.136zm-2.47-.209c-.397.468-1.065 1.247-1.462 1.715-.706.843-1.284 1.05-1.547.568-.058-.12.445-.911 1.116-1.723.96-1.172 1.397-1.488 1.924-1.45l.692.049-.722.841zm-2.053.019c-.277.394-.734 1.007-1.004 1.302l-.503.559-1.232-1.063c-1.42-1.226-1.558-1.616-.536-1.543.395.028.682.181.67.345-.011.165.274.119.62-.088.345-.207 1.069-.37 1.58-.334l.922.066-.517.756zM141.428 149.027c-.571.572-5.191 1.748-8.297 2.122-5.125.594-9.837-.436-16.322-3.527-1.842-.876-2.661-.768-4.148.581-3.592 3.25-7.799 4.67-12.792 4.331-4.564-.308-9.35-1.906-14.312-4.773-1.384-.793-2.826-1.474-3.205-1.501-.494-.035-1.083.336-2.047 1.309-3.778 3.766-5.538 4.765-9.78 5.522-4.511.803-7.84.351-13.215-1.834-2.51-1.022-2.76-1.239-2.24-1.78.518-.542.105-.555-.578-.025-.49.379-.685.315-2.808-1.027-1.25-.8-2.61-1.475-3.005-1.504-.478-.034-1.544.519-3.147 1.645-1.341.93-3.83 2.406-5.567 3.308-2.578 1.321-3.153 1.727-3.19 2.253-.087 1.218.71 1.407 2.555.612 1.589-.681 4.76-2.423 6.581-3.599.728-.461.78-.474.385-.056-.268.279-1.882 2.016-3.623 3.91-1.74 1.877-3.653 3.874-4.293 4.49-.639.599-1.095 1.195-.987 1.302.214.247.037.416 6.416-6.389 2.706-2.9 5.008-5.233 5.123-5.225.116.008.4.194.635.392.39.342.205.61-1.675 2.593-3.6 3.812-4.843 5.228-4.58 5.247.215.015 5.054-4.932 6.628-6.804.396-.452.43-.449 1.446.152.572.339 1.044.686 1.037.785-.006.082-1.521 1.827-3.352 3.83-1.833 2.019-3.264 3.753-3.172 3.858.091.106.315-.01.514-.244.198-.234 1.762-1.958 3.485-3.837 3.053-3.354 3.14-3.414 3.843-3.05.399.21.75.401.813.438.062.054-.699.976-1.67 2.064-3.365 3.779-4.65 5.325-4.498 5.501.078.072 1.347-1.244 2.824-2.924 1.477-1.665 2.954-3.346 3.276-3.686.539-.59.622-.601 1.817-.169.678.247 1.255.503 1.25.585-.006.083-1.24 1.351-2.735 2.832-1.496 1.481-2.666 2.787-2.574 2.892.075.105.314.006.53-.226.197-.218 1.5-1.531 2.853-2.873l2.494-2.468 1.065.39c.565.205 1.124.493 1.215.599.091.122-.951 1.272-2.318 2.563-1.383 1.291-2.55 2.564-2.618 2.824-.155.551-.332.704 3.049-2.595 2.686-2.62 2.995-2.763 4.672-2.131.58.207.486.382-1.648 2.677-2.01 2.173-2.558 2.911-2.18 2.938.066.004 1.23-1.219 2.613-2.741l2.48-2.751 1.632.116c.889.064 1.608.198 1.601.296-.006.083-1.13 1.21-2.477 2.47-1.35 1.276-2.579 2.495-2.71 2.717-.705 1.058.172.376 3.051-2.395l3.163-3.033 1.961-.34c1.072-.171 1.99-.271 2.036-.218.03.051-.581.719-1.347 1.475-2.56 2.463-5.29 5.46-5.12 5.638.075.104.44-.134.763-.491 4.348-4.784 6.86-7.036 8.736-7.812 1.637-.677 4.594-2.898 6.09-4.61l.738-.841.871.558.889.543-4.89 5.423c-2.68 2.985-4.813 5.512-4.738 5.616.092.106.206.131.26.068.038-.063 2.178-2.441 4.749-5.301 2.553-2.844 4.81-5.23 4.995-5.283.186-.053.803.123 1.33.392 1.007.502 1.007.502.451 1.107-.321.325-1.918 2.063-3.603 3.862-4.465 4.808-5.059 5.477-4.888 5.638.06.087 2.203-2.109 4.732-4.839 4.967-5.352 4.656-5.159 6.577-4.245l.722.333-1.328 1.211c-5.65 5.171-7.106 6.556-7.112 6.869.003.183.542-.176 1.234-.821.675-.647 2.695-2.504 4.447-4.099l3.222-2.929 1.554.508 1.554.491-2.623 2.426c-3.243 2.993-4.8 4.635-4.617 4.847.077.088.498-.246.945-.71.447-.464 2.17-2.111 3.802-3.632l2.979-2.781 1.14.263c.636.144 1.217.351 1.325.458.109.107-1.163 1.455-2.849 3.039-4.041 3.747-4.273 3.978-3.927 4.003.148.01 1.95-1.565 3.972-3.471 3.904-3.674 4.11-3.775 5.999-3.095.565.205.261.514-3.112 3.251-2.039 1.657-3.666 3.112-3.59 3.2.077.089 1.984-1.347 4.266-3.169 3.69-2.995 4.262-3.351 5.274-3.378l1.128-.035-3.918 3.408c-2.17 1.88-3.826 3.515-3.72 3.655.107.123 2.054-1.408 4.318-3.447 3.925-3.507 4.222-3.717 6.061-4.198 1.047-.29 2.128-.593 2.364-.659.238-.082-1.271 1.348-3.374 3.216-2.086 1.852-3.793 3.5-3.789 3.683-.014.197 1.282-.802 2.857-2.228 4.331-3.859 10.449-8.864 10.811-8.822.18.03.79.288 1.315.59l.989.534-2.346 1.784c-2.764 2.085-9.817 8.363-9.635 8.591.061.071 2.029-1.526 4.36-3.559 2.313-2.035 5.129-4.381 6.196-5.181 1.714-1.284 2.056-1.425 2.516-1.144.284.185 1.589.692 2.866 1.13l2.343.812-3.702 2.928c-2.035 1.608-3.572 2.97-3.411 3.031.161.061 1.258-.688 2.419-1.647 1.161-.959 2.83-2.312 3.704-2.961l1.591-1.193 3.201.394c3.019.38 5.11.314 8.679-.275.386-.072-.592.635-2.197 1.546-3.401 1.958-3.175 1.808-2.992 2.036.076.088 1.726-.753 3.71-1.885 3.419-1.973 4.889-2.629 6.153-2.704 1.014-.06 2.678-1.099 2.998-1.87.296-.674.261-.875-.231-1.406-.723-.779-1.79-.905-2.416-.255z"/><path d="M119.407 153.214c-1.837 1.159-7.286 5.6-7.33 5.994-.032.212 1.135-.597 2.544-1.787 3.325-2.756 5.171-4.031 5.748-3.99a.43.43 0 00.475-.396c.041-.575-.259-.547-1.437.179zM75.704 156.386c-2.723 2.898-4.974 5.45-5.025 5.695-.067.243.262.035.728-.461.466-.496 2.707-2.9 5.033-5.347 2.31-2.448 4.316-4.571 4.462-4.759.196-.201.19-.334.008-.347-.165-.012-2.5 2.336-5.206 5.219zM112.191 163.185c-.326.158-1.444.972-2.499 1.839-2.108 1.702-4.988 3.085-7.646 3.673-1.245.291-2.588.312-5.026.138-4.166-.313-6.754-1.175-10.707-3.557-1.508-.918-3.124-1.711-3.552-1.741-.593-.042-1.132.316-2.465 1.61-1.906 1.882-4.823 3.311-7.946 3.932-2.083.414-8.32.119-12.656-.603-2.374-.384-2.572-.382-2.89.125-.69 1.075-.018 1.421 4.413 2.199 9.236 1.667 15.704.589 19.952-3.275l1.77-1.594 2.106 1.34c4.308 2.738 7.848 3.949 12.592 4.287 5.239.373 9.42-.917 13.406-4.106l2.125-1.717 1.861.843c3.996 1.773 10.361 2.838 15.954 2.641 4.632-.166 5.553-.547 5.153-2.146-.216-.909-.988-1.228-2.393-1.031-2.293.35-8.08.235-11.028-.223-3.276-.497-4.444-.829-7.453-2.052-2.35-.944-2.317-.942-3.071-.582zM78.666 60.37c-.44.613-3.696 5.177-7.228 10.134-5.28 7.413-14.664 20.388-16.459 22.807-.256.345-.342.62-.194.631.149.01.668-.548 1.164-1.223 6.346-8.677 9.212-12.657 15.871-22.005 4.27-6.013 7.758-11.057 7.718-11.192-.039-.152-.43.234-.872.848zM78.867 64.535c-.257.345-3.658 5.097-7.556 10.541a2261.055 2261.055 0 01-11.297 15.65c-3.996 5.437-5.406 7.57-4.028 6.113 1.701-1.797 23.691-32.528 23.477-32.775-.077-.088-.34.125-.596.47zM50.957 69.344c-1.468 2.012-3.396 5.15-3.333 5.418.04.152 1.043-1.166 2.211-2.918 1.168-1.752 2.071-3.276 1.994-3.347-.077-.088-.468.297-.872.847zM105.659 78.663c-6.032 7.276-6.05 7.308-5.883 7.519.076.088 2.657-2.904 5.719-6.605 6.23-7.51 6.177-7.465 5.847-7.488-.115-.008-2.677 2.951-5.683 6.574zM110.57 77.821c-2.785 3.076-8.467 9.865-8.486 10.129-.034.477.666-.284 3.437-3.625 1.611-1.936 4.028-4.724 5.339-6.152 1.326-1.427 2.409-2.673 2.414-2.755.033-.461-.656.151-2.704 2.403zM112.367 81.422c-4.152 4.6-7.43 8.55-7.353 8.853.055.17.803-.571 1.674-1.65 1.253-1.548 6.677-7.743 8.345-9.543.197-.2.205-.316.024-.329-.148-.01-1.342 1.178-2.69 2.67zM116.003 82.21c-2.215 2.737-6.276 7.921-6.646 8.457-.187.301-.182.467-.017.478.148.011.486-.312.746-.707.244-.413 2.101-2.778 4.15-5.278 2.033-2.5 3.689-4.599 3.695-4.681.034-.477-.604.106-1.928 1.731zM115.681 88.124c-3.19 4.338-4.097 5.678-3.8 5.7.148.01.542-.408.914-.977.353-.537 1.712-2.425 3.01-4.135 1.28-1.711 2.319-3.275 2.281-3.443-.054-.169-1.14 1.126-2.405 2.855z"/></g><defs><clipPath id="clip0"><path fill="#fff" transform="rotate(4.073 5.936 166.954)" d="M0 0h171.618v167.161H0z"/></clipPath></defs></svg>