<svg width="40" height="40" viewBox="0 0 40 40" fill="none" xmlns="http://www.w3.org/2000/svg">
<rect x="1" y="6" width="34" height="28" fill="#6BDBCF"/>
<rect x="30" y="16" width="9" height="7" fill="#F8C34B"/>
<path d="M39.1305 15.6525H36.5218V6.08731C36.5218 5.60707 36.1324 5.21777 35.6523 5.21777H9.56523C9.08508 5.21777 8.6957 5.60707 8.6957 6.08731C8.6957 6.56754 9.08508 6.95684 9.56523 6.95684H34.7827V15.6525H30.4348C29.9547 15.6525 29.5653 16.0418 29.5653 16.522V23.4785C29.5653 23.9587 29.9547 24.348 30.4348 24.348H34.7827V33.0436H1.73914V6.95684H4.34781C4.82797 6.95684 5.21734 6.56754 5.21734 6.08731C5.21734 5.60707 4.82797 5.21777 4.34781 5.21777H0.869531C0.389375 5.21777 0 5.60707 0 6.08731V33.9134C0 34.3936 0.389375 34.7829 0.869531 34.7829H35.6521C36.1323 34.7829 36.5216 34.3936 36.5216 33.9134V24.3482H39.1303C39.6105 24.3482 39.9998 23.9589 39.9998 23.4786V16.5221C40 16.0418 39.6106 15.6525 39.1305 15.6525ZM38.2609 22.609H35.6522H31.3044V17.3916H35.6522H38.2609V22.609Z" fill="#035A52"/>
<path d="M7.80858 5.91729C7.79811 5.86166 7.78076 5.80682 7.75904 5.75471C7.73733 5.70166 7.71037 5.65119 7.67904 5.60424C7.64779 5.55643 7.61131 5.51205 7.57123 5.47205C7.53123 5.43205 7.48686 5.39557 7.43904 5.36424C7.39209 5.33291 7.34162 5.30596 7.28858 5.28424C7.23639 5.26252 7.1817 5.24596 7.12608 5.23471C7.01389 5.21213 6.89912 5.21213 6.78693 5.23471C6.73131 5.24604 6.67647 5.26252 6.62436 5.28424C6.57131 5.30596 6.521 5.33291 6.47404 5.36424C6.42615 5.39557 6.38178 5.43205 6.34178 5.47205C6.30178 5.51205 6.26529 5.55643 6.23397 5.60424C6.20178 5.65119 6.17569 5.70166 6.15397 5.75471C6.13225 5.80689 6.11483 5.86166 6.10451 5.91729C6.09303 5.97291 6.08701 6.03033 6.08701 6.08682C6.08701 6.14338 6.09303 6.20072 6.10444 6.25635C6.11475 6.31197 6.13225 6.36682 6.15397 6.41893C6.17569 6.47197 6.20178 6.52244 6.23397 6.56939C6.26529 6.61721 6.30178 6.66158 6.34178 6.70158C6.38178 6.74158 6.42615 6.77807 6.47404 6.80939C6.521 6.84072 6.57139 6.86768 6.62436 6.88939C6.67662 6.91111 6.73131 6.92853 6.78693 6.93893C6.84256 6.95025 6.89998 6.95635 6.95647 6.95635C7.01287 6.95635 7.07037 6.95025 7.126 6.93893C7.18162 6.92846 7.23647 6.91111 7.2885 6.88939C7.34154 6.86768 7.39201 6.84072 7.43897 6.80939C7.48678 6.77807 7.53115 6.74158 7.57115 6.70158C7.61123 6.66158 7.64779 6.61721 7.67897 6.56939C7.71029 6.52244 7.73725 6.47197 7.75897 6.41893C7.78068 6.36674 7.79811 6.31197 7.8085 6.25635C7.81983 6.20072 7.82592 6.1433 7.82592 6.08682C7.826 6.03033 7.8199 5.97291 7.80858 5.91729Z" fill="#035A52"/>
<path d="M33.9132 18.2607C32.9542 18.2607 32.174 19.0409 32.174 19.9999C32.174 20.9589 32.9542 21.739 33.9132 21.739C34.8721 21.739 35.6523 20.9589 35.6523 19.9999C35.6523 19.0409 34.8721 18.2607 33.9132 18.2607Z" fill="#035A52"/>
</svg>
