<svg width="216" height="169" fill="none" xmlns="http://www.w3.org/2000/svg"><g clip-path="url(#clip0)" fill="#FEFEFE"><path d="M95.65.796c-5.048-.688-10.06-.941-15-.724.649.87 1.298 1.702 1.983 2.57-.108.399-.252.87-.433 1.376a77.856 77.856 0 0112.91.725c43.81 6.01 74.568 46.703 68.546 90.69-.829 6.083-2.307 11.948-4.399 17.487l1.082-.579c.757 1.122.902 2.063.757 2.751.505.036 1.01.109 1.479.217a77.663 77.663 0 002.704-8.182c-.36.109-.685.181-1.046.29 0-.435-.18-1.231-.721-.941-.649-1.014.757-2.643 1.983-2.571.217.217.361.398.505.579a93.282 93.282 0 001.587-8.507c6.31-46.233-25.89-88.845-71.937-95.18zm60.254 119.799c-9.375 18.681-25.674 32.982-45.109 39.861-.036.832-.397 1.556.432 2.679-1.766-.109-3.858.796-5.048-1.195a79.532 79.532 0 01-17.596 2.969c-.073.651-.073 1.339.865 2.317-3.317 1.81-6.382.724-7.14-2.245-2.956-.072-5.95-.289-8.978-.724-43.811-6.01-74.57-46.703-68.547-90.69a80.107 80.107 0 019.303-28.131c-.144-1.267-1.082-1.847-1.479-2.897-.144-.072-.252-.18-.396-.325.108-.073.18-.145.252-.218-.072-.362-.072-.724 0-1.194.253 0 .541.036.794.036.144-.145.324-.254.576-.362.289.036.541.217.794.434.216.037.396.037.577.037.18.542.396 1.086.54 1.629C28.438 21.758 50.18 7.494 74.7 4.526c-.216-.544-.36-1.087-.252-1.594.937-1.629 1.947-2.244 3.317-2.679C39.075 3.186 6.333 32.873.852 73.023c-5.66 41.49 19.688 80.047 58.235 92.103a5.708 5.708 0 00-.36-1.122c.829-.435 1.658-.905 2.523-1.34.758 1.267 1.443 2.498 1.443 3.512a84.323 84.323 0 0010.096 2.027c36.599 5.033 70.891-14.373 86.613-45.725-1.335-.217-2.272-.942-3.498-1.883z"/><path d="M90.674 37.181c-8.15-1.122-16.046-.108-23.222 2.643-.901.688-1.803 1.376-2.704 2.1-.289-.217-.577-.434-.793-.615-14.063 6.661-24.592 20.093-26.864 36.71-3.57 26.14 14.64 50.215 40.674 53.799 26.034 3.548 50.013-14.698 53.583-40.838 3.534-26.139-14.64-50.215-40.674-53.799zm-12.62 92.393c-24.737-3.403-42.117-26.393-38.727-51.265 3.39-24.836 26.286-42.286 51.022-38.883 24.773 3.403 42.153 26.392 38.763 51.228-3.389 24.873-26.286 42.323-51.058 38.92zM26.922 42.43l12.44 8.183-1.874 2.896-5.12-3.33-3.679 5.683 5.12 3.331-1.91 2.896-12.44-8.145 1.874-2.897 4.904 3.222 3.714-5.72-4.94-3.222 1.912-2.896zm19.869-4.127l-5.012 4.743 1.226 3.258-2.56 2.426L35 33.307l2.488-2.353 15.072 6.263-2.632 2.498-3.137-1.412zm-2.596-1.158l-5.626-2.535 2.2 5.793 3.425-3.258zM62.98 25.958l-2.2.869 2.2 5.611-3.173 1.267-5.481-13.902 3.173-1.267 2.2 5.612 2.307-.905 1.443-7.06 3.353-1.34-1.875 8.508 7.5 5.322-3.642 1.448-5.805-4.163zm23.799-13.07l-5.301 12.346c-.505 1.158-1.154 2.1-1.983 2.751a5 5 0 01-2.705 1.123c-.757.072-1.586-.037-2.452-.29l.613-2.715c.613.144 1.118.18 1.479.144.433-.036.83-.144 1.118-.398.324-.217.613-.58.865-1.05l.108-.18-6.779-10.428 3.642-.325 4.652 7.675 3.353-8.363 3.39-.29zm12.296 2.209c1.298.29 2.379.724 3.209 1.375.865.652 1.478 1.412 1.803 2.317.36.905.396 1.92.144 2.97-.216 1.085-.685 1.954-1.37 2.642s-1.551 1.159-2.597 1.376c-1.01.217-2.2.18-3.497-.109l-2.92-.651-.866 4.054-3.354-.76 3.173-14.59 6.275 1.376zM97.2 22.88c1.01.217 1.839.18 2.452-.145.612-.326 1.009-.905 1.189-1.702.181-.833.036-1.52-.396-2.064-.433-.543-1.154-.94-2.164-1.158l-2.74-.616-1.082 5.069 2.74.616zm13.63 12.598c-1.371-.724-2.452-1.665-3.21-2.86a7.288 7.288 0 01-1.298-3.801c-.072-1.376.217-2.715.902-4.019.685-1.267 1.622-2.28 2.776-3.005a7.662 7.662 0 013.895-1.05c1.406 0 2.776.363 4.146 1.087 1.371.724 2.452 1.665 3.21 2.823.793 1.195 1.226 2.462 1.298 3.838.072 1.34-.217 2.68-.902 3.982-.685 1.304-1.622 2.318-2.812 3.005-1.154.688-2.452 1.05-3.859 1.087-1.406 0-2.776-.363-4.146-1.087zm1.37-2.606c.793.398 1.586.615 2.38.579.829-.036 1.586-.253 2.271-.724.722-.434 1.262-1.086 1.695-1.883.433-.832.649-1.665.613-2.498 0-.796-.216-1.593-.685-2.28-.433-.689-1.046-1.232-1.803-1.63a4.86 4.86 0 00-2.38-.615 4.554 4.554 0 00-2.271.724c-.722.47-1.263 1.086-1.695 1.919-.433.796-.649 1.629-.613 2.462 0 .832.252 1.593.685 2.28a4.723 4.723 0 001.803 1.666zm23.185 2.425c.938.942 1.551 1.92 1.948 2.933.36 1.014.432 1.991.216 2.932-.216.942-.721 1.775-1.514 2.57-.794.761-1.659 1.232-2.597 1.45-.937.18-1.911.072-2.92-.327-.974-.398-1.912-1.05-2.849-1.991l-2.091-2.172-2.957 2.896-2.38-2.498 10.637-10.427 4.507 4.634zm-5.841 5.431c.721.76 1.442 1.159 2.127 1.23.686.073 1.335-.18 1.948-.723.577-.616.865-1.231.793-1.955-.036-.688-.433-1.412-1.154-2.172l-1.983-1.992-3.678 3.62 1.947 1.992zm16.731 15.242l-2.344-4.127-10.493 6.01-1.694-2.97 10.493-6.01-2.344-4.126 2.416-1.412 6.418 11.26-2.452 1.375zM28.87 92.718l2.416 10.825-2.452.543-1.731-7.711-2.74.615.829 3.693c.36 1.629.288 2.933-.18 3.946-.47 1.014-1.37 1.666-2.633 1.919-1.334.326-2.488.073-3.425-.688-.938-.796-1.623-2.027-2.02-3.765l-1.406-6.336 13.342-3.04zm-9.664 8.689c.18.797.469 1.376.865 1.702.397.362.902.47 1.515.326 1.154-.254 1.55-1.195 1.19-2.824l-.685-3.114-3.606.833.721 3.077zm8.474 19.587l-2.236 1.23-5.12-9.304 11.971-6.661 5.012 9.087-2.235 1.267-3.462-6.336-2.632 1.448 3.1 5.576-2.163 1.194-3.065-5.575-2.776 1.521 3.606 6.553zm11.61 7.385c.325.76.397 1.521.253 2.245-.144.724-.505 1.339-1.118 1.846a2.948 2.948 0 01-2.163.76c-.83 0-1.659-.253-2.524-.76a9.339 9.339 0 01-2.344-2.027 11.542 11.542 0 01-1.55-2.354 10.427 10.427 0 01-.902-2.715l2.344-.76c.108.724.324 1.376.649 2.064a7.872 7.872 0 001.19 1.81c.577.724 1.226 1.194 1.875 1.448.685.253 1.226.181 1.694-.217.397-.326.541-.761.47-1.231-.073-.507-.361-1.014-.83-1.593l-2.164-2.535 1.803-1.556 2.02 2.353c.432.507.829.796 1.261.905.433.109.83 0 1.19-.29.397-.362.541-.832.433-1.412-.108-.579-.397-1.194-.937-1.81-.397-.47-.866-.869-1.407-1.267a7.151 7.151 0 00-1.73-.905l1.262-2.317a9.751 9.751 0 013.894 2.86c.685.797 1.226 1.665 1.55 2.534.361.905.47 1.738.361 2.535-.108.796-.469 1.448-1.082 1.991-.468.434-1.045.652-1.658.724-.613.072-1.226-.036-1.84-.326zm24.376 8.87l-6.454 12.128-2.777-1.484 5.229-9.847-5.445-2.933-5.229 9.848-2.776-1.485 6.454-12.128 10.998 5.901zm10.818 14.083l-.505 2.498-10.385-2.244 2.92-13.432 10.097 2.209-.54 2.498-7.032-1.521-.613 2.896 6.202 1.34-.541 2.426-6.202-1.34-.65 3.114 7.249 1.556zm11.142-10.535c1.226-.036 2.271.181 3.173.579.901.399 1.586.942 2.055 1.702.505.724.758 1.629.758 2.643 0 1.014-.217 1.882-.686 2.643a4.835 4.835 0 01-2.055 1.737c-.901.399-1.947.616-3.173.616l-2.74.036.035 3.802H79.82l-.108-13.722 5.914-.036zm-.108 7.349c.937 0 1.658-.217 2.163-.651.469-.398.721-.978.721-1.738 0-.796-.252-1.376-.757-1.774-.505-.398-1.226-.615-2.163-.615l-2.597.036.036 4.779 2.597-.037zm21.166.145l.613 2.498-10.24 2.643-3.426-13.323 10.024-2.57.649 2.462-6.995 1.81.757 2.896 6.13-1.593.613 2.39-6.13 1.593.793 3.077 7.212-1.883zm10.204-17.631l6.599 12.02-2.74 1.52-5.373-9.739-4.111 2.245 1.298 2.571c.902 1.737 1.515 3.185 1.875 4.38.361 1.159.469 2.209.253 3.041-.18.833-.757 1.521-1.659 2.028-.36.217-.865.398-1.478.579l-1.118-2.462c.18-.036.361-.108.541-.217.649-.362.901-1.014.721-1.919-.144-.941-.649-2.245-1.514-3.982l-2.525-4.96 9.231-5.105zm17.849-1.412l1.731 1.883-7.68 7.277-9.411-9.993 7.536-7.096 1.731 1.847-5.229 4.96 2.055 2.172 4.616-4.381 1.695 1.774-4.616 4.381 2.164 2.317 5.408-5.141zm-13.846-3.91c-.289.253-.613.398-.974.398-.36 0-.685-.145-.973-.434a1.43 1.43 0 01-.361-.978c0-.362.181-.688.433-.941a1.3 1.3 0 01.974-.398c.36 0 .685.145.937.434.288.29.397.616.397.978s-.145.688-.433.941zm2.849-2.715c-.289.253-.577.398-.938.398a1.548 1.548 0 01-.974-.471c-.252-.289-.396-.615-.36-.977 0-.326.144-.652.433-.942.288-.253.613-.398.973-.398.361.036.685.181.938.471.288.253.396.579.396.941-.036.398-.18.688-.468.978zm12.764-11.115l-2.38 3.657 9.267 6.118-1.694 2.643-9.303-6.118-2.38 3.656-2.164-1.412 6.491-9.956 2.163 1.412zm11.683-7.929l-2.235 5.974 2.343 2.172-1.153 3.041-10.674-10.535 1.082-2.932 14.964-.942-1.154 3.114-3.173.108zm-2.596.109l-5.661.181 4.147 3.874 1.514-4.055z"/><path d="M212.912 65.095c-9.88.724-15.072-1.992-20.12-4.634-4.724-2.462-9.195-4.816-17.957-4.164-8.727.616-12.801 3.62-17.128 6.77-4.616 3.331-9.375 6.77-19.219 7.494-9.88.724-15.073-1.99-20.121-4.634-.793-.398-1.551-.796-2.344-1.194.108-.037.18-.037.289-.073.865-1.303.757-2.896.036-4.236 1.37.616 2.632 1.304 3.894 1.955 4.724 2.462 9.195 4.816 17.957 4.164 8.726-.616 12.801-3.584 17.128-6.734 4.615-3.367 9.375-6.806 19.219-7.53 9.88-.725 15.073 1.99 20.121 4.634 4.723 2.461 9.231 4.815 17.957 4.163l.288 4.019zm-103.235-2.752c-2.56-.58-5.517-.869-9.267-.58l-.289-4.018c4.219-.326 7.573 0 10.421.652-.757.434-1.442 1.122-2.127 2.136.396.688.829 1.303 1.262 1.81z" fill-opacity=".502"/><path d="M213.922 78.924c-9.88.724-15.073-2.027-20.121-4.634-4.723-2.498-9.195-4.851-17.957-4.2-8.726.652-12.801 3.62-17.164 6.77-4.579 3.332-9.339 6.807-19.219 7.531-9.844.724-15.072-2.027-20.085-4.634-4.759-2.498-9.231-4.851-17.957-4.2l-.288-4.018c9.88-.724 15.072 1.99 20.084 4.634 4.76 2.498 9.231 4.815 17.958 4.2 8.726-.652 12.836-3.62 17.163-6.77 4.616-3.331 9.34-6.807 19.22-7.531 9.88-.724 15.072 1.991 20.12 4.634 4.724 2.498 9.195 4.851 17.957 4.2l.289 4.018z" fill-opacity=".502"/><path d="M214.932 92.719c-9.88.724-15.073-1.992-20.121-4.635-4.724-2.498-9.195-4.85-17.957-4.2-8.726.653-12.837 3.621-17.164 6.77-4.579 3.332-9.339 6.807-19.219 7.531-9.844.724-15.073-1.99-20.085-4.634-4.759-2.498-9.231-4.851-17.957-4.2l-.288-4.018c9.88-.724 15.072 2.027 20.084 4.634 4.76 2.498 9.231 4.851 17.957 4.2 8.727-.652 12.837-3.62 17.164-6.77 4.616-3.331 9.339-6.807 19.219-7.53 9.88-.725 15.073 2.027 20.121 4.633 4.724 2.498 9.195 4.852 17.957 4.2l.289 4.019z" fill-opacity=".502"/><path d="M215.941 106.512c-9.88.724-15.072-1.991-20.12-4.634-1.082-.543-2.164-1.122-3.246-1.629-.18-.254-.432-.47-.793-.724a1.983 1.983 0 00-.793.036c-3.318-1.376-7.176-2.28-12.873-1.883 0-.325-.036-.688-.108-1.05-1.407.942-2.344-2.027-3.678-1.701a339.107 339.107 0 00-4.219 3.403c.072.254.18.507.324.724-4.11 1.303-6.851 3.331-9.735 5.395-4.58 3.366-9.34 6.806-19.22 7.53-5.192.398-9.086-.181-12.332-1.195.253-.688.289-1.376 1.335-1.991-.65-.833-1.299-1.665-1.984-2.498 3.282 1.267 7.14 2.1 12.693 1.665 8.726-.615 12.837-3.584 17.164-6.77 4.579-3.33 9.339-6.77 19.219-7.494 9.88-.724 15.072 1.991 20.121 4.634 2.271 1.195 4.471 2.353 7.139 3.15.072.072.108.145.217.217.288.362.685.109.973.652l.505-.399c2.524.58 5.445.833 9.123.544l.288 4.018zm-91.444 2.426c-1.082-.507-2.092-1.05-3.101-1.593-4.76-2.462-9.231-4.815-17.957-4.164l-.289-4.018c9.844-.724 15.073 1.991 20.085 4.634.973.507 1.911.977 2.921 1.484-1.19 1.014-1.731 2.39-1.659 3.657z" fill-opacity=".502"/><path d="M21.235 72.346l1.071 2.907a.28.28 0 00.204.208l2.96.753c.255.078.331.415.127.571L23.2 78.706c-.077.078-.128.182-.102.286l.204 3.089c0 .285-.28.441-.51.311l-2.526-1.713c-.102-.078-.204-.078-.306-.052l-2.832 1.168c-.255.104-.51-.13-.434-.415l.816-2.96c.026-.103.026-.233-.05-.311l-1.965-2.362c-.153-.234-.026-.546.255-.546l3.036-.13c.102 0 .204-.077.255-.155l1.608-2.622c.153-.234.484-.208.587.052zM146.72 74.407l1.072 2.907a.278.278 0 00.204.208l2.959.753c.256.078.332.415.128.571l-2.398 1.921c-.077.078-.128.182-.102.286l.204 3.089c0 .285-.281.441-.51.311l-2.526-1.713c-.102-.078-.204-.078-.306-.052l-2.833 1.168c-.255.104-.51-.13-.433-.415l.816-2.96c.026-.103.026-.233-.051-.311l-1.964-2.362c-.153-.234-.026-.546.255-.546l3.036-.13c.102 0 .204-.077.255-.155l1.607-2.622c.153-.234.485-.208.587.052z"/><path fill-rule="evenodd" clip-rule="evenodd" d="M108.506 60.288c-1.76-1.767-7.754 1.394-9.515 3.161l-7.077 7.105h-32.17c-.745 0-1.422.543-1.558 1.291-.135.748.271 1.496.982 1.768l21.266 8.464-13.037 13.087H55.071c-.271 0-.508.17-.542.442-.068.271.102.51.339.611l10.362 4.113c.067.272.17.544.27.782l-.473.442c-.644.68-.644 1.7 0 2.379a1.65 1.65 0 002.336 0l.474-.475c.237.135.508.203.745.271l4.03 10.3a.512.512 0 00.61.34c.101 0 .203-.068.27-.136a.564.564 0 00.17-.408V101.69l13.24-13.29 8.33 21.414a1.62 1.62 0 001.795 1.02c.305-.068.61-.238.813-.442.304-.306.474-.714.474-1.156V76.978l7.077-7.104c1.761-1.768 4.876-7.784 3.115-9.586z"/></g><defs><clipPath id="clip0"><path fill="#fff" d="M0 0h216v169H0z"/></clipPath></defs></svg>