<svg width="40" height="40" viewBox="0 0 40 40" fill="none" xmlns="http://www.w3.org/2000/svg">
<path d="M34.1421 5.85789C30.3646 2.08031 25.3422 0 20 0C14.6578 0 9.63539 2.08031 5.85789 5.85789C2.08031 9.63539 0 14.6578 0 20C0 25.3422 2.08031 30.3646 5.85789 34.1421C9.63539 37.9197 14.6578 40 20 40C25.3422 40 30.3646 37.9197 34.1421 34.1421C37.9197 30.3646 40 25.3422 40 20C40 14.6578 37.9197 9.63539 34.1421 5.85789ZM20 38.4375C9.83352 38.4375 1.5625 30.1665 1.5625 20C1.5625 9.83352 9.83352 1.5625 20 1.5625C30.1665 1.5625 38.4375 9.83352 38.4375 20C38.4375 30.1665 30.1665 38.4375 20 38.4375Z" fill="#035A52"/>
<circle cx="20" cy="20" r="16" fill="#6BDBCF"/>
<circle cx="21.5" cy="20.5" r="6.5" fill="#F8C34B"/>
<path d="M31.9324 8.06758C28.7452 4.88031 24.5075 3.125 20 3.125C15.4925 3.125 11.2548 4.88031 8.06758 8.06758C4.88031 11.2548 3.125 15.4925 3.125 20C3.125 24.5075 4.88031 28.7452 8.06758 31.9324C11.2548 35.1197 15.4925 36.875 20 36.875C24.5075 36.875 28.7452 35.1197 31.9324 31.9324C35.1197 28.7452 36.875 24.5075 36.875 20C36.875 15.4925 35.1197 11.2548 31.9324 8.06758ZM20.7812 35.2927V31.4062C20.7812 30.9748 20.4315 30.625 20 30.625C19.5685 30.625 19.2188 30.9748 19.2188 31.4062V35.2927C11.3958 34.8977 5.10234 28.6042 4.70727 20.7812H8.59375C9.02523 20.7812 9.375 20.4315 9.375 20C9.375 19.5685 9.02523 19.2188 8.59375 19.2188H4.70727C5.10234 11.3958 11.3958 5.10234 19.2188 4.70727V8.59375C19.2188 9.02523 19.5685 9.375 20 9.375C20.4315 9.375 20.7812 9.02523 20.7812 8.59375V4.70727C28.6042 5.10234 34.8977 11.3958 35.2927 19.2188H31.4062C30.9748 19.2188 30.625 19.5685 30.625 20C30.625 20.4315 30.9748 20.7812 31.4062 20.7812H35.2927C34.8977 28.6042 28.6042 34.8977 20.7812 35.2927Z" fill="#035A52"/>
<path d="M22.7296 16.5019C22.5252 16.5018 22.3208 16.5737 22.1774 16.7179L21.01 17.8854C20.7039 17.7386 20.3614 17.6562 20 17.6562C19.6386 17.6562 19.2961 17.7386 18.9901 17.8853C18.9901 17.8853 12.9028 11.7979 12.8961 11.7913C12.5946 11.4898 12.0923 11.4904 11.7914 11.7913C11.4868 12.096 11.4868 12.5913 11.7914 12.896L17.8854 18.99C17.7386 19.296 17.6563 19.6386 17.6563 20C17.6563 21.2923 18.7077 22.3437 20 22.3437C21.2924 22.3437 22.3438 21.2923 22.3438 20C22.3438 19.6387 22.2614 19.2962 22.1148 18.9903C22.1148 18.9903 23.2788 17.8266 23.282 17.8234C23.5803 17.5252 23.5786 17.0146 23.2821 16.718C23.1383 16.5741 22.9339 16.5021 22.7296 16.5019ZM20 20.7812C19.5693 20.7812 19.2188 20.4308 19.2188 20C19.2188 19.5692 19.5693 19.2187 20 19.2187C20.4308 19.2187 20.7813 19.5692 20.7813 20C20.7813 20.4308 20.4308 20.7812 20 20.7812Z" fill="#035A52"/>
<path d="M24.9219 15.8594C25.3533 15.8594 25.7031 15.5096 25.7031 15.0781C25.7031 14.6467 25.3533 14.2969 24.9219 14.2969C24.4904 14.2969 24.1406 14.6467 24.1406 15.0781C24.1406 15.5096 24.4904 15.8594 24.9219 15.8594Z" fill="#035A52"/>
</svg>
