<svg width="52" height="52" viewBox="0 0 52 52" fill="none" xmlns="http://www.w3.org/2000/svg">
<path d="M3 48V20H48.5V48H3Z" fill="#6BDBCF"/>
<path d="M1 20V12H32V20H1Z" fill="#F8C34B"/>
<path d="M49.9688 10.7663H38.2577C38.837 9.79562 39.1557 8.826 39.2049 7.86908C39.2769 6.4664 38.764 5.17391 37.7213 4.13137C36.6028 3.01277 35.2115 2.5077 33.6981 2.6705C32.1172 2.84052 30.514 3.72837 28.9331 5.30919C27.7965 6.44578 26.7706 7.84145 26 9.27044C25.2294 7.84155 24.2035 6.44578 23.0669 5.30919C21.486 3.72827 19.8827 2.84041 18.3019 2.6704C16.7886 2.5079 15.3972 3.01277 14.2788 4.13127C13.236 5.17391 12.7231 6.4664 12.7951 7.86908C12.8443 8.8261 13.1631 9.79562 13.7423 10.7663H2.03125C0.911219 10.7663 0 11.6776 0 12.7976V18.8913C0 20.0114 0.911219 20.9226 2.03125 20.9226V47.3288C2.03125 48.4489 2.94247 49.3601 4.0625 49.3601H47.9374C49.0574 49.3601 49.9686 48.4489 49.9686 47.3288V20.9226C51.0887 20.9226 51.9999 20.0114 51.9999 18.8913V12.7976C52 11.6775 51.0887 10.7663 49.9688 10.7663ZM30.3695 6.74539C31.5967 5.51821 32.8229 4.80737 33.9154 4.68997C34.8093 4.59409 35.6065 4.88903 36.285 5.56757C37.6375 6.92008 37.4504 8.75927 35.7658 10.7662H32.4401L33.8592 9.36926C34.259 8.9758 34.264 8.33271 33.8705 7.93296C33.477 7.53321 32.8339 7.52813 32.4342 7.92169L29.5445 10.7663H27.5182C28.2144 9.33513 29.2421 7.87284 30.3695 6.74539ZM20.9217 18.8913V12.7976H31.0783V18.8913H20.9217ZM15.715 5.56757C16.3934 4.88913 17.1904 4.59409 18.0846 4.68997C19.1771 4.80748 20.4033 5.51821 21.6305 6.74549C22.7579 7.87284 23.7856 9.33513 24.4818 10.7663H22.4555L19.5657 7.92179C19.166 7.52823 18.5229 7.53321 18.1294 7.93306C17.7359 8.33281 17.7409 8.9759 18.1407 9.36936L19.5599 10.7663H16.2341C14.5496 8.75927 14.3625 6.92008 15.715 5.56757ZM2.03105 12.7976H2.03125H18.8904V18.8913H3.04789C3.04759 18.8913 3.04728 18.8913 3.04698 18.8913C3.04667 18.8913 3.04637 18.8913 3.04606 18.8913H2.03125L2.03105 12.7976ZM4.0625 20.9226H20.9217V29.555C20.9217 30.1159 21.3764 30.5706 21.9373 30.5706C22.4982 30.5706 22.9529 30.1159 22.9529 29.555V20.9225H29.0469V47.3287H22.9529V38.6956C22.9529 38.1347 22.4982 37.68 21.9373 37.68C21.3764 37.68 20.9217 38.1347 20.9217 38.6956V47.3288H4.0625V20.9226ZM47.9374 47.3288H31.0782V20.9226H47.9374V47.3288ZM49.9688 18.8913H48.9531H33.1097V12.7976H49.9688V18.8913Z" fill="#035A52"/>
<path d="M21.9375 35.1419C22.4984 35.1419 22.9531 34.6872 22.9531 34.1263V34.1256C22.9531 33.5646 22.4984 33.1104 21.9375 33.1104C21.3766 33.1104 20.9219 33.5653 20.9219 34.1263C20.9219 34.6872 21.3766 35.1419 21.9375 35.1419Z" fill="#035A52"/>
</svg>
