<svg width="259" height="95" viewBox="0 0 259 95" fill="none" xmlns="http://www.w3.org/2000/svg">
<rect x="38" y="48" width="10" height="29" fill="#6BDBCF"/>
<rect x="19" y="48" width="10" height="29" fill="#6BDBCF"/>
<rect y="48" width="11" height="29" fill="#6BDBCF"/>
<rect x="57" y="34" width="10" height="43" fill="#6BDBCF"/>
<rect x="76" y="22" width="10" height="55" fill="#6BDBCF"/>
<rect x="95" y="5" width="10" height="72" fill="#6BDBCF"/>
<rect x="114" y="5" width="10" height="72" fill="#6BDBCF"/>
<rect x="133" y="15" width="10" height="62" fill="#6BDBCF"/>
<rect x="152" y="24" width="10" height="53" fill="#6BDBCF"/>
<rect x="171" y="32" width="10" height="45" fill="#6BDBCF"/>
<rect x="190" y="18" width="10" height="59" fill="#6BDBCF"/>
<rect x="209" y="18" width="10" height="59" fill="#6BDBCF"/>
<rect x="228" width="10" height="77" fill="#6BDBCF"/>
<rect x="246" y="41" width="11" height="36" fill="#6BDBCF"/>
<path d="M6.86328 89.25C6.63672 89.5195 6.36523 89.7363 6.04883 89.9004C5.73633 90.0645 5.39258 90.1465 5.01758 90.1465C4.52539 90.1465 4.0957 90.0254 3.72852 89.7832C3.36523 89.541 3.08398 89.2012 2.88477 88.7637C2.68555 88.3223 2.58594 87.8359 2.58594 87.3047C2.58594 86.7344 2.69336 86.2207 2.9082 85.7637C3.12695 85.3066 3.43555 84.957 3.83398 84.7148C4.23242 84.4727 4.69727 84.3516 5.22852 84.3516C6.07227 84.3516 6.73633 84.668 7.2207 85.3008C7.70898 85.9297 7.95312 86.7891 7.95312 87.8789V88.1953C7.95312 89.8555 7.625 91.0684 6.96875 91.834C6.3125 92.5957 5.32227 92.9863 3.99805 93.0059H3.78711V92.0918H4.01562C4.91016 92.0762 5.59766 91.8438 6.07812 91.3945C6.55859 90.9414 6.82031 90.2266 6.86328 89.25ZM5.19336 89.25C5.55664 89.25 5.89062 89.1387 6.19531 88.916C6.50391 88.6934 6.72852 88.418 6.86914 88.0898V87.6562C6.86914 86.9453 6.71484 86.3672 6.40625 85.9219C6.09766 85.4766 5.70703 85.2539 5.23438 85.2539C4.75781 85.2539 4.375 85.4375 4.08594 85.8047C3.79688 86.168 3.65234 86.6484 3.65234 87.2461C3.65234 87.8281 3.79102 88.3086 4.06836 88.6875C4.34961 89.0625 4.72461 89.25 5.19336 89.25Z" fill="black"/>
<path d="M22.0332 93H20.9434V85.7754L18.7578 86.5781V85.5938L21.8633 84.4277H22.0332V93ZM30.5586 89.3613C30.5586 90.6309 30.3418 91.5742 29.9082 92.1914C29.4746 92.8086 28.7969 93.1172 27.875 93.1172C26.9648 93.1172 26.291 92.8164 25.8535 92.2148C25.416 91.6094 25.1895 90.707 25.1738 89.5078V88.0605C25.1738 86.8066 25.3906 85.875 25.8242 85.2656C26.2578 84.6562 26.9375 84.3516 27.8633 84.3516C28.7812 84.3516 29.457 84.6465 29.8906 85.2363C30.3242 85.8223 30.5469 86.7285 30.5586 87.9551V89.3613ZM29.4746 87.8789C29.4746 86.9609 29.3457 86.293 29.0879 85.875C28.8301 85.4531 28.4219 85.2422 27.8633 85.2422C27.3086 85.2422 26.9043 85.4512 26.6504 85.8691C26.3965 86.2871 26.2656 86.9297 26.2578 87.7969V89.5312C26.2578 90.4531 26.3906 91.1348 26.6562 91.5762C26.9258 92.0137 27.332 92.2324 27.875 92.2324C28.4102 92.2324 28.8066 92.0254 29.0645 91.6113C29.3262 91.1973 29.4629 90.5449 29.4746 89.6543V87.8789Z" fill="black"/>
<path d="M79.0332 93H77.9434V85.7754L75.7578 86.5781V85.5938L78.8633 84.4277H79.0332V93ZM83.7852 88.207H84.5996C85.1113 88.1992 85.5137 88.0645 85.8066 87.8027C86.0996 87.541 86.2461 87.1875 86.2461 86.7422C86.2461 85.7422 85.748 85.2422 84.752 85.2422C84.2832 85.2422 83.9082 85.377 83.627 85.6465C83.3496 85.9121 83.2109 86.2656 83.2109 86.707H82.127C82.127 86.0312 82.373 85.4707 82.8652 85.0254C83.3613 84.5762 83.9902 84.3516 84.752 84.3516C85.5566 84.3516 86.1875 84.5645 86.6445 84.9902C87.1016 85.416 87.3301 86.0078 87.3301 86.7656C87.3301 87.1367 87.209 87.4961 86.9668 87.8438C86.7285 88.1914 86.4023 88.4512 85.9883 88.623C86.457 88.7715 86.8184 89.0176 87.0723 89.3613C87.3301 89.7051 87.459 90.125 87.459 90.6211C87.459 91.3867 87.209 91.9941 86.709 92.4434C86.209 92.8926 85.5586 93.1172 84.7578 93.1172C83.957 93.1172 83.3047 92.9004 82.8008 92.4668C82.3008 92.0332 82.0508 91.4609 82.0508 90.75H83.1406C83.1406 91.1992 83.2871 91.5586 83.5801 91.8281C83.873 92.0977 84.2656 92.2324 84.7578 92.2324C85.2812 92.2324 85.6816 92.0957 85.959 91.8223C86.2363 91.5488 86.375 91.1562 86.375 90.6445C86.375 90.1484 86.2227 89.7676 85.918 89.502C85.6133 89.2363 85.1738 89.0996 84.5996 89.0918H83.7852V88.207Z" fill="black"/>
<path d="M41.0332 93H39.9434V85.7754L37.7578 86.5781V85.5938L40.8633 84.4277H41.0332V93ZM47.7715 93H46.6816V85.7754L44.4961 86.5781V85.5938L47.6016 84.4277H47.7715V93Z" fill="black"/>
<path d="M98.0332 93H96.9434V85.7754L94.7578 86.5781V85.5938L97.8633 84.4277H98.0332V93ZM105.785 90.1348H106.969V91.0195H105.785V93H104.695V91.0195H100.811V90.3809L104.631 84.4688H105.785V90.1348ZM102.041 90.1348H104.695V85.9512L104.566 86.1855L102.041 90.1348Z" fill="black"/>
<path d="M60.0332 93H58.9434V85.7754L56.7578 86.5781V85.5938L59.8633 84.4277H60.0332V93ZM68.7988 93H63.209V92.2207L66.1621 88.9395C66.5996 88.4434 66.9004 88.041 67.0645 87.7324C67.2324 87.4199 67.3164 87.0977 67.3164 86.7656C67.3164 86.3203 67.1816 85.9551 66.9121 85.6699C66.6426 85.3848 66.2832 85.2422 65.834 85.2422C65.2949 85.2422 64.875 85.3965 64.5742 85.7051C64.2773 86.0098 64.1289 86.4355 64.1289 86.9824H63.0449C63.0449 86.1973 63.2969 85.5625 63.8008 85.0781C64.3086 84.5938 64.9863 84.3516 65.834 84.3516C66.627 84.3516 67.2539 84.5605 67.7148 84.9785C68.1758 85.3926 68.4062 85.9453 68.4062 86.6367C68.4062 87.4766 67.8711 88.4766 66.8008 89.6367L64.5156 92.1152H68.7988V93Z" fill="black"/>
<path d="M117.033 93H115.943V85.7754L113.758 86.5781V85.5938L116.863 84.4277H117.033V93ZM120.707 88.7227L121.141 84.4688H125.512V85.4707H122.061L121.803 87.7969C122.221 87.5508 122.695 87.4277 123.227 87.4277C124.004 87.4277 124.621 87.6855 125.078 88.2012C125.535 88.7129 125.764 89.4062 125.764 90.2812C125.764 91.1602 125.525 91.8535 125.049 92.3613C124.576 92.8652 123.914 93.1172 123.062 93.1172C122.309 93.1172 121.693 92.9082 121.217 92.4902C120.74 92.0723 120.469 91.4941 120.402 90.7559H121.428C121.494 91.2441 121.668 91.6133 121.949 91.8633C122.23 92.1094 122.602 92.2324 123.062 92.2324C123.566 92.2324 123.961 92.0605 124.246 91.7168C124.535 91.373 124.68 90.8984 124.68 90.293C124.68 89.7227 124.523 89.2656 124.211 88.9219C123.902 88.5742 123.49 88.4004 122.975 88.4004C122.502 88.4004 122.131 88.5039 121.861 88.7109L121.574 88.9453L120.707 88.7227Z" fill="black"/>
<path d="M136.033 93H134.943V85.7754L132.758 86.5781V85.5938L135.863 84.4277H136.033V93ZM143.463 84.4629V85.3828H143.264C142.42 85.3984 141.748 85.6484 141.248 86.1328C140.748 86.6172 140.459 87.2988 140.381 88.1777C140.83 87.6621 141.443 87.4043 142.221 87.4043C142.963 87.4043 143.555 87.666 143.996 88.1895C144.441 88.7129 144.664 89.3887 144.664 90.2168C144.664 91.0957 144.424 91.7988 143.943 92.3262C143.467 92.8535 142.826 93.1172 142.021 93.1172C141.205 93.1172 140.543 92.8047 140.035 92.1797C139.527 91.5508 139.273 90.7422 139.273 89.7539V89.3379C139.273 87.7676 139.607 86.5684 140.275 85.7402C140.947 84.9082 141.945 84.4824 143.27 84.4629H143.463ZM142.039 88.3066C141.668 88.3066 141.326 88.418 141.014 88.6406C140.701 88.8633 140.484 89.1426 140.363 89.4785V89.877C140.363 90.5801 140.521 91.1465 140.838 91.5762C141.154 92.0059 141.549 92.2207 142.021 92.2207C142.51 92.2207 142.893 92.041 143.17 91.6816C143.451 91.3223 143.592 90.8516 143.592 90.2695C143.592 89.6836 143.449 89.2109 143.164 88.8516C142.883 88.4883 142.508 88.3066 142.039 88.3066Z" fill="black"/>
<path d="M155.033 93H153.943V85.7754L151.758 86.5781V85.5938L154.863 84.4277H155.033V93ZM163.717 85.0781L160.184 93H159.047L162.568 85.3594H157.951V84.4688H163.717V85.0781Z" fill="black"/>
<path d="M174.033 93H172.943V85.7754L170.758 86.5781V85.5938L173.863 84.4277H174.033V93ZM182.383 86.6953C182.383 87.1211 182.27 87.5 182.043 87.832C181.82 88.1641 181.518 88.4238 181.135 88.6113C181.58 88.8027 181.932 89.082 182.189 89.4492C182.451 89.8164 182.582 90.2324 182.582 90.6973C182.582 91.4355 182.332 92.0234 181.832 92.4609C181.336 92.8984 180.682 93.1172 179.869 93.1172C179.049 93.1172 178.391 92.8984 177.895 92.4609C177.402 92.0195 177.156 91.4316 177.156 90.6973C177.156 90.2363 177.281 89.8203 177.531 89.4492C177.785 89.0781 178.135 88.7969 178.58 88.6055C178.201 88.418 177.902 88.1582 177.684 87.8262C177.465 87.4941 177.355 87.1172 177.355 86.6953C177.355 85.9766 177.586 85.4062 178.047 84.9844C178.508 84.5625 179.115 84.3516 179.869 84.3516C180.619 84.3516 181.225 84.5625 181.686 84.9844C182.15 85.4062 182.383 85.9766 182.383 86.6953ZM181.498 90.6738C181.498 90.1973 181.346 89.8086 181.041 89.5078C180.74 89.207 180.346 89.0566 179.857 89.0566C179.369 89.0566 178.977 89.2051 178.68 89.502C178.387 89.7988 178.24 90.1895 178.24 90.6738C178.24 91.1582 178.383 91.5391 178.668 91.8164C178.957 92.0938 179.357 92.2324 179.869 92.2324C180.377 92.2324 180.775 92.0938 181.064 91.8164C181.354 91.5352 181.498 91.1543 181.498 90.6738ZM179.869 85.2422C179.443 85.2422 179.098 85.375 178.832 85.6406C178.57 85.9023 178.439 86.2598 178.439 86.7129C178.439 87.1465 178.568 87.498 178.826 87.7676C179.088 88.0332 179.436 88.166 179.869 88.166C180.303 88.166 180.648 88.0332 180.906 87.7676C181.168 87.498 181.299 87.1465 181.299 86.7129C181.299 86.2793 181.164 85.9258 180.895 85.6523C180.625 85.3789 180.283 85.2422 179.869 85.2422Z" fill="black"/>
<path d="M193.033 93H191.943V85.7754L189.758 86.5781V85.5938L192.863 84.4277H193.033V93ZM200.363 89.25C200.137 89.5195 199.865 89.7363 199.549 89.9004C199.236 90.0645 198.893 90.1465 198.518 90.1465C198.025 90.1465 197.596 90.0254 197.229 89.7832C196.865 89.541 196.584 89.2012 196.385 88.7637C196.186 88.3223 196.086 87.8359 196.086 87.3047C196.086 86.7344 196.193 86.2207 196.408 85.7637C196.627 85.3066 196.936 84.957 197.334 84.7148C197.732 84.4727 198.197 84.3516 198.729 84.3516C199.572 84.3516 200.236 84.668 200.721 85.3008C201.209 85.9297 201.453 86.7891 201.453 87.8789V88.1953C201.453 89.8555 201.125 91.0684 200.469 91.834C199.812 92.5957 198.822 92.9863 197.498 93.0059H197.287V92.0918H197.516C198.41 92.0762 199.098 91.8438 199.578 91.3945C200.059 90.9414 200.32 90.2266 200.363 89.25ZM198.693 89.25C199.057 89.25 199.391 89.1387 199.695 88.916C200.004 88.6934 200.229 88.418 200.369 88.0898V87.6562C200.369 86.9453 200.215 86.3672 199.906 85.9219C199.598 85.4766 199.207 85.2539 198.734 85.2539C198.258 85.2539 197.875 85.4375 197.586 85.8047C197.297 86.168 197.152 86.6484 197.152 87.2461C197.152 87.8281 197.291 88.3086 197.568 88.6875C197.85 89.0625 198.225 89.25 198.693 89.25Z" fill="black"/>
<path d="M214.061 93H208.471V92.2207L211.424 88.9395C211.861 88.4434 212.162 88.041 212.326 87.7324C212.494 87.4199 212.578 87.0977 212.578 86.7656C212.578 86.3203 212.443 85.9551 212.174 85.6699C211.904 85.3848 211.545 85.2422 211.096 85.2422C210.557 85.2422 210.137 85.3965 209.836 85.7051C209.539 86.0098 209.391 86.4355 209.391 86.9824H208.307C208.307 86.1973 208.559 85.5625 209.062 85.0781C209.57 84.5938 210.248 84.3516 211.096 84.3516C211.889 84.3516 212.516 84.5605 212.977 84.9785C213.438 85.3926 213.668 85.9453 213.668 86.6367C213.668 87.4766 213.133 88.4766 212.062 89.6367L209.777 92.1152H214.061V93ZM220.559 89.3613C220.559 90.6309 220.342 91.5742 219.908 92.1914C219.475 92.8086 218.797 93.1172 217.875 93.1172C216.965 93.1172 216.291 92.8164 215.854 92.2148C215.416 91.6094 215.189 90.707 215.174 89.5078V88.0605C215.174 86.8066 215.391 85.875 215.824 85.2656C216.258 84.6562 216.938 84.3516 217.863 84.3516C218.781 84.3516 219.457 84.6465 219.891 85.2363C220.324 85.8223 220.547 86.7285 220.559 87.9551V89.3613ZM219.475 87.8789C219.475 86.9609 219.346 86.293 219.088 85.875C218.83 85.4531 218.422 85.2422 217.863 85.2422C217.309 85.2422 216.904 85.4512 216.65 85.8691C216.396 86.2871 216.266 86.9297 216.258 87.7969V89.5312C216.258 90.4531 216.391 91.1348 216.656 91.5762C216.926 92.0137 217.332 92.2324 217.875 92.2324C218.41 92.2324 218.807 92.0254 219.064 91.6113C219.326 91.1973 219.463 90.5449 219.475 89.6543V87.8789Z" fill="black"/>
<path d="M233.061 93H227.471V92.2207L230.424 88.9395C230.861 88.4434 231.162 88.041 231.326 87.7324C231.494 87.4199 231.578 87.0977 231.578 86.7656C231.578 86.3203 231.443 85.9551 231.174 85.6699C230.904 85.3848 230.545 85.2422 230.096 85.2422C229.557 85.2422 229.137 85.3965 228.836 85.7051C228.539 86.0098 228.391 86.4355 228.391 86.9824H227.307C227.307 86.1973 227.559 85.5625 228.062 85.0781C228.57 84.5938 229.248 84.3516 230.096 84.3516C230.889 84.3516 231.516 84.5605 231.977 84.9785C232.438 85.3926 232.668 85.9453 232.668 86.6367C232.668 87.4766 232.133 88.4766 231.062 89.6367L228.777 92.1152H233.061V93ZM237.771 93H236.682V85.7754L234.496 86.5781V85.5938L237.602 84.4277H237.771V93Z" fill="black"/>
<path d="M251.061 93H245.471V92.2207L248.424 88.9395C248.861 88.4434 249.162 88.041 249.326 87.7324C249.494 87.4199 249.578 87.0977 249.578 86.7656C249.578 86.3203 249.443 85.9551 249.174 85.6699C248.904 85.3848 248.545 85.2422 248.096 85.2422C247.557 85.2422 247.137 85.3965 246.836 85.7051C246.539 86.0098 246.391 86.4355 246.391 86.9824H245.307C245.307 86.1973 245.559 85.5625 246.062 85.0781C246.57 84.5938 247.248 84.3516 248.096 84.3516C248.889 84.3516 249.516 84.5605 249.977 84.9785C250.438 85.3926 250.668 85.9453 250.668 86.6367C250.668 87.4766 250.133 88.4766 249.062 89.6367L246.777 92.1152H251.061V93ZM257.799 93H252.209V92.2207L255.162 88.9395C255.6 88.4434 255.9 88.041 256.064 87.7324C256.232 87.4199 256.316 87.0977 256.316 86.7656C256.316 86.3203 256.182 85.9551 255.912 85.6699C255.643 85.3848 255.283 85.2422 254.834 85.2422C254.295 85.2422 253.875 85.3965 253.574 85.7051C253.277 86.0098 253.129 86.4355 253.129 86.9824H252.045C252.045 86.1973 252.297 85.5625 252.801 85.0781C253.309 84.5938 253.986 84.3516 254.834 84.3516C255.627 84.3516 256.254 84.5605 256.715 84.9785C257.176 85.3926 257.406 85.9453 257.406 86.6367C257.406 87.4766 256.871 88.4766 255.801 89.6367L253.516 92.1152H257.799V93Z" fill="black"/>
</svg>
