<svg width="93" height="93" fill="none" xmlns="http://www.w3.org/2000/svg"><g clip-path="url(#clip0)"><path d="M2 71.5l13-46 67.5 11L80 84l-35-5.5L44 56l-7 21.5-35-6z" fill="#6BDBCF"/><path d="M16 34.5c-2-.4-3.167-.167-3.5 0l-6 22L12 58c.167.5.7 1.9 1.5 3.5 1 2 4.5 2.5 8.5 2 3.2-.4 4.333-4.167 4.5-6 .667-.167 2.3-.5 3.5-.5 1.5 0 3.5-2.5 4-7 .4-3.6-2.167-5.5-3.5-6 .167-1.167.4-3.8 0-5-.5-1.5-2-3.5-5-4.5-2.4-.8-5 .666-6 1.5-.333-.334-1.5-1.1-3.5-1.5z" fill="#F8C34B"/><path d="M15.565 53.305a6.524 6.524 0 004.884 1.169 6.509 6.509 0 004.276-2.624 6.513 6.513 0 001.17-4.878 6.512 6.512 0 00-2.623-4.28 6.52 6.52 0 00-4.881-1.172 6.508 6.508 0 00-4.28 2.622 6.511 6.511 0 00-1.168 4.884 6.508 6.508 0 002.622 4.279zm.465-7.77a4.155 4.155 0 012.731-1.673 4.171 4.171 0 013.119.748 4.156 4.156 0 011.674 2.733 4.16 4.16 0 01-.748 3.115 4.154 4.154 0 01-2.73 1.674 4.157 4.157 0 01-3.118-.745 4.154 4.154 0 01-1.673-2.733 4.16 4.16 0 01.745-3.119zM76.428 46.43a4.834 4.834 0 00-3.72-.274 4.833 4.833 0 00-2.82 2.44 4.83 4.83 0 00-.273 3.716 4.845 4.845 0 002.44 2.822 4.85 4.85 0 001.43.459 4.888 4.888 0 005.109-2.626 4.876 4.876 0 00-2.166-6.537zm.047 5.472a2.508 2.508 0 01-3.356 1.114 2.49 2.49 0 01-1.253-1.45c-.21-.633-.16-1.31.14-1.905l.001-.003a2.478 2.478 0 011.446-1.252 2.483 2.483 0 011.91.142 2.503 2.503 0 011.112 3.354z" fill="#035A52"/><path d="M81.246 84.03l.39-8.018a1.184 1.184 0 10-2.368-.115l-.326 6.703-5.65-.875a6.31 6.31 0 001.011-2.571 6.326 6.326 0 00-5.062-7.177 6.34 6.34 0 00-5.118-4.55 6.286 6.286 0 00-6.18 2.663 6.325 6.325 0 00-6.813 8.194l-5.168-.803.064-23.015 1.164-7.494a1.185 1.185 0 10-2.343-.364l-1.163 7.494-6.92 21.95-32.833-5.098 3.353-12.635c1.456.603 2.991.655 4.067.582a8.298 8.298 0 003.14 4.501 8.32 8.32 0 006.227 1.492 8.316 8.316 0 005.459-3.349 8.352 8.352 0 001.36-2.932 8.43 8.43 0 006.405-3.444c2.711-3.736 1.878-8.98-1.868-11.699l-.038-.027a8.32 8.32 0 00-3.261-8.558 8.413 8.413 0 00-9.317-.349l-.012-.009c-1.387-1.007-3.444-1.752-5.426-1.59l1.644-6.193 22.723 3.529a32.652 32.652 0 00.4 7.197 1.186 1.186 0 002.34-.385 30.333 30.333 0 01-.385-6.446l15.204 2.36a30.355 30.355 0 01-2.322 6.027 1.185 1.185 0 102.112 1.076 32.694 32.694 0 002.565-6.736l22.747 3.532-.174 3.855a6.838 6.838 0 00-3.513.082 6.584 6.584 0 00-6.91-1.807A6.53 6.53 0 0066 44.453a6.507 6.507 0 00-3.655 3.232 6.509 6.509 0 00-.366 5.006 6.513 6.513 0 003.758 4.017c-.026.769.084 1.543.326 2.286a6.516 6.516 0 003.282 3.8c.621.312 1.276.521 1.944.625a6.537 6.537 0 003.064-.26 6.491 6.491 0 003.29-2.43c.744.239 1.537.352 2.317.333l-.428 9.5a1.185 1.185 0 002.368.106l1.82-40.407 1.248-8.027A3.711 3.711 0 0081.871 18l-27.983-4.346a1.185 1.185 0 10-.364 2.343l27.983 4.346a1.338 1.338 0 011.116 1.526l-1.074 6.92-22.324-3.467a30.576 30.576 0 00-.472-4.686 1.185 1.185 0 10-2.334.418c.233 1.303.373 2.603.423 3.897l-14.514-2.254a28.31 28.31 0 011.584-3.586 1.185 1.185 0 10-2.098-1.104 30.685 30.685 0 00-1.87 4.32l-22.324-3.467 1.074-6.92a1.34 1.34 0 011.53-1.114l28.042 4.354a1.185 1.185 0 10.363-2.342L20.59 8.484a3.714 3.714 0 00-4.237 3.094l-1.247 8.03-13.804 52.01a1.185 1.185 0 00.963 1.476l35.142 5.457a1.185 1.185 0 001.312-.815l4.915-15.592-.045 16.349a1.185 1.185 0 001.003 1.174l35.29 5.476a1.185 1.185 0 001.364-1.114zm-3.55-25.839a1.185 1.185 0 00-1.625.54 4.146 4.146 0 01-2.464 2.178 4.163 4.163 0 01-3.199-.233 4.158 4.158 0 01-2.094-2.423 4.236 4.236 0 01-.13-2.148 1.185 1.185 0 00-.9-1.39 4.168 4.168 0 01-3.056-2.772 4.154 4.154 0 01.234-3.194 4.162 4.162 0 012.905-2.223c.565-.111.967-.612.956-1.186a4.173 4.173 0 012.874-4.062 4.197 4.197 0 014.786 1.63c.32.477.937.655 1.462.423a5.3 5.3 0 01.482-.19c.89-.294 1.928-.27 2.838.046l-.698 15.498a4.598 4.598 0 01-2.371-.494zm3.611-27.04l-.151 3.365L58.8 31.044c.192-1.104.32-2.214.384-3.329l22.123 3.436zM56.83 27.349a27.17 27.17 0 01-.375 3.331l-15.494-2.406c.151-1.111.37-2.207.654-3.288L56.83 27.35zm-17.57-2.728a29.483 29.483 0 00-.644 3.289l-22.34-3.47.864-3.255 22.12 3.436zM13.345 35.48c1.498-.509 3.477.07 4.71.967.19.136.368.283.532.437a1.185 1.185 0 001.547.067 6.028 6.028 0 017.249-.148 5.968 5.968 0 012.153 6.788 1.185 1.185 0 00.548 1.42c.2.11.408.242.607.383a6.007 6.007 0 011.333 8.38 5.958 5.958 0 01-5.373 2.454 1.185 1.185 0 00-1.28 1.052 5.99 5.99 0 01-1.111 2.87 5.962 5.962 0 01-3.914 2.402 5.95 5.95 0 01-4.462-1.07 5.959 5.959 0 01-2.421-4.05 1.185 1.185 0 00-1.388-1.005c-1.247.228-2.901.204-4.174-.434l5.444-20.513zm51.461 44.927l-5.249-.816a2.764 2.764 0 011.11-2.49 2.75 2.75 0 013.835.594c.58.794.68 1.836.304 2.712zm5.689.883l-3.313-.514a5.158 5.158 0 00-.766-4.48 5.126 5.126 0 00-7.147-1.109 5.144 5.144 0 00-2.088 4.035l-3.19-.495a3.95 3.95 0 014.239-6.168 1.185 1.185 0 001.374-.624 3.93 3.93 0 014.155-2.167 3.955 3.955 0 013.313 3.426c.07.578.548 1.02 1.129 1.044a3.953 3.953 0 013.76 4.55 3.94 3.94 0 01-1.466 2.502z" fill="#035A52"/></g><defs><clipPath id="clip0"><path fill="#fff" transform="rotate(8.828 6.209 80.437)" d="M0 0h80.915v80.915H0z"/></clipPath></defs></svg>